<svg width="214" height="25" viewBox="0 0 214 25" fill="none" xmlns="http://www.w3.org/2000/svg">
<g clip-path="url(#clip0_225_6930)">
<path d="M20.125 10.083C20.125 16.7913 11.5 22.5413 11.5 22.5413C11.5 22.5413 2.875 16.7913 2.875 10.083C2.875 7.79552 3.7837 5.60171 5.4012 3.98421C7.0187 2.36671 9.21251 1.45801 11.5 1.45801C13.7875 1.45801 15.9813 2.36671 17.5988 3.98421C19.2163 5.60171 20.125 7.79552 20.125 10.083Z" stroke="#979797" stroke-width="1.5" stroke-linecap="round" stroke-linejoin="round"/>
<path d="M11.5 12.958C13.0878 12.958 14.375 11.6708 14.375 10.083C14.375 8.49519 13.0878 7.20801 11.5 7.20801C9.91218 7.20801 8.625 8.49519 8.625 10.083C8.625 11.6708 9.91218 12.958 11.5 12.958Z" stroke="#979797" stroke-width="1.5" stroke-linecap="round" stroke-linejoin="round"/>
</g>
<path d="M40.376 18.692C39.6187 18.692 38.936 18.548 38.328 18.26C37.7307 17.972 37.2293 17.5933 36.824 17.124C36.4293 16.6547 36.1467 16.148 35.976 15.604L36.904 15.268C37.2027 16.0787 37.6453 16.6973 38.232 17.124C38.8293 17.5507 39.5387 17.764 40.36 17.764C40.904 17.764 41.3787 17.6733 41.784 17.492C42.2 17.3107 42.5253 17.0547 42.76 16.724C42.9947 16.3933 43.112 16.004 43.112 15.556C43.112 14.9373 42.936 14.4573 42.584 14.116C42.2427 13.7747 41.7947 13.5293 41.24 13.38L39.064 12.74C38.1787 12.484 37.5227 12.0733 37.096 11.508C36.68 10.932 36.472 10.2813 36.472 9.556C36.472 8.92667 36.6213 8.37733 36.92 7.908C37.2293 7.428 37.6453 7.05467 38.168 6.788C38.6907 6.52133 39.2827 6.388 39.944 6.388C40.6373 6.388 41.256 6.52133 41.8 6.788C42.3547 7.044 42.8187 7.38533 43.192 7.812C43.576 8.228 43.848 8.692 44.008 9.204L43.096 9.54C42.8293 8.804 42.4187 8.24933 41.864 7.876C41.3093 7.492 40.6747 7.3 39.96 7.3C39.4907 7.3 39.0693 7.39067 38.696 7.572C38.3227 7.75333 38.0293 8.00933 37.816 8.34C37.6027 8.67067 37.496 9.06 37.496 9.508C37.496 10.052 37.6507 10.516 37.96 10.9C38.2693 11.284 38.7867 11.588 39.512 11.812L41.464 12.388C42.3173 12.644 42.9733 13.0387 43.432 13.572C43.9013 14.0947 44.136 14.74 44.136 15.508C44.136 16.1373 43.976 16.692 43.656 17.172C43.336 17.6413 42.888 18.0147 42.312 18.292C41.7467 18.5587 41.1013 18.692 40.376 18.692ZM50.4973 18.692C49.6973 18.692 48.9773 18.5 48.3373 18.116C47.6973 17.7213 47.1906 17.188 46.8173 16.516C46.4439 15.8333 46.2573 15.0707 46.2573 14.228C46.2573 13.3853 46.4386 12.6333 46.8013 11.972C47.1639 11.3 47.6546 10.772 48.2733 10.388C48.8919 10.004 49.5853 9.812 50.3533 9.812C50.9399 9.812 51.4679 9.91867 51.9373 10.132C52.4173 10.3453 52.8279 10.644 53.1693 11.028C53.5213 11.4013 53.7879 11.8333 53.9693 12.324C54.1613 12.804 54.2573 13.3107 54.2573 13.844C54.2573 13.9507 54.2519 14.0627 54.2413 14.18C54.2306 14.2973 54.2146 14.42 54.1933 14.548H46.8173V13.668H53.6493L53.2173 14.004C53.2813 13.3853 53.1906 12.8307 52.9453 12.34C52.6999 11.8387 52.3479 11.444 51.8893 11.156C51.4413 10.8573 50.9293 10.708 50.3533 10.708C49.7773 10.708 49.2493 10.8627 48.7693 11.172C48.2893 11.4707 47.9106 11.8867 47.6332 12.42C47.3559 12.9427 47.2279 13.5507 47.2493 14.244C47.2279 14.9373 47.3613 15.5507 47.6493 16.084C47.9373 16.6173 48.3319 17.0387 48.8333 17.348C49.3346 17.6467 49.8893 17.796 50.4973 17.796C51.1159 17.796 51.6546 17.652 52.1133 17.364C52.5719 17.0653 52.9453 16.6707 53.2333 16.18L54.0493 16.612C53.8573 17.0067 53.5853 17.364 53.2333 17.684C52.8813 17.9933 52.4706 18.2387 52.0013 18.42C51.5426 18.6013 51.0413 18.692 50.4973 18.692ZM56.5468 18.5V6.388H57.5068V18.5H56.5468ZM64.0285 18.692C63.2285 18.692 62.5085 18.5 61.8685 18.116C61.2285 17.7213 60.7218 17.188 60.3485 16.516C59.9752 15.8333 59.7885 15.0707 59.7885 14.228C59.7885 13.3853 59.9698 12.6333 60.3325 11.972C60.6952 11.3 61.1858 10.772 61.8045 10.388C62.4232 10.004 63.1165 9.812 63.8845 9.812C64.4712 9.812 64.9992 9.91867 65.4685 10.132C65.9485 10.3453 66.3592 10.644 66.7005 11.028C67.0525 11.4013 67.3192 11.8333 67.5005 12.324C67.6925 12.804 67.7885 13.3107 67.7885 13.844C67.7885 13.9507 67.7832 14.0627 67.7725 14.18C67.7618 14.2973 67.7458 14.42 67.7245 14.548H60.3485V13.668H67.1805L66.7485 14.004C66.8125 13.3853 66.7218 12.8307 66.4765 12.34C66.2312 11.8387 65.8792 11.444 65.4205 11.156C64.9725 10.8573 64.4605 10.708 63.8845 10.708C63.3085 10.708 62.7805 10.8627 62.3005 11.172C61.8205 11.4707 61.4418 11.8867 61.1645 12.42C60.8872 12.9427 60.7592 13.5507 60.7805 14.244C60.7592 14.9373 60.8925 15.5507 61.1805 16.084C61.4685 16.6173 61.8632 17.0387 62.3645 17.348C62.8658 17.6467 63.4205 17.796 64.0285 17.796C64.6472 17.796 65.1858 17.652 65.6445 17.364C66.1032 17.0653 66.4765 16.6707 66.7645 16.18L67.5805 16.612C67.3885 17.0067 67.1165 17.364 66.7645 17.684C66.4125 17.9933 66.0018 18.2387 65.5325 18.42C65.0738 18.6013 64.5725 18.692 64.0285 18.692ZM73.95 18.692C73.1393 18.692 72.414 18.5 71.774 18.116C71.1447 17.7213 70.6433 17.188 70.27 16.516C69.9073 15.844 69.726 15.0867 69.726 14.244C69.726 13.3907 69.9073 12.6333 70.27 11.972C70.6433 11.3 71.1447 10.772 71.774 10.388C72.414 10.004 73.1393 9.812 73.95 9.812C74.4833 9.812 74.974 9.90267 75.422 10.084C75.8807 10.2653 76.286 10.5107 76.638 10.82C76.99 11.1293 77.2567 11.4867 77.438 11.892L76.59 12.34C76.334 11.8493 75.9767 11.46 75.518 11.172C75.0593 10.884 74.5367 10.74 73.95 10.74C73.342 10.74 72.7927 10.8893 72.302 11.188C71.822 11.4867 71.438 11.9027 71.15 12.436C70.862 12.9587 70.718 13.5613 70.718 14.244C70.718 14.9267 70.862 15.5347 71.15 16.068C71.438 16.5907 71.822 17.0013 72.302 17.3C72.7927 17.5987 73.342 17.748 73.95 17.748C74.5367 17.748 75.0593 17.604 75.518 17.316C75.9767 17.028 76.334 16.6333 76.59 16.132L77.438 16.596C77.2567 16.9907 76.99 17.348 76.638 17.668C76.286 17.9773 75.8807 18.228 75.422 18.42C74.974 18.6013 74.4833 18.692 73.95 18.692ZM82.8223 18.596C82.1183 18.596 81.5743 18.3987 81.1903 18.004C80.8063 17.5987 80.6143 17.012 80.6143 16.244V10.916H79.0143V10.004H79.6223C79.9423 10.004 80.1876 9.908 80.3583 9.716C80.5289 9.524 80.6143 9.26267 80.6143 8.932V8.02H81.5743V10.004H83.4303V10.916H81.5743V16.244C81.5743 16.4787 81.6063 16.708 81.6703 16.932C81.7449 17.156 81.8836 17.3373 82.0863 17.476C82.2889 17.6147 82.5823 17.684 82.9663 17.684C83.0516 17.684 83.1529 17.6787 83.2703 17.668C83.3983 17.6573 83.4996 17.6467 83.5743 17.636V18.5C83.4569 18.532 83.3236 18.5533 83.1743 18.564C83.0249 18.5853 82.9076 18.596 82.8223 18.596ZM88.6915 18.5V6.58H89.7315V17.54H95.0915V18.5H88.6915ZM100.983 18.692C100.172 18.692 99.4418 18.5 98.7911 18.116C98.1405 17.732 97.6231 17.204 97.2391 16.532C96.8658 15.8493 96.6791 15.0867 96.6791 14.244C96.6791 13.4013 96.8658 12.644 97.2391 11.972C97.6231 11.3 98.1351 10.772 98.7751 10.388C99.4258 10.004 100.162 9.812 100.983 9.812C101.794 9.812 102.524 10.004 103.175 10.388C103.826 10.772 104.338 11.3 104.711 11.972C105.084 12.6333 105.271 13.3907 105.271 14.244C105.271 15.0973 105.079 15.86 104.695 16.532C104.311 17.204 103.794 17.732 103.143 18.116C102.503 18.5 101.783 18.692 100.983 18.692ZM100.983 17.748C101.591 17.748 102.14 17.5987 102.631 17.3C103.132 16.9907 103.527 16.5693 103.815 16.036C104.103 15.5027 104.247 14.9053 104.247 14.244C104.247 13.5827 104.103 12.9907 103.815 12.468C103.527 11.9453 103.138 11.5293 102.647 11.22C102.156 10.9107 101.602 10.756 100.983 10.756C100.364 10.756 99.8045 10.9107 99.3031 11.22C98.8125 11.5187 98.4231 11.9347 98.1351 12.468C97.8471 12.9907 97.7031 13.5827 97.7031 14.244C97.7031 14.9053 97.8471 15.5027 98.1351 16.036C98.4338 16.5693 98.8285 16.9907 99.3191 17.3C99.8098 17.5987 100.364 17.748 100.983 17.748ZM111.45 18.692C110.639 18.692 109.914 18.5 109.274 18.116C108.645 17.7213 108.143 17.188 107.77 16.516C107.407 15.844 107.226 15.0867 107.226 14.244C107.226 13.3907 107.407 12.6333 107.77 11.972C108.143 11.3 108.645 10.772 109.274 10.388C109.914 10.004 110.639 9.812 111.45 9.812C111.983 9.812 112.474 9.90267 112.922 10.084C113.381 10.2653 113.786 10.5107 114.138 10.82C114.49 11.1293 114.757 11.4867 114.938 11.892L114.09 12.34C113.834 11.8493 113.477 11.46 113.018 11.172C112.559 10.884 112.037 10.74 111.45 10.74C110.842 10.74 110.293 10.8893 109.802 11.188C109.322 11.4867 108.938 11.9027 108.65 12.436C108.362 12.9587 108.218 13.5613 108.218 14.244C108.218 14.9267 108.362 15.5347 108.65 16.068C108.938 16.5907 109.322 17.0013 109.802 17.3C110.293 17.5987 110.842 17.748 111.45 17.748C112.037 17.748 112.559 17.604 113.018 17.316C113.477 17.028 113.834 16.6333 114.09 16.132L114.938 16.596C114.757 16.9907 114.49 17.348 114.138 17.668C113.786 17.9773 113.381 18.228 112.922 18.42C112.474 18.6013 111.983 18.692 111.45 18.692ZM119.51 18.692C118.977 18.692 118.502 18.5907 118.086 18.388C117.67 18.1853 117.339 17.9027 117.094 17.54C116.849 17.1773 116.726 16.7613 116.726 16.292C116.726 15.876 116.817 15.4867 116.998 15.124C117.179 14.7613 117.473 14.452 117.878 14.196C118.283 13.9293 118.811 13.7427 119.462 13.636L122.902 13.06V13.956L119.718 14.484C118.993 14.6013 118.481 14.82 118.182 15.14C117.883 15.46 117.734 15.8333 117.734 16.26C117.734 16.7187 117.905 17.092 118.246 17.38C118.598 17.668 119.041 17.812 119.574 17.812C120.193 17.812 120.731 17.6733 121.19 17.396C121.649 17.108 122.006 16.7347 122.262 16.276C122.518 15.8067 122.646 15.2947 122.646 14.74V12.628C122.646 12.0627 122.443 11.604 122.038 11.252C121.633 10.9 121.105 10.724 120.454 10.724C119.921 10.724 119.441 10.8573 119.014 11.124C118.587 11.3907 118.262 11.7373 118.038 12.164L117.174 11.7C117.334 11.3587 117.579 11.044 117.91 10.756C118.241 10.468 118.625 10.2387 119.062 10.068C119.499 9.89733 119.963 9.812 120.454 9.812C121.073 9.812 121.617 9.93467 122.086 10.18C122.566 10.4147 122.939 10.7453 123.206 11.172C123.473 11.588 123.606 12.0733 123.606 12.628V18.5H122.646V16.724L122.758 16.804C122.619 17.1453 122.39 17.46 122.07 17.748C121.75 18.0253 121.371 18.2547 120.934 18.436C120.507 18.6067 120.033 18.692 119.51 18.692ZM129.182 18.596C128.478 18.596 127.934 18.3987 127.55 18.004C127.166 17.5987 126.974 17.012 126.974 16.244V10.916H125.374V10.004H125.982C126.302 10.004 126.547 9.908 126.718 9.716C126.888 9.524 126.974 9.26267 126.974 8.932V8.02H127.934V10.004H129.79V10.916H127.934V16.244C127.934 16.4787 127.966 16.708 128.03 16.932C128.104 17.156 128.243 17.3373 128.446 17.476C128.648 17.6147 128.942 17.684 129.326 17.684C129.411 17.684 129.512 17.6787 129.63 17.668C129.758 17.6573 129.859 17.6467 129.934 17.636V18.5C129.816 18.532 129.683 18.5533 129.534 18.564C129.384 18.5853 129.267 18.596 129.182 18.596ZM132.234 18.5V10.004H133.194V18.5H132.234ZM132.234 8.34V6.58H133.194V8.34H132.234ZM139.78 18.692C138.969 18.692 138.239 18.5 137.588 18.116C136.937 17.732 136.42 17.204 136.036 16.532C135.663 15.8493 135.476 15.0867 135.476 14.244C135.476 13.4013 135.663 12.644 136.036 11.972C136.42 11.3 136.932 10.772 137.572 10.388C138.223 10.004 138.959 9.812 139.78 9.812C140.591 9.812 141.321 10.004 141.972 10.388C142.623 10.772 143.135 11.3 143.508 11.972C143.881 12.6333 144.068 13.3907 144.068 14.244C144.068 15.0973 143.876 15.86 143.492 16.532C143.108 17.204 142.591 17.732 141.94 18.116C141.3 18.5 140.58 18.692 139.78 18.692ZM139.78 17.748C140.388 17.748 140.937 17.5987 141.428 17.3C141.929 16.9907 142.324 16.5693 142.612 16.036C142.9 15.5027 143.044 14.9053 143.044 14.244C143.044 13.5827 142.9 12.9907 142.612 12.468C142.324 11.9453 141.935 11.5293 141.444 11.22C140.953 10.9107 140.399 10.756 139.78 10.756C139.161 10.756 138.601 10.9107 138.1 11.22C137.609 11.5187 137.22 11.9347 136.932 12.468C136.644 12.9907 136.5 13.5827 136.5 14.244C136.5 14.9053 136.644 15.5027 136.932 16.036C137.231 16.5693 137.625 16.9907 138.116 17.3C138.607 17.5987 139.161 17.748 139.78 17.748ZM146.375 18.5V10.004H147.335V11.716L147.095 11.652C147.287 11.0867 147.628 10.6387 148.119 10.308C148.62 9.97733 149.202 9.812 149.863 9.812C150.45 9.812 150.983 9.94533 151.463 10.212C151.943 10.4787 152.327 10.852 152.615 11.332C152.903 11.8013 153.047 12.34 153.047 12.948V18.5H152.087V13.22C152.087 12.708 151.986 12.2707 151.783 11.908C151.58 11.5347 151.298 11.252 150.935 11.06C150.583 10.8573 150.178 10.756 149.719 10.756C149.239 10.756 148.818 10.868 148.455 11.092C148.092 11.316 147.815 11.6253 147.623 12.02C147.431 12.4147 147.335 12.868 147.335 13.38V18.5H146.375Z" fill="#979797"/>
<path d="M196 9.5L202 15.5L208 9.5" stroke="#979797" stroke-width="2" stroke-linecap="round" stroke-linejoin="round"/>
<defs>
<clipPath id="clip0_225_6930">
<rect width="23" height="23" fill="white" transform="translate(0 0.5)"/>
</clipPath>
</defs>
</svg>
