<svg width="45" height="44" viewBox="0 0 45 44" fill="none" xmlns="http://www.w3.org/2000/svg">
<rect x="0.5" width="44" height="44" fill="#F4F4F4"/>
<path d="M31.3401 14.6099C30.8294 14.0989 30.2229 13.6935 29.5555 13.417C28.888 13.1404 28.1726 12.998 27.4501 12.998C26.7276 12.998 26.0122 13.1404 25.3448 13.417C24.6773 13.6935 24.0709 14.0989 23.5601 14.6099L22.5001 15.6699L21.4401 14.6099C20.4084 13.5782 19.0092 12.9986 17.5501 12.9986C16.0911 12.9986 14.6918 13.5782 13.6601 14.6099C12.6284 15.6416 12.0488 17.0408 12.0488 18.4999C12.0488 19.9589 12.6284 21.3582 13.6601 22.3899L14.7201 23.4499L22.5001 31.2299L30.2801 23.4499L31.3401 22.3899C31.8511 21.8791 32.2565 21.2727 32.533 20.6052C32.8096 19.9378 32.9519 19.2224 32.9519 18.4999C32.9519 17.7774 32.8096 17.062 32.533 16.3945C32.2565 15.7271 31.8511 15.1206 31.3401 14.6099Z" stroke="#676767" stroke-width="1.5" stroke-linecap="round" stroke-linejoin="round"/>
</svg>
