<svg width="159" height="48" viewBox="0 0 159 48" fill="none" xmlns="http://www.w3.org/2000/svg">
<rect x="0.5" width="158" height="48" rx="24" fill="#E8E8E8"/>
<path d="M29.924 31.192C29.1667 31.192 28.4787 31.048 27.86 30.76C27.2413 30.472 26.7187 30.088 26.292 29.608C25.8653 29.1173 25.5613 28.5787 25.38 27.992L26.532 27.56C26.8093 28.3707 27.2413 28.9893 27.828 29.416C28.4147 29.832 29.1133 30.04 29.924 30.04C30.436 30.04 30.884 29.96 31.268 29.8C31.6627 29.6293 31.9667 29.3947 32.18 29.096C32.3933 28.7973 32.5 28.4507 32.5 28.056C32.5 27.4693 32.34 27.016 32.02 26.696C31.7 26.376 31.2413 26.1307 30.644 25.96L28.5 25.32C27.6573 25.0747 27.0067 24.664 26.548 24.088C26.1 23.512 25.876 22.856 25.876 22.12C25.876 21.4907 26.0307 20.936 26.34 20.456C26.6493 19.9653 27.0707 19.5813 27.604 19.304C28.148 19.0267 28.7613 18.888 29.444 18.888C30.1587 18.888 30.7987 19.0213 31.364 19.288C31.94 19.544 32.4253 19.8853 32.82 20.312C33.2147 20.7387 33.4973 21.2133 33.668 21.736L32.548 22.184C32.292 21.48 31.892 20.9467 31.348 20.584C30.8147 20.2213 30.1853 20.04 29.46 20.04C29.0013 20.04 28.596 20.12 28.244 20.28C27.9027 20.44 27.636 20.6693 27.444 20.968C27.252 21.2667 27.156 21.6187 27.156 22.024C27.156 22.5147 27.3107 22.9573 27.62 23.352C27.9293 23.736 28.404 24.024 29.044 24.216L30.932 24.776C31.8707 25.0533 32.58 25.4533 33.06 25.976C33.54 26.4987 33.78 27.1547 33.78 27.944C33.78 28.584 33.6147 29.1493 33.284 29.64C32.964 30.12 32.5107 30.4987 31.924 30.776C31.348 31.0533 30.6813 31.192 29.924 31.192ZM36.0758 34.2V22.424H37.2758V24.344L37.0838 24.008C37.4251 23.464 37.8784 23.032 38.4438 22.712C39.0198 22.392 39.6758 22.232 40.4118 22.232C41.2224 22.232 41.9424 22.4293 42.5718 22.824C43.2118 23.208 43.7131 23.736 44.0758 24.408C44.4491 25.08 44.6358 25.848 44.6358 26.712C44.6358 27.5653 44.4491 28.3333 44.0758 29.016C43.7131 29.688 43.2118 30.2213 42.5718 30.616C41.9424 31 41.2224 31.192 40.4118 31.192C39.6758 31.192 39.0091 31.0267 38.4118 30.696C37.8251 30.3547 37.3824 29.8747 37.0838 29.256L37.2758 29.08V34.2H36.0758ZM40.3478 29.992C40.9238 29.992 41.4358 29.848 41.8838 29.56C42.3424 29.272 42.6998 28.8827 42.9558 28.392C43.2224 27.8907 43.3558 27.3307 43.3558 26.712C43.3558 26.0827 43.2224 25.5227 42.9558 25.032C42.6998 24.5413 42.3424 24.152 41.8838 23.864C41.4358 23.576 40.9238 23.432 40.3478 23.432C39.7718 23.432 39.2491 23.576 38.7798 23.864C38.3211 24.152 37.9531 24.5467 37.6758 25.048C37.4091 25.5387 37.2758 26.0933 37.2758 26.712C37.2758 27.3307 37.4091 27.8907 37.6758 28.392C37.9531 28.8827 38.3211 29.272 38.7798 29.56C39.2491 29.848 39.7718 29.992 40.3478 29.992ZM50.7636 31.192C49.953 31.192 49.217 31 48.5556 30.616C47.8943 30.2213 47.3663 29.688 46.9716 29.016C46.5876 28.3333 46.3956 27.56 46.3956 26.696C46.3956 25.8427 46.5876 25.08 46.9716 24.408C47.3556 23.736 47.873 23.208 48.5236 22.824C49.185 22.4293 49.9316 22.232 50.7636 22.232C51.5956 22.232 52.337 22.424 52.9876 22.808C53.649 23.192 54.1663 23.72 54.5396 24.392C54.9236 25.064 55.1156 25.832 55.1156 26.696C55.1156 27.5707 54.9183 28.3493 54.5236 29.032C54.129 29.704 53.601 30.232 52.9396 30.616C52.289 31 51.5636 31.192 50.7636 31.192ZM50.7636 29.992C51.3396 29.992 51.857 29.848 52.3156 29.56C52.785 29.272 53.153 28.8773 53.4196 28.376C53.697 27.8747 53.8356 27.3147 53.8356 26.696C53.8356 26.0773 53.697 25.5227 53.4196 25.032C53.153 24.5413 52.785 24.152 52.3156 23.864C51.857 23.576 51.3396 23.432 50.7636 23.432C50.1876 23.432 49.665 23.576 49.1956 23.864C48.737 24.152 48.369 24.5413 48.0916 25.032C47.8143 25.5227 47.6756 26.0773 47.6756 26.696C47.6756 27.3147 47.8143 27.8747 48.0916 28.376C48.369 28.8773 48.737 29.272 49.1956 29.56C49.665 29.848 50.1876 29.992 50.7636 29.992ZM57.232 31V22.424H58.432V23.832L58.272 23.624C58.4747 23.2187 58.7787 22.8987 59.184 22.664C59.6 22.4293 60.1013 22.312 60.688 22.312H61.232V23.512H60.48C59.8613 23.512 59.3653 23.704 58.992 24.088C58.6187 24.472 58.432 25.016 58.432 25.72V31H57.232ZM65.9183 31.096C65.1503 31.096 64.5583 30.872 64.1423 30.424C63.7263 29.976 63.5182 29.336 63.5182 28.504V23.624H61.9342V22.424H62.3343C62.6969 22.424 62.9849 22.3067 63.1983 22.072C63.4116 21.8267 63.5182 21.5227 63.5182 21.16V20.44H64.7183V22.424H66.6063V23.624H64.7183V28.504C64.7183 28.792 64.7609 29.048 64.8463 29.272C64.9316 29.4853 65.0756 29.656 65.2783 29.784C65.4916 29.912 65.7743 29.976 66.1263 29.976C66.2116 29.976 66.3129 29.9707 66.4303 29.96C66.5476 29.9493 66.6489 29.9387 66.7343 29.928V31C66.6063 31.032 66.4623 31.0533 66.3023 31.064C66.1423 31.0853 66.0143 31.096 65.9183 31.096ZM71.8174 31.192C70.996 31.192 70.276 30.984 69.6574 30.568C69.0387 30.152 68.5907 29.5867 68.3134 28.872L69.3214 28.392C69.5667 28.9147 69.908 29.3307 70.3454 29.64C70.7934 29.9493 71.284 30.104 71.8174 30.104C72.3294 30.104 72.7614 29.9813 73.1134 29.736C73.4654 29.48 73.6414 29.1493 73.6414 28.744C73.6414 28.4453 73.556 28.2107 73.3854 28.04C73.2147 27.8587 73.0174 27.72 72.7934 27.624C72.5694 27.528 72.372 27.4587 72.2014 27.416L70.9694 27.064C70.18 26.84 69.6094 26.5253 69.2574 26.12C68.9054 25.7147 68.7294 25.2453 68.7294 24.712C68.7294 24.2107 68.8574 23.7733 69.1134 23.4C69.3694 23.0267 69.716 22.7387 70.1534 22.536C70.5907 22.3333 71.076 22.232 71.6094 22.232C72.3347 22.232 72.9907 22.424 73.5774 22.808C74.1747 23.1813 74.596 23.704 74.8414 24.376L73.8174 24.856C73.604 24.376 73.2947 24.0027 72.8894 23.736C72.4947 23.4587 72.052 23.32 71.5614 23.32C71.0814 23.32 70.6974 23.4427 70.4094 23.688C70.1214 23.9333 69.9774 24.2427 69.9774 24.616C69.9774 24.904 70.052 25.1333 70.2014 25.304C70.3507 25.4747 70.5214 25.6027 70.7134 25.688C70.916 25.7733 71.092 25.8373 71.2414 25.88L72.6654 26.296C73.3587 26.4987 73.8974 26.8133 74.2814 27.24C74.676 27.6667 74.8734 28.168 74.8734 28.744C74.8734 29.2133 74.74 29.6347 74.4734 30.008C74.2174 30.3813 73.86 30.6747 73.4014 30.888C72.9427 31.0907 72.4147 31.192 71.8174 31.192ZM83.0128 31L78.6448 19.08H79.9728L83.8128 29.864H83.5568L87.3808 19.08H88.7248L84.3568 31H83.0128ZM93.2454 31.192C92.4454 31.192 91.72 31 91.0694 30.616C90.4294 30.2213 89.9227 29.6827 89.5494 29C89.176 28.3173 88.9894 27.544 88.9894 26.68C88.9894 25.816 89.1707 25.0533 89.5334 24.392C89.896 23.72 90.3867 23.192 91.0054 22.808C91.6347 22.424 92.3387 22.232 93.1174 22.232C93.736 22.232 94.2854 22.3493 94.7654 22.584C95.256 22.808 95.672 23.1173 96.0134 23.512C96.3547 23.896 96.616 24.3333 96.7974 24.824C96.9787 25.304 97.0694 25.8 97.0694 26.312C97.0694 26.4187 97.064 26.5413 97.0534 26.68C97.0427 26.808 97.0267 26.9413 97.0054 27.08H89.7574V25.96H96.3174L95.7414 26.44C95.8374 25.8533 95.768 25.3307 95.5334 24.872C95.3094 24.4027 94.984 24.0347 94.5574 23.768C94.1307 23.4907 93.6507 23.352 93.1174 23.352C92.584 23.352 92.088 23.4907 91.6294 23.768C91.1814 24.0453 90.8294 24.4347 90.5734 24.936C90.3174 25.4267 90.216 26.0133 90.2694 26.696C90.216 27.3787 90.3227 27.976 90.5894 28.488C90.8667 28.9893 91.24 29.3787 91.7094 29.656C92.1894 29.9333 92.7014 30.072 93.2454 30.072C93.8747 30.072 94.4027 29.9227 94.8294 29.624C95.256 29.3253 95.6027 28.952 95.8694 28.504L96.8934 29.048C96.7227 29.432 96.4614 29.7893 96.1094 30.12C95.7574 30.44 95.336 30.7013 94.8454 30.904C94.3654 31.096 93.832 31.192 93.2454 31.192ZM99.1851 31V22.424H100.385V24.088L100.113 24.024C100.326 23.4693 100.673 23.032 101.153 22.712C101.644 22.392 102.209 22.232 102.849 22.232C103.457 22.232 104.001 22.3707 104.481 22.648C104.972 22.9253 105.356 23.3093 105.633 23.8C105.921 24.28 106.065 24.824 106.065 25.432V31H104.865V25.896C104.865 25.3733 104.769 24.9307 104.577 24.568C104.396 24.2053 104.134 23.928 103.793 23.736C103.462 23.5333 103.078 23.432 102.641 23.432C102.204 23.432 101.814 23.5333 101.473 23.736C101.132 23.928 100.865 24.2107 100.673 24.584C100.481 24.9467 100.385 25.384 100.385 25.896V31H99.1851ZM111.397 31.192C110.8 31.192 110.256 31.0533 109.765 30.776C109.274 30.488 108.885 30.0933 108.597 29.592C108.32 29.08 108.181 28.4933 108.181 27.832V22.424H109.381V27.688C109.381 28.1467 109.472 28.552 109.653 28.904C109.845 29.2453 110.106 29.512 110.437 29.704C110.778 29.896 111.168 29.992 111.605 29.992C112.042 29.992 112.432 29.896 112.773 29.704C113.114 29.5013 113.381 29.2187 113.573 28.856C113.765 28.4827 113.861 28.04 113.861 27.528V22.424H115.061V31H113.861V29.336L114.133 29.4C113.93 29.9547 113.584 30.392 113.093 30.712C112.602 31.032 112.037 31.192 111.397 31.192ZM121.433 31.192C120.633 31.192 119.908 31 119.257 30.616C118.617 30.2213 118.11 29.6827 117.737 29C117.364 28.3173 117.177 27.544 117.177 26.68C117.177 25.816 117.358 25.0533 117.721 24.392C118.084 23.72 118.574 23.192 119.193 22.808C119.822 22.424 120.526 22.232 121.305 22.232C121.924 22.232 122.473 22.3493 122.953 22.584C123.444 22.808 123.86 23.1173 124.201 23.512C124.542 23.896 124.804 24.3333 124.985 24.824C125.166 25.304 125.257 25.8 125.257 26.312C125.257 26.4187 125.252 26.5413 125.241 26.68C125.23 26.808 125.214 26.9413 125.193 27.08H117.945V25.96H124.505L123.929 26.44C124.025 25.8533 123.956 25.3307 123.721 24.872C123.497 24.4027 123.172 24.0347 122.745 23.768C122.318 23.4907 121.838 23.352 121.305 23.352C120.772 23.352 120.276 23.4907 119.817 23.768C119.369 24.0453 119.017 24.4347 118.761 24.936C118.505 25.4267 118.404 26.0133 118.457 26.696C118.404 27.3787 118.51 27.976 118.777 28.488C119.054 28.9893 119.428 29.3787 119.897 29.656C120.377 29.9333 120.889 30.072 121.433 30.072C122.062 30.072 122.59 29.9227 123.017 29.624C123.444 29.3253 123.79 28.952 124.057 28.504L125.081 29.048C124.91 29.432 124.649 29.7893 124.297 30.12C123.945 30.44 123.524 30.7013 123.033 30.904C122.553 31.096 122.02 31.192 121.433 31.192ZM130.349 31.192C129.527 31.192 128.807 30.984 128.189 30.568C127.57 30.152 127.122 29.5867 126.845 28.872L127.853 28.392C128.098 28.9147 128.439 29.3307 128.877 29.64C129.325 29.9493 129.815 30.104 130.349 30.104C130.861 30.104 131.293 29.9813 131.645 29.736C131.997 29.48 132.173 29.1493 132.173 28.744C132.173 28.4453 132.087 28.2107 131.917 28.04C131.746 27.8587 131.549 27.72 131.325 27.624C131.101 27.528 130.903 27.4587 130.733 27.416L129.501 27.064C128.711 26.84 128.141 26.5253 127.789 26.12C127.437 25.7147 127.261 25.2453 127.261 24.712C127.261 24.2107 127.389 23.7733 127.645 23.4C127.901 23.0267 128.247 22.7387 128.685 22.536C129.122 22.3333 129.607 22.232 130.141 22.232C130.866 22.232 131.522 22.424 132.109 22.808C132.706 23.1813 133.127 23.704 133.373 24.376L132.349 24.856C132.135 24.376 131.826 24.0027 131.421 23.736C131.026 23.4587 130.583 23.32 130.093 23.32C129.613 23.32 129.229 23.4427 128.941 23.688C128.653 23.9333 128.509 24.2427 128.509 24.616C128.509 24.904 128.583 25.1333 128.733 25.304C128.882 25.4747 129.053 25.6027 129.245 25.688C129.447 25.7733 129.623 25.8373 129.773 25.88L131.197 26.296C131.89 26.4987 132.429 26.8133 132.813 27.24C133.207 27.6667 133.405 28.168 133.405 28.744C133.405 29.2133 133.271 29.6347 133.005 30.008C132.749 30.3813 132.391 30.6747 131.933 30.888C131.474 31.0907 130.946 31.192 130.349 31.192Z" fill="#494949"/>
</svg>
