<svg width="226" height="48" viewBox="0 0 226 48" fill="none" xmlns="http://www.w3.org/2000/svg">
<rect x="0.5" width="225" height="48" rx="24" fill="#E8E8E8"/>
<path d="M25.908 31V19.08H30.004C30.7827 19.08 31.4653 19.2347 32.052 19.544C32.6387 19.8427 33.092 20.2693 33.412 20.824C33.7427 21.368 33.908 22.0027 33.908 22.728C33.908 23.5707 33.684 24.2907 33.236 24.888C32.7987 25.4853 32.2013 25.9067 31.444 26.152L34.228 31H32.724L29.812 25.864L30.676 26.36H27.188V31H25.908ZM27.188 25.16H30.068C30.58 25.16 31.028 25.064 31.412 24.872C31.796 24.6693 32.0947 24.3867 32.308 24.024C32.5213 23.6507 32.628 23.2133 32.628 22.712C32.628 22.2107 32.5213 21.7787 32.308 21.416C32.0947 21.0533 31.796 20.776 31.412 20.584C31.028 20.3813 30.58 20.28 30.068 20.28H27.188V25.16ZM39.4016 31.192C38.6016 31.192 37.8763 31 37.2256 30.616C36.5856 30.2213 36.079 29.6827 35.7056 29C35.3323 28.3173 35.1456 27.544 35.1456 26.68C35.1456 25.816 35.327 25.0533 35.6896 24.392C36.0523 23.72 36.543 23.192 37.1616 22.808C37.791 22.424 38.495 22.232 39.2736 22.232C39.8923 22.232 40.4416 22.3493 40.9216 22.584C41.4123 22.808 41.8283 23.1173 42.1696 23.512C42.511 23.896 42.7723 24.3333 42.9536 24.824C43.135 25.304 43.2256 25.8 43.2256 26.312C43.2256 26.4187 43.2203 26.5413 43.2096 26.68C43.199 26.808 43.183 26.9413 43.1616 27.08H35.9136V25.96H42.4736L41.8976 26.44C41.9936 25.8533 41.9243 25.3307 41.6896 24.872C41.4656 24.4027 41.1403 24.0347 40.7136 23.768C40.287 23.4907 39.807 23.352 39.2736 23.352C38.7403 23.352 38.2443 23.4907 37.7856 23.768C37.3376 24.0453 36.9856 24.4347 36.7296 24.936C36.4736 25.4267 36.3723 26.0133 36.4256 26.696C36.3723 27.3787 36.479 27.976 36.7456 28.488C37.023 28.9893 37.3963 29.3787 37.8656 29.656C38.3456 29.9333 38.8576 30.072 39.4016 30.072C40.031 30.072 40.559 29.9227 40.9856 29.624C41.4123 29.3253 41.759 28.952 42.0256 28.504L43.0496 29.048C42.879 29.432 42.6176 29.7893 42.2656 30.12C41.9136 30.44 41.4923 30.7013 41.0016 30.904C40.5216 31.096 39.9883 31.192 39.4016 31.192ZM48.3174 31.192C47.496 31.192 46.776 30.984 46.1574 30.568C45.5387 30.152 45.0907 29.5867 44.8134 28.872L45.8214 28.392C46.0667 28.9147 46.408 29.3307 46.8454 29.64C47.2934 29.9493 47.784 30.104 48.3174 30.104C48.8294 30.104 49.2614 29.9813 49.6134 29.736C49.9654 29.48 50.1414 29.1493 50.1414 28.744C50.1414 28.4453 50.056 28.2107 49.8854 28.04C49.7147 27.8587 49.5174 27.72 49.2934 27.624C49.0694 27.528 48.872 27.4587 48.7014 27.416L47.4694 27.064C46.68 26.84 46.1094 26.5253 45.7574 26.12C45.4054 25.7147 45.2294 25.2453 45.2294 24.712C45.2294 24.2107 45.3574 23.7733 45.6134 23.4C45.8694 23.0267 46.216 22.7387 46.6534 22.536C47.0907 22.3333 47.576 22.232 48.1094 22.232C48.8347 22.232 49.4907 22.424 50.0774 22.808C50.6747 23.1813 51.096 23.704 51.3414 24.376L50.3174 24.856C50.104 24.376 49.7947 24.0027 49.3894 23.736C48.9947 23.4587 48.552 23.32 48.0614 23.32C47.5814 23.32 47.1974 23.4427 46.9094 23.688C46.6214 23.9333 46.4774 24.2427 46.4774 24.616C46.4774 24.904 46.552 25.1333 46.7014 25.304C46.8507 25.4747 47.0214 25.6027 47.2134 25.688C47.416 25.7733 47.592 25.8373 47.7414 25.88L49.1654 26.296C49.8587 26.4987 50.3974 26.8133 50.7814 27.24C51.176 27.6667 51.3734 28.168 51.3734 28.744C51.3734 29.2133 51.24 29.6347 50.9734 30.008C50.7174 30.3813 50.36 30.6747 49.9014 30.888C49.4427 31.0907 48.9147 31.192 48.3174 31.192ZM53.482 31V22.424H54.682V31H53.482ZM53.482 20.84V19.08H54.682V20.84H53.482ZM61.0103 31.192C60.2103 31.192 59.4903 31 58.8503 30.616C58.2103 30.2213 57.7036 29.688 57.3303 29.016C56.9676 28.3333 56.7863 27.5653 56.7863 26.712C56.7863 25.848 56.9676 25.08 57.3303 24.408C57.7036 23.736 58.2049 23.208 58.8343 22.824C59.4743 22.4293 60.1996 22.232 61.0103 22.232C61.7463 22.232 62.4023 22.392 62.9783 22.712C63.5543 23.032 64.0076 23.464 64.3383 24.008L64.1463 24.344V18.888H65.3463V31H64.1463V29.08L64.3383 29.256C64.0396 29.8747 63.5916 30.3547 62.9943 30.696C62.4076 31.0267 61.7463 31.192 61.0103 31.192ZM61.0743 29.992C61.6503 29.992 62.1676 29.848 62.6263 29.56C63.0956 29.272 63.4636 28.8827 63.7303 28.392C64.0076 27.8907 64.1463 27.3307 64.1463 26.712C64.1463 26.0933 64.0076 25.5387 63.7303 25.048C63.4636 24.5467 63.0956 24.152 62.6263 23.864C62.1676 23.576 61.6503 23.432 61.0743 23.432C60.5089 23.432 59.9969 23.576 59.5383 23.864C59.0796 24.152 58.7169 24.5413 58.4503 25.032C58.1943 25.5227 58.0663 26.0827 58.0663 26.712C58.0663 27.3307 58.1943 27.8907 58.4503 28.392C58.7169 28.8827 59.0743 29.272 59.5223 29.56C59.9809 29.848 60.4983 29.992 61.0743 29.992ZM71.7141 31.192C70.9141 31.192 70.1888 31 69.5381 30.616C68.8981 30.2213 68.3915 29.6827 68.0181 29C67.6448 28.3173 67.4581 27.544 67.4581 26.68C67.4581 25.816 67.6395 25.0533 68.0021 24.392C68.3648 23.72 68.8555 23.192 69.4741 22.808C70.1035 22.424 70.8075 22.232 71.5861 22.232C72.2048 22.232 72.7541 22.3493 73.2341 22.584C73.7248 22.808 74.1408 23.1173 74.4821 23.512C74.8235 23.896 75.0848 24.3333 75.2661 24.824C75.4475 25.304 75.5381 25.8 75.5381 26.312C75.5381 26.4187 75.5328 26.5413 75.5221 26.68C75.5115 26.808 75.4955 26.9413 75.4741 27.08H68.2261V25.96H74.7861L74.2101 26.44C74.3061 25.8533 74.2368 25.3307 74.0021 24.872C73.7781 24.4027 73.4528 24.0347 73.0261 23.768C72.5995 23.4907 72.1195 23.352 71.5861 23.352C71.0528 23.352 70.5568 23.4907 70.0981 23.768C69.6501 24.0453 69.2981 24.4347 69.0421 24.936C68.7861 25.4267 68.6848 26.0133 68.7381 26.696C68.6848 27.3787 68.7915 27.976 69.0581 28.488C69.3355 28.9893 69.7088 29.3787 70.1781 29.656C70.6581 29.9333 71.1701 30.072 71.7141 30.072C72.3435 30.072 72.8715 29.9227 73.2981 29.624C73.7248 29.3253 74.0715 28.952 74.3381 28.504L75.3621 29.048C75.1915 29.432 74.9301 29.7893 74.5781 30.12C74.2261 30.44 73.8048 30.7013 73.3141 30.904C72.8341 31.096 72.3008 31.192 71.7141 31.192ZM77.6539 31V22.424H78.8539V24.088L78.5819 24.024C78.7952 23.4693 79.1419 23.032 79.6219 22.712C80.1125 22.392 80.6779 22.232 81.3179 22.232C81.9259 22.232 82.4699 22.3707 82.9499 22.648C83.4405 22.9253 83.8245 23.3093 84.1019 23.8C84.3899 24.28 84.5339 24.824 84.5339 25.432V31H83.3339V25.896C83.3339 25.3733 83.2379 24.9307 83.0459 24.568C82.8645 24.2053 82.6032 23.928 82.2619 23.736C81.9312 23.5333 81.5472 23.432 81.1099 23.432C80.6725 23.432 80.2832 23.5333 79.9419 23.736C79.6005 23.928 79.3339 24.2107 79.1419 24.584C78.9499 24.9467 78.8539 25.384 78.8539 25.896V31H77.6539ZM90.1058 31.096C89.3378 31.096 88.7458 30.872 88.3298 30.424C87.9138 29.976 87.7057 29.336 87.7057 28.504V23.624H86.1217V22.424H86.5218C86.8844 22.424 87.1724 22.3067 87.3858 22.072C87.5991 21.8267 87.7057 21.5227 87.7057 21.16V20.44H88.9058V22.424H90.7938V23.624H88.9058V28.504C88.9058 28.792 88.9484 29.048 89.0338 29.272C89.1191 29.4853 89.2631 29.656 89.4658 29.784C89.6791 29.912 89.9618 29.976 90.3138 29.976C90.3991 29.976 90.5004 29.9707 90.6178 29.96C90.7351 29.9493 90.8364 29.9387 90.9218 29.928V31C90.7938 31.032 90.6498 31.0533 90.4898 31.064C90.3298 31.0853 90.2018 31.096 90.1058 31.096ZM93.0289 31V22.424H94.2289V31H93.0289ZM93.0289 20.84V19.08H94.2289V20.84H93.0289ZM99.1651 31.192C98.6211 31.192 98.1358 31.0907 97.7091 30.888C97.2825 30.6747 96.9465 30.3867 96.7011 30.024C96.4558 29.6613 96.3331 29.2453 96.3331 28.776C96.3331 28.328 96.4291 27.9227 96.6211 27.56C96.8131 27.1867 97.1118 26.872 97.5171 26.616C97.9225 26.36 98.4398 26.1787 99.0691 26.072L102.429 25.512V26.6L99.3571 27.112C98.7385 27.2187 98.2905 27.416 98.0131 27.704C97.7465 27.992 97.6131 28.3333 97.6131 28.728C97.6131 29.112 97.7625 29.4373 98.0611 29.704C98.3705 29.9707 98.7651 30.104 99.2451 30.104C99.8318 30.104 100.344 29.9813 100.781 29.736C101.218 29.48 101.56 29.1387 101.805 28.712C102.05 28.2853 102.173 27.8107 102.173 27.288V25.112C102.173 24.6 101.986 24.184 101.613 23.864C101.24 23.544 100.754 23.384 100.157 23.384C99.6345 23.384 99.1758 23.5173 98.7811 23.784C98.3865 24.04 98.0931 24.376 97.9011 24.792L96.8131 24.2C96.9731 23.8373 97.2238 23.5067 97.5651 23.208C97.9171 22.9093 98.3171 22.6747 98.7651 22.504C99.2131 22.3227 99.6771 22.232 100.157 22.232C100.786 22.232 101.341 22.3547 101.821 22.6C102.312 22.8453 102.69 23.1867 102.957 23.624C103.234 24.0507 103.373 24.5467 103.373 25.112V31H102.173V29.288L102.349 29.464C102.2 29.784 101.965 30.0773 101.645 30.344C101.336 30.6 100.968 30.808 100.541 30.968C100.125 31.1173 99.6665 31.192 99.1651 31.192ZM105.841 31V18.888H107.041V31H105.841ZM116.408 31.192C115.651 31.192 114.963 31.048 114.344 30.76C113.726 30.472 113.203 30.088 112.776 29.608C112.35 29.1173 112.046 28.5787 111.864 27.992L113.016 27.56C113.294 28.3707 113.726 28.9893 114.312 29.416C114.899 29.832 115.598 30.04 116.408 30.04C116.92 30.04 117.368 29.96 117.752 29.8C118.147 29.6293 118.451 29.3947 118.664 29.096C118.878 28.7973 118.984 28.4507 118.984 28.056C118.984 27.4693 118.824 27.016 118.504 26.696C118.184 26.376 117.726 26.1307 117.128 25.96L114.984 25.32C114.142 25.0747 113.491 24.664 113.032 24.088C112.584 23.512 112.36 22.856 112.36 22.12C112.36 21.4907 112.515 20.936 112.824 20.456C113.134 19.9653 113.555 19.5813 114.088 19.304C114.632 19.0267 115.246 18.888 115.928 18.888C116.643 18.888 117.283 19.0213 117.848 19.288C118.424 19.544 118.91 19.8853 119.304 20.312C119.699 20.7387 119.982 21.2133 120.152 21.736L119.032 22.184C118.776 21.48 118.376 20.9467 117.832 20.584C117.299 20.2213 116.67 20.04 115.944 20.04C115.486 20.04 115.08 20.12 114.728 20.28C114.387 20.44 114.12 20.6693 113.928 20.968C113.736 21.2667 113.64 21.6187 113.64 22.024C113.64 22.5147 113.795 22.9573 114.104 23.352C114.414 23.736 114.888 24.024 115.528 24.216L117.416 24.776C118.355 25.0533 119.064 25.4533 119.544 25.976C120.024 26.4987 120.264 27.1547 120.264 27.944C120.264 28.584 120.099 29.1493 119.768 29.64C119.448 30.12 118.995 30.4987 118.408 30.776C117.832 31.0533 117.166 31.192 116.408 31.192ZM122.56 34.2V22.424H123.76V24.344L123.568 24.008C123.909 23.464 124.363 23.032 124.928 22.712C125.504 22.392 126.16 22.232 126.896 22.232C127.707 22.232 128.427 22.4293 129.056 22.824C129.696 23.208 130.197 23.736 130.56 24.408C130.933 25.08 131.12 25.848 131.12 26.712C131.12 27.5653 130.933 28.3333 130.56 29.016C130.197 29.688 129.696 30.2213 129.056 30.616C128.427 31 127.707 31.192 126.896 31.192C126.16 31.192 125.493 31.0267 124.896 30.696C124.309 30.3547 123.867 29.8747 123.568 29.256L123.76 29.08V34.2H122.56ZM126.832 29.992C127.408 29.992 127.92 29.848 128.368 29.56C128.827 29.272 129.184 28.8827 129.44 28.392C129.707 27.8907 129.84 27.3307 129.84 26.712C129.84 26.0827 129.707 25.5227 129.44 25.032C129.184 24.5413 128.827 24.152 128.368 23.864C127.92 23.576 127.408 23.432 126.832 23.432C126.256 23.432 125.733 23.576 125.264 23.864C124.805 24.152 124.437 24.5467 124.16 25.048C123.893 25.5387 123.76 26.0933 123.76 26.712C123.76 27.3307 123.893 27.8907 124.16 28.392C124.437 28.8827 124.805 29.272 125.264 29.56C125.733 29.848 126.256 29.992 126.832 29.992ZM135.712 31.192C135.168 31.192 134.683 31.0907 134.256 30.888C133.829 30.6747 133.493 30.3867 133.248 30.024C133.003 29.6613 132.88 29.2453 132.88 28.776C132.88 28.328 132.976 27.9227 133.168 27.56C133.36 27.1867 133.659 26.872 134.064 26.616C134.469 26.36 134.987 26.1787 135.616 26.072L138.976 25.512V26.6L135.904 27.112C135.285 27.2187 134.837 27.416 134.56 27.704C134.293 27.992 134.16 28.3333 134.16 28.728C134.16 29.112 134.309 29.4373 134.608 29.704C134.917 29.9707 135.312 30.104 135.792 30.104C136.379 30.104 136.891 29.9813 137.328 29.736C137.765 29.48 138.107 29.1387 138.352 28.712C138.597 28.2853 138.72 27.8107 138.72 27.288V25.112C138.72 24.6 138.533 24.184 138.16 23.864C137.787 23.544 137.301 23.384 136.704 23.384C136.181 23.384 135.723 23.5173 135.328 23.784C134.933 24.04 134.64 24.376 134.448 24.792L133.36 24.2C133.52 23.8373 133.771 23.5067 134.112 23.208C134.464 22.9093 134.864 22.6747 135.312 22.504C135.76 22.3227 136.224 22.232 136.704 22.232C137.333 22.232 137.888 22.3547 138.368 22.6C138.859 22.8453 139.237 23.1867 139.504 23.624C139.781 24.0507 139.92 24.5467 139.92 25.112V31H138.72V29.288L138.896 29.464C138.747 29.784 138.512 30.0773 138.192 30.344C137.883 30.6 137.515 30.808 137.088 30.968C136.672 31.1173 136.213 31.192 135.712 31.192ZM146.308 31.192C145.466 31.192 144.724 30.9947 144.084 30.6C143.444 30.2053 142.943 29.672 142.58 29C142.218 28.3173 142.036 27.5493 142.036 26.696C142.036 25.8427 142.218 25.08 142.58 24.408C142.943 23.736 143.444 23.208 144.084 22.824C144.724 22.4293 145.466 22.232 146.308 22.232C146.842 22.232 147.343 22.328 147.812 22.52C148.282 22.712 148.698 22.9733 149.06 23.304C149.423 23.624 149.695 23.9973 149.876 24.424L148.788 24.984C148.575 24.5253 148.25 24.152 147.812 23.864C147.375 23.576 146.874 23.432 146.308 23.432C145.743 23.432 145.231 23.576 144.772 23.864C144.324 24.1413 143.967 24.5307 143.7 25.032C143.444 25.5227 143.316 26.0827 143.316 26.712C143.316 27.3307 143.444 27.8907 143.7 28.392C143.967 28.8827 144.324 29.272 144.772 29.56C145.231 29.848 145.743 29.992 146.308 29.992C146.874 29.992 147.37 29.848 147.796 29.56C148.234 29.272 148.564 28.888 148.788 28.408L149.876 29C149.695 29.416 149.423 29.7893 149.06 30.12C148.698 30.4507 148.282 30.712 147.812 30.904C147.343 31.096 146.842 31.192 146.308 31.192ZM155.886 31.192C155.086 31.192 154.361 31 153.71 30.616C153.07 30.2213 152.563 29.6827 152.19 29C151.817 28.3173 151.63 27.544 151.63 26.68C151.63 25.816 151.811 25.0533 152.174 24.392C152.537 23.72 153.027 23.192 153.646 22.808C154.275 22.424 154.979 22.232 155.758 22.232C156.377 22.232 156.926 22.3493 157.406 22.584C157.897 22.808 158.313 23.1173 158.654 23.512C158.995 23.896 159.257 24.3333 159.438 24.824C159.619 25.304 159.71 25.8 159.71 26.312C159.71 26.4187 159.705 26.5413 159.694 26.68C159.683 26.808 159.667 26.9413 159.646 27.08H152.398V25.96H158.958L158.382 26.44C158.478 25.8533 158.409 25.3307 158.174 24.872C157.95 24.4027 157.625 24.0347 157.198 23.768C156.771 23.4907 156.291 23.352 155.758 23.352C155.225 23.352 154.729 23.4907 154.27 23.768C153.822 24.0453 153.47 24.4347 153.214 24.936C152.958 25.4267 152.857 26.0133 152.91 26.696C152.857 27.3787 152.963 27.976 153.23 28.488C153.507 28.9893 153.881 29.3787 154.35 29.656C154.83 29.9333 155.342 30.072 155.886 30.072C156.515 30.072 157.043 29.9227 157.47 29.624C157.897 29.3253 158.243 28.952 158.51 28.504L159.534 29.048C159.363 29.432 159.102 29.7893 158.75 30.12C158.398 30.44 157.977 30.7013 157.486 30.904C157.006 31.096 156.473 31.192 155.886 31.192ZM164.802 31.192C163.98 31.192 163.26 30.984 162.642 30.568C162.023 30.152 161.575 29.5867 161.298 28.872L162.306 28.392C162.551 28.9147 162.892 29.3307 163.33 29.64C163.778 29.9493 164.268 30.104 164.802 30.104C165.314 30.104 165.746 29.9813 166.098 29.736C166.45 29.48 166.626 29.1493 166.626 28.744C166.626 28.4453 166.54 28.2107 166.37 28.04C166.199 27.8587 166.002 27.72 165.778 27.624C165.554 27.528 165.356 27.4587 165.186 27.416L163.954 27.064C163.164 26.84 162.594 26.5253 162.242 26.12C161.89 25.7147 161.714 25.2453 161.714 24.712C161.714 24.2107 161.842 23.7733 162.098 23.4C162.354 23.0267 162.7 22.7387 163.138 22.536C163.575 22.3333 164.06 22.232 164.594 22.232C165.319 22.232 165.975 22.424 166.562 22.808C167.159 23.1813 167.58 23.704 167.826 24.376L166.802 24.856C166.588 24.376 166.279 24.0027 165.874 23.736C165.479 23.4587 165.036 23.32 164.546 23.32C164.066 23.32 163.682 23.4427 163.394 23.688C163.106 23.9333 162.962 24.2427 162.962 24.616C162.962 24.904 163.036 25.1333 163.186 25.304C163.335 25.4747 163.506 25.6027 163.698 25.688C163.9 25.7733 164.076 25.8373 164.226 25.88L165.65 26.296C166.343 26.4987 166.882 26.8133 167.266 27.24C167.66 27.6667 167.858 28.168 167.858 28.744C167.858 29.2133 167.724 29.6347 167.458 30.008C167.202 30.3813 166.844 30.6747 166.386 30.888C165.927 31.0907 165.399 31.192 164.802 31.192ZM174.813 33.24C173.97 32.28 173.325 31.1973 172.877 29.992C172.44 28.7867 172.221 27.5067 172.221 26.152C172.221 24.7867 172.44 23.5067 172.877 22.312C173.325 21.1067 173.97 20.0293 174.813 19.08H175.853C175.085 20.1467 174.498 21.2827 174.093 22.488C173.698 23.6933 173.501 24.9147 173.501 26.152C173.501 27.3893 173.698 28.6107 174.093 29.816C174.498 31.0213 175.085 32.1627 175.853 33.24H174.813ZM180.972 31.192C180.225 31.192 179.564 31.0267 178.988 30.696C178.412 30.3547 177.959 29.8907 177.628 29.304C177.297 28.7067 177.132 28.024 177.132 27.256C177.132 26.8293 177.18 26.408 177.276 25.992C177.383 25.576 177.537 25.1653 177.74 24.76C177.953 24.3547 178.209 23.9493 178.508 23.544L181.868 19.08H183.404L179.26 24.504L179.02 24.648C179.18 24.3813 179.367 24.1787 179.58 24.04C179.793 23.8907 180.028 23.784 180.284 23.72C180.551 23.656 180.833 23.624 181.132 23.624C181.825 23.624 182.449 23.7893 183.004 24.12C183.559 24.44 183.996 24.8827 184.316 25.448C184.647 26.0133 184.812 26.6693 184.812 27.416C184.812 28.1307 184.641 28.776 184.3 29.352C183.969 29.9173 183.516 30.3653 182.94 30.696C182.364 31.0267 181.708 31.192 180.972 31.192ZM180.972 30.072C181.463 30.072 181.9 29.96 182.284 29.736C182.668 29.5013 182.972 29.1813 183.196 28.776C183.42 28.3707 183.532 27.9173 183.532 27.416C183.532 26.904 183.42 26.4507 183.196 26.056C182.983 25.6613 182.684 25.352 182.3 25.128C181.916 24.8933 181.473 24.776 180.972 24.776C180.481 24.776 180.039 24.8933 179.644 25.128C179.26 25.352 178.956 25.6613 178.732 26.056C178.519 26.4507 178.412 26.904 178.412 27.416C178.412 27.9173 178.524 28.3707 178.748 28.776C178.972 29.1813 179.276 29.5013 179.66 29.736C180.044 29.96 180.481 30.072 180.972 30.072ZM192.519 31V28.184H186.455V27.144L192.519 19.08H193.639V27.144H195.095V28.184H193.639V31H192.519ZM187.431 27.608L187.287 27.144H192.519V20.184L192.919 20.296L187.431 27.608ZM196.117 33.24C196.885 32.1627 197.466 31.0213 197.861 29.816C198.266 28.6107 198.469 27.3893 198.469 26.152C198.469 24.9147 198.266 23.6933 197.861 22.488C197.466 21.2827 196.885 20.1467 196.117 19.08H197.157C198.01 20.0293 198.656 21.1067 199.093 22.312C199.53 23.5067 199.749 24.7867 199.749 26.152C199.749 27.5067 199.53 28.7867 199.093 29.992C198.656 31.1973 198.01 32.28 197.157 33.24H196.117Z" fill="#494949"/>
</svg>
