<svg width="149" height="48" viewBox="0 0 149 48" fill="none" xmlns="http://www.w3.org/2000/svg">
<rect x="0.5" width="148" height="48" rx="24" fill="#E8E8E8"/>
<path d="M29.044 31L24.676 19.08H26.004L29.844 29.864H29.588L33.412 19.08H34.756L30.388 31H29.044ZM38.0089 31.192C37.4649 31.192 36.9795 31.0907 36.5529 30.888C36.1262 30.6747 35.7902 30.3867 35.5449 30.024C35.2995 29.6613 35.1769 29.2453 35.1769 28.776C35.1769 28.328 35.2729 27.9227 35.4649 27.56C35.6569 27.1867 35.9555 26.872 36.3609 26.616C36.7662 26.36 37.2835 26.1787 37.9129 26.072L41.2729 25.512V26.6L38.2009 27.112C37.5822 27.2187 37.1342 27.416 36.8569 27.704C36.5902 27.992 36.4569 28.3333 36.4569 28.728C36.4569 29.112 36.6062 29.4373 36.9049 29.704C37.2142 29.9707 37.6089 30.104 38.0889 30.104C38.6755 30.104 39.1875 29.9813 39.6249 29.736C40.0622 29.48 40.4035 29.1387 40.6489 28.712C40.8942 28.2853 41.0169 27.8107 41.0169 27.288V25.112C41.0169 24.6 40.8302 24.184 40.4569 23.864C40.0835 23.544 39.5982 23.384 39.0009 23.384C38.4782 23.384 38.0195 23.5173 37.6249 23.784C37.2302 24.04 36.9369 24.376 36.7449 24.792L35.6569 24.2C35.8169 23.8373 36.0675 23.5067 36.4089 23.208C36.7609 22.9093 37.1609 22.6747 37.6089 22.504C38.0569 22.3227 38.5209 22.232 39.0009 22.232C39.6302 22.232 40.1849 22.3547 40.6649 22.6C41.1555 22.8453 41.5342 23.1867 41.8009 23.624C42.0782 24.0507 42.2169 24.5467 42.2169 25.112V31H41.0169V29.288L41.1929 29.464C41.0435 29.784 40.8089 30.0773 40.4889 30.344C40.1795 30.6 39.8115 30.808 39.3849 30.968C38.9689 31.1173 38.5102 31.192 38.0089 31.192ZM44.6851 31V22.424H45.8851V24.088L45.6131 24.024C45.8265 23.4693 46.1731 23.032 46.6531 22.712C47.1438 22.392 47.7091 22.232 48.3491 22.232C48.9571 22.232 49.5011 22.3707 49.9811 22.648C50.4718 22.9253 50.8558 23.3093 51.1331 23.8C51.4211 24.28 51.5651 24.824 51.5651 25.432V31H50.3651V25.896C50.3651 25.3733 50.2691 24.9307 50.0771 24.568C49.8958 24.2053 49.6345 23.928 49.2931 23.736C48.9625 23.5333 48.5785 23.432 48.1411 23.432C47.7038 23.432 47.3145 23.5333 46.9731 23.736C46.6318 23.928 46.3651 24.2107 46.1731 24.584C45.9811 24.9467 45.8851 25.384 45.8851 25.896V31H44.6851ZM56.833 31.192C56.0117 31.192 55.2917 30.984 54.673 30.568C54.0543 30.152 53.6063 29.5867 53.329 28.872L54.337 28.392C54.5823 28.9147 54.9237 29.3307 55.361 29.64C55.809 29.9493 56.2997 30.104 56.833 30.104C57.345 30.104 57.777 29.9813 58.129 29.736C58.481 29.48 58.657 29.1493 58.657 28.744C58.657 28.4453 58.5717 28.2107 58.401 28.04C58.2303 27.8587 58.033 27.72 57.809 27.624C57.585 27.528 57.3877 27.4587 57.217 27.416L55.985 27.064C55.1957 26.84 54.625 26.5253 54.273 26.12C53.921 25.7147 53.745 25.2453 53.745 24.712C53.745 24.2107 53.873 23.7733 54.129 23.4C54.385 23.0267 54.7317 22.7387 55.169 22.536C55.6063 22.3333 56.0917 22.232 56.625 22.232C57.3503 22.232 58.0063 22.424 58.593 22.808C59.1903 23.1813 59.6117 23.704 59.857 24.376L58.833 24.856C58.6197 24.376 58.3103 24.0027 57.905 23.736C57.5103 23.4587 57.0677 23.32 56.577 23.32C56.097 23.32 55.713 23.4427 55.425 23.688C55.137 23.9333 54.993 24.2427 54.993 24.616C54.993 24.904 55.0677 25.1333 55.217 25.304C55.3663 25.4747 55.537 25.6027 55.729 25.688C55.9317 25.7733 56.1077 25.8373 56.257 25.88L57.681 26.296C58.3743 26.4987 58.913 26.8133 59.297 27.24C59.6917 27.6667 59.889 28.168 59.889 28.744C59.889 29.2133 59.7557 29.6347 59.489 30.008C59.233 30.3813 58.8757 30.6747 58.417 30.888C57.9583 31.0907 57.4303 31.192 56.833 31.192ZM67.7084 31.192C67.0684 31.192 66.4977 31.0693 65.9964 30.824C65.495 30.5787 65.1004 30.232 64.8124 29.784C64.5244 29.336 64.3804 28.8133 64.3804 28.216C64.3804 27.704 64.4764 27.2507 64.6684 26.856C64.8604 26.4613 65.095 26.12 65.3724 25.832C65.6604 25.5333 65.9484 25.2827 66.2364 25.08C66.535 24.8773 66.7857 24.712 66.9884 24.584L67.8204 24.072C68.119 23.8907 68.4124 23.688 68.7004 23.464C68.999 23.2293 69.2444 22.9627 69.4364 22.664C69.639 22.3547 69.7404 22.0133 69.7404 21.64C69.7404 21.192 69.591 20.8187 69.2924 20.52C68.9937 20.2213 68.6204 20.072 68.1724 20.072C67.7137 20.072 67.335 20.2213 67.0364 20.52C66.7484 20.8187 66.6044 21.1973 66.6044 21.656C66.6044 21.9547 66.6737 22.248 66.8124 22.536C66.9617 22.824 67.143 23.1013 67.3564 23.368C67.5804 23.624 67.8097 23.8747 68.0444 24.12L74.6044 31H72.8924L67.0364 24.952C66.7804 24.6853 66.519 24.392 66.2524 24.072C65.9964 23.7413 65.7777 23.384 65.5964 23C65.415 22.6053 65.3244 22.1733 65.3244 21.704C65.3244 21.1493 65.4524 20.664 65.7084 20.248C65.9644 19.8213 66.3057 19.4907 66.7324 19.256C67.1697 19.0107 67.6497 18.888 68.1724 18.888C68.6844 18.888 69.1537 19.0053 69.5804 19.24C70.007 19.4747 70.3484 19.8 70.6044 20.216C70.8604 20.632 70.9884 21.1067 70.9884 21.64C70.9884 22.2053 70.855 22.7013 70.5884 23.128C70.3324 23.544 70.0177 23.9013 69.6444 24.2C69.271 24.4987 68.9244 24.7493 68.6044 24.952L67.8044 25.448C67.5164 25.6293 67.2124 25.848 66.8924 26.104C66.5724 26.3493 66.3004 26.6427 66.0764 26.984C65.8524 27.3147 65.7404 27.7147 65.7404 28.184C65.7404 28.76 65.927 29.208 66.3004 29.528C66.6737 29.848 67.1537 30.008 67.7404 30.008C68.1244 30.008 68.4657 29.944 68.7644 29.816C69.063 29.688 69.3297 29.5227 69.5644 29.32C69.799 29.1067 70.0124 28.872 70.2044 28.616C70.3964 28.3493 70.5777 28.088 70.7484 27.832L72.5884 25.096H74.0444L71.9004 28.36C71.7297 28.6267 71.5217 28.9253 71.2764 29.256C71.031 29.576 70.743 29.8853 70.4124 30.184C70.0817 30.472 69.6924 30.712 69.2444 30.904C68.807 31.096 68.295 31.192 67.7084 31.192ZM79.3611 31V19.08H84.3691C85.0411 19.08 85.6225 19.208 86.1131 19.464C86.6145 19.7093 86.9985 20.056 87.2651 20.504C87.5425 20.952 87.6811 21.4747 87.6811 22.072C87.6811 22.6907 87.5265 23.24 87.2171 23.72C86.9185 24.1893 86.4865 24.5467 85.9211 24.792L85.9051 24.408C86.3745 24.5787 86.7745 24.8187 87.1051 25.128C87.4465 25.4373 87.7078 25.8 87.8891 26.216C88.0705 26.6213 88.1611 27.0587 88.1611 27.528C88.1611 28.5947 87.8198 29.4427 87.1371 30.072C86.4651 30.6907 85.5478 31 84.3851 31H79.3611ZM80.6411 29.8H84.3851C85.1425 29.8 85.7451 29.6027 86.1931 29.208C86.6518 28.8027 86.8811 28.248 86.8811 27.544C86.8811 26.8507 86.6518 26.3013 86.1931 25.896C85.7451 25.48 85.1425 25.272 84.3851 25.272H80.6411V29.8ZM80.6411 24.12H84.2731C84.9131 24.12 85.4251 23.9333 85.8091 23.56C86.2038 23.1867 86.4011 22.7067 86.4011 22.12C86.4011 21.5227 86.2038 21.0693 85.8091 20.76C85.4251 20.44 84.9131 20.28 84.2731 20.28H80.6411V24.12ZM93.3189 31.192C92.7215 31.192 92.1775 31.0533 91.6869 30.776C91.1962 30.488 90.8069 30.0933 90.5189 29.592C90.2415 29.08 90.1029 28.4933 90.1029 27.832V22.424H91.3029V27.688C91.3029 28.1467 91.3935 28.552 91.5749 28.904C91.7669 29.2453 92.0282 29.512 92.3589 29.704C92.7002 29.896 93.0895 29.992 93.5269 29.992C93.9642 29.992 94.3535 29.896 94.6949 29.704C95.0362 29.5013 95.3029 29.2187 95.4949 28.856C95.6869 28.4827 95.7829 28.04 95.7829 27.528V22.424H96.9829V31H95.7829V29.336L96.0549 29.4C95.8522 29.9547 95.5055 30.392 95.0149 30.712C94.5242 31.032 93.9589 31.192 93.3189 31.192ZM102.427 31.192C101.605 31.192 100.885 30.984 100.267 30.568C99.6481 30.152 99.2001 29.5867 98.9228 28.872L99.9308 28.392C100.176 28.9147 100.517 29.3307 100.955 29.64C101.403 29.9493 101.893 30.104 102.427 30.104C102.939 30.104 103.371 29.9813 103.723 29.736C104.075 29.48 104.251 29.1493 104.251 28.744C104.251 28.4453 104.165 28.2107 103.995 28.04C103.824 27.8587 103.627 27.72 103.403 27.624C103.179 27.528 102.981 27.4587 102.811 27.416L101.579 27.064C100.789 26.84 100.219 26.5253 99.8668 26.12C99.5148 25.7147 99.3388 25.2453 99.3388 24.712C99.3388 24.2107 99.4668 23.7733 99.7228 23.4C99.9788 23.0267 100.325 22.7387 100.763 22.536C101.2 22.3333 101.685 22.232 102.219 22.232C102.944 22.232 103.6 22.424 104.187 22.808C104.784 23.1813 105.205 23.704 105.451 24.376L104.427 24.856C104.213 24.376 103.904 24.0027 103.499 23.736C103.104 23.4587 102.661 23.32 102.171 23.32C101.691 23.32 101.307 23.4427 101.019 23.688C100.731 23.9333 100.587 24.2427 100.587 24.616C100.587 24.904 100.661 25.1333 100.811 25.304C100.96 25.4747 101.131 25.6027 101.323 25.688C101.525 25.7733 101.701 25.8373 101.851 25.88L103.275 26.296C103.968 26.4987 104.507 26.8133 104.891 27.24C105.285 27.6667 105.483 28.168 105.483 28.744C105.483 29.2133 105.349 29.6347 105.083 30.008C104.827 30.3813 104.469 30.6747 104.011 30.888C103.552 31.0907 103.024 31.192 102.427 31.192ZM111.495 31.192C110.695 31.192 109.97 31 109.319 30.616C108.679 30.2213 108.173 29.6827 107.799 29C107.426 28.3173 107.239 27.544 107.239 26.68C107.239 25.816 107.421 25.0533 107.783 24.392C108.146 23.72 108.637 23.192 109.255 22.808C109.885 22.424 110.589 22.232 111.367 22.232C111.986 22.232 112.535 22.3493 113.015 22.584C113.506 22.808 113.922 23.1173 114.263 23.512C114.605 23.896 114.866 24.3333 115.047 24.824C115.229 25.304 115.319 25.8 115.319 26.312C115.319 26.4187 115.314 26.5413 115.303 26.68C115.293 26.808 115.277 26.9413 115.255 27.08H108.007V25.96H114.567L113.991 26.44C114.087 25.8533 114.018 25.3307 113.783 24.872C113.559 24.4027 113.234 24.0347 112.807 23.768C112.381 23.4907 111.901 23.352 111.367 23.352C110.834 23.352 110.338 23.4907 109.879 23.768C109.431 24.0453 109.079 24.4347 108.823 24.936C108.567 25.4267 108.466 26.0133 108.519 26.696C108.466 27.3787 108.573 27.976 108.839 28.488C109.117 28.9893 109.49 29.3787 109.959 29.656C110.439 29.9333 110.951 30.072 111.495 30.072C112.125 30.072 112.653 29.9227 113.079 29.624C113.506 29.3253 113.853 28.952 114.119 28.504L115.143 29.048C114.973 29.432 114.711 29.7893 114.359 30.12C114.007 30.44 113.586 30.7013 113.095 30.904C112.615 31.096 112.082 31.192 111.495 31.192ZM120.411 31.192C119.59 31.192 118.87 30.984 118.251 30.568C117.632 30.152 117.184 29.5867 116.907 28.872L117.915 28.392C118.16 28.9147 118.502 29.3307 118.939 29.64C119.387 29.9493 119.878 30.104 120.411 30.104C120.923 30.104 121.355 29.9813 121.707 29.736C122.059 29.48 122.235 29.1493 122.235 28.744C122.235 28.4453 122.15 28.2107 121.979 28.04C121.808 27.8587 121.611 27.72 121.387 27.624C121.163 27.528 120.966 27.4587 120.795 27.416L119.563 27.064C118.774 26.84 118.203 26.5253 117.851 26.12C117.499 25.7147 117.323 25.2453 117.323 24.712C117.323 24.2107 117.451 23.7733 117.707 23.4C117.963 23.0267 118.31 22.7387 118.747 22.536C119.184 22.3333 119.67 22.232 120.203 22.232C120.928 22.232 121.584 22.424 122.171 22.808C122.768 23.1813 123.19 23.704 123.435 24.376L122.411 24.856C122.198 24.376 121.888 24.0027 121.483 23.736C121.088 23.4587 120.646 23.32 120.155 23.32C119.675 23.32 119.291 23.4427 119.003 23.688C118.715 23.9333 118.571 24.2427 118.571 24.616C118.571 24.904 118.646 25.1333 118.795 25.304C118.944 25.4747 119.115 25.6027 119.307 25.688C119.51 25.7733 119.686 25.8373 119.835 25.88L121.259 26.296C121.952 26.4987 122.491 26.8133 122.875 27.24C123.27 27.6667 123.467 28.168 123.467 28.744C123.467 29.2133 123.334 29.6347 123.067 30.008C122.811 30.3813 122.454 30.6747 121.995 30.888C121.536 31.0907 121.008 31.192 120.411 31.192Z" fill="#494949"/>
</svg>
