<svg width="173" height="48" viewBox="0 0 173 48" fill="none" xmlns="http://www.w3.org/2000/svg">
<rect x="0.5" width="172" height="48" rx="24" fill="#E8E8E8"/>
<path d="M25.908 31V19.08H27.028L31.508 25.576H30.884L35.348 19.08H36.468V31H35.188V20.808L35.604 20.968L31.22 27.32H31.156L26.788 20.968L27.188 20.808V31H25.908ZM43.011 31.192C42.211 31.192 41.4857 31 40.835 30.616C40.195 30.2213 39.6883 29.6827 39.315 29C38.9417 28.3173 38.755 27.544 38.755 26.68C38.755 25.816 38.9363 25.0533 39.299 24.392C39.6617 23.72 40.1523 23.192 40.771 22.808C41.4003 22.424 42.1043 22.232 42.883 22.232C43.5017 22.232 44.051 22.3493 44.531 22.584C45.0217 22.808 45.4377 23.1173 45.779 23.512C46.1203 23.896 46.3817 24.3333 46.563 24.824C46.7443 25.304 46.835 25.8 46.835 26.312C46.835 26.4187 46.8297 26.5413 46.819 26.68C46.8083 26.808 46.7923 26.9413 46.771 27.08H39.523V25.96H46.083L45.507 26.44C45.603 25.8533 45.5337 25.3307 45.299 24.872C45.075 24.4027 44.7497 24.0347 44.323 23.768C43.8963 23.4907 43.4163 23.352 42.883 23.352C42.3497 23.352 41.8537 23.4907 41.395 23.768C40.947 24.0453 40.595 24.4347 40.339 24.936C40.083 25.4267 39.9817 26.0133 40.035 26.696C39.9817 27.3787 40.0883 27.976 40.355 28.488C40.6323 28.9893 41.0057 29.3787 41.475 29.656C41.955 29.9333 42.467 30.072 43.011 30.072C43.6403 30.072 44.1683 29.9227 44.595 29.624C45.0217 29.3253 45.3683 28.952 45.635 28.504L46.659 29.048C46.4883 29.432 46.227 29.7893 45.875 30.12C45.523 30.44 45.1017 30.7013 44.611 30.904C44.131 31.096 43.5977 31.192 43.011 31.192ZM52.8548 31.192C52.0548 31.192 51.3294 31 50.6788 30.616C50.0388 30.2213 49.5321 29.6827 49.1588 29C48.7854 28.3173 48.5988 27.544 48.5988 26.68C48.5988 25.816 48.7801 25.0533 49.1428 24.392C49.5054 23.72 49.9961 23.192 50.6148 22.808C51.2441 22.424 51.9481 22.232 52.7268 22.232C53.3454 22.232 53.8948 22.3493 54.3748 22.584C54.8654 22.808 55.2814 23.1173 55.6228 23.512C55.9641 23.896 56.2254 24.3333 56.4068 24.824C56.5881 25.304 56.6788 25.8 56.6788 26.312C56.6788 26.4187 56.6734 26.5413 56.6628 26.68C56.6521 26.808 56.6361 26.9413 56.6148 27.08H49.3668V25.96H55.9268L55.3508 26.44C55.4468 25.8533 55.3774 25.3307 55.1428 24.872C54.9188 24.4027 54.5934 24.0347 54.1668 23.768C53.7401 23.4907 53.2601 23.352 52.7268 23.352C52.1934 23.352 51.6974 23.4907 51.2388 23.768C50.7908 24.0453 50.4388 24.4347 50.1828 24.936C49.9268 25.4267 49.8254 26.0133 49.8788 26.696C49.8254 27.3787 49.9321 27.976 50.1988 28.488C50.4761 28.9893 50.8494 29.3787 51.3188 29.656C51.7988 29.9333 52.3108 30.072 52.8548 30.072C53.4841 30.072 54.0121 29.9227 54.4388 29.624C54.8654 29.3253 55.2121 28.952 55.4788 28.504L56.5028 29.048C56.3321 29.432 56.0708 29.7893 55.7188 30.12C55.3668 30.44 54.9454 30.7013 54.4548 30.904C53.9748 31.096 53.4414 31.192 52.8548 31.192ZM62.0745 31.096C61.3065 31.096 60.7145 30.872 60.2985 30.424C59.8825 29.976 59.6745 29.336 59.6745 28.504V23.624H58.0905V22.424H58.4905C58.8532 22.424 59.1412 22.3067 59.3545 22.072C59.5678 21.8267 59.6745 21.5227 59.6745 21.16V20.44H60.8745V22.424H62.7625V23.624H60.8745V28.504C60.8745 28.792 60.9172 29.048 61.0025 29.272C61.0878 29.4853 61.2318 29.656 61.4345 29.784C61.6478 29.912 61.9305 29.976 62.2825 29.976C62.3678 29.976 62.4692 29.9707 62.5865 29.96C62.7038 29.9493 62.8052 29.9387 62.8905 29.928V31C62.7625 31.032 62.6185 31.0533 62.4585 31.064C62.2985 31.0853 62.1705 31.096 62.0745 31.096ZM64.9976 31V22.424H66.1976V31H64.9976ZM64.9976 20.84V19.08H66.1976V20.84H64.9976ZM68.6539 31V22.424H69.8539V24.088L69.5819 24.024C69.7952 23.4693 70.1419 23.032 70.6219 22.712C71.1125 22.392 71.6779 22.232 72.3179 22.232C72.9259 22.232 73.4699 22.3707 73.9499 22.648C74.4405 22.9253 74.8245 23.3093 75.1019 23.8C75.3899 24.28 75.5339 24.824 75.5339 25.432V31H74.3339V25.896C74.3339 25.3733 74.2379 24.9307 74.0459 24.568C73.8645 24.2053 73.6032 23.928 73.2619 23.736C72.9312 23.5333 72.5472 23.432 72.1099 23.432C71.6725 23.432 71.2832 23.5333 70.9419 23.736C70.6005 23.928 70.3339 24.2107 70.1419 24.584C69.9499 24.9467 69.8539 25.384 69.8539 25.896V31H68.6539ZM81.8898 34.52C81.3031 34.52 80.7591 34.4293 80.2578 34.248C79.7671 34.0667 79.3404 33.816 78.9778 33.496C78.6258 33.1867 78.3538 32.824 78.1618 32.408L79.2658 31.816C79.4364 32.2213 79.7404 32.5733 80.1778 32.872C80.6151 33.1707 81.1751 33.32 81.8578 33.32C82.3804 33.32 82.8604 33.2187 83.2978 33.016C83.7351 32.8133 84.0871 32.5147 84.3538 32.12C84.6204 31.7253 84.7538 31.24 84.7538 30.664V28.76L84.9458 28.936C84.6471 29.5547 84.2044 30.0347 83.6178 30.376C83.0311 30.7067 82.3911 30.872 81.6978 30.872C80.8978 30.872 80.1778 30.68 79.5378 30.296C78.8978 29.912 78.3911 29.3947 78.0178 28.744C77.6551 28.0827 77.4738 27.352 77.4738 26.552C77.4738 25.7413 77.6551 25.0107 78.0178 24.36C78.3911 23.7093 78.8924 23.192 79.5218 22.808C80.1618 22.424 80.8871 22.232 81.6978 22.232C82.3911 22.232 83.0204 22.392 83.5858 22.712C84.1618 23.032 84.6151 23.464 84.9458 24.008L84.7538 24.344V22.424H85.9538V30.664C85.9538 31.4 85.7778 32.056 85.4258 32.632C85.0844 33.2187 84.6044 33.6773 83.9858 34.008C83.3778 34.3493 82.6791 34.52 81.8898 34.52ZM81.7618 29.672C82.3164 29.672 82.8178 29.5333 83.2658 29.256C83.7138 28.968 84.0711 28.5893 84.3378 28.12C84.6151 27.64 84.7538 27.1173 84.7538 26.552C84.7538 25.9867 84.6151 25.4693 84.3378 25C84.0711 24.52 83.7138 24.1413 83.2658 23.864C82.8178 23.576 82.3164 23.432 81.7618 23.432C81.1964 23.432 80.6844 23.576 80.2258 23.864C79.7671 24.1413 79.4044 24.5147 79.1378 24.984C78.8818 25.4533 78.7538 25.976 78.7538 26.552C78.7538 27.1173 78.8818 27.64 79.1378 28.12C79.4044 28.5893 79.7618 28.968 80.2098 29.256C80.6684 29.5333 81.1858 29.672 81.7618 29.672ZM95.3303 31.192C94.5729 31.192 93.8849 31.048 93.2663 30.76C92.6476 30.472 92.1249 30.088 91.6983 29.608C91.2716 29.1173 90.9676 28.5787 90.7863 27.992L91.9383 27.56C92.2156 28.3707 92.6476 28.9893 93.2343 29.416C93.8209 29.832 94.5196 30.04 95.3303 30.04C95.8423 30.04 96.2903 29.96 96.6743 29.8C97.0689 29.6293 97.3729 29.3947 97.5863 29.096C97.7996 28.7973 97.9062 28.4507 97.9062 28.056C97.9062 27.4693 97.7463 27.016 97.4263 26.696C97.1063 26.376 96.6476 26.1307 96.0503 25.96L93.9062 25.32C93.0636 25.0747 92.4129 24.664 91.9543 24.088C91.5063 23.512 91.2823 22.856 91.2823 22.12C91.2823 21.4907 91.4369 20.936 91.7463 20.456C92.0556 19.9653 92.4769 19.5813 93.0103 19.304C93.5543 19.0267 94.1676 18.888 94.8503 18.888C95.5649 18.888 96.2049 19.0213 96.7703 19.288C97.3463 19.544 97.8316 19.8853 98.2263 20.312C98.6209 20.7387 98.9036 21.2133 99.0743 21.736L97.9543 22.184C97.6983 21.48 97.2983 20.9467 96.7543 20.584C96.2209 20.2213 95.5916 20.04 94.8663 20.04C94.4076 20.04 94.0023 20.12 93.6503 20.28C93.3089 20.44 93.0423 20.6693 92.8503 20.968C92.6583 21.2667 92.5623 21.6187 92.5623 22.024C92.5623 22.5147 92.7169 22.9573 93.0263 23.352C93.3356 23.736 93.8103 24.024 94.4503 24.216L96.3383 24.776C97.2769 25.0533 97.9863 25.4533 98.4663 25.976C98.9463 26.4987 99.1863 27.1547 99.1863 27.944C99.1863 28.584 99.0209 29.1493 98.6903 29.64C98.3703 30.12 97.9169 30.4987 97.3303 30.776C96.7543 31.0533 96.0876 31.192 95.3303 31.192ZM101.482 34.2V22.424H102.682V24.344L102.49 24.008C102.831 23.464 103.285 23.032 103.85 22.712C104.426 22.392 105.082 22.232 105.818 22.232C106.629 22.232 107.349 22.4293 107.978 22.824C108.618 23.208 109.119 23.736 109.482 24.408C109.855 25.08 110.042 25.848 110.042 26.712C110.042 27.5653 109.855 28.3333 109.482 29.016C109.119 29.688 108.618 30.2213 107.978 30.616C107.349 31 106.629 31.192 105.818 31.192C105.082 31.192 104.415 31.0267 103.818 30.696C103.231 30.3547 102.789 29.8747 102.49 29.256L102.682 29.08V34.2H101.482ZM105.754 29.992C106.33 29.992 106.842 29.848 107.29 29.56C107.749 29.272 108.106 28.8827 108.362 28.392C108.629 27.8907 108.762 27.3307 108.762 26.712C108.762 26.0827 108.629 25.5227 108.362 25.032C108.106 24.5413 107.749 24.152 107.29 23.864C106.842 23.576 106.33 23.432 105.754 23.432C105.178 23.432 104.655 23.576 104.186 23.864C103.727 24.152 103.359 24.5467 103.082 25.048C102.815 25.5387 102.682 26.0933 102.682 26.712C102.682 27.3307 102.815 27.8907 103.082 28.392C103.359 28.8827 103.727 29.272 104.186 29.56C104.655 29.848 105.178 29.992 105.754 29.992ZM114.634 31.192C114.09 31.192 113.605 31.0907 113.178 30.888C112.751 30.6747 112.415 30.3867 112.17 30.024C111.925 29.6613 111.802 29.2453 111.802 28.776C111.802 28.328 111.898 27.9227 112.09 27.56C112.282 27.1867 112.581 26.872 112.986 26.616C113.391 26.36 113.909 26.1787 114.538 26.072L117.898 25.512V26.6L114.826 27.112C114.207 27.2187 113.759 27.416 113.482 27.704C113.215 27.992 113.082 28.3333 113.082 28.728C113.082 29.112 113.231 29.4373 113.53 29.704C113.839 29.9707 114.234 30.104 114.714 30.104C115.301 30.104 115.813 29.9813 116.25 29.736C116.687 29.48 117.029 29.1387 117.274 28.712C117.519 28.2853 117.642 27.8107 117.642 27.288V25.112C117.642 24.6 117.455 24.184 117.082 23.864C116.709 23.544 116.223 23.384 115.626 23.384C115.103 23.384 114.645 23.5173 114.25 23.784C113.855 24.04 113.562 24.376 113.37 24.792L112.282 24.2C112.442 23.8373 112.693 23.5067 113.034 23.208C113.386 22.9093 113.786 22.6747 114.234 22.504C114.682 22.3227 115.146 22.232 115.626 22.232C116.255 22.232 116.81 22.3547 117.29 22.6C117.781 22.8453 118.159 23.1867 118.426 23.624C118.703 24.0507 118.842 24.5467 118.842 25.112V31H117.642V29.288L117.818 29.464C117.669 29.784 117.434 30.0773 117.114 30.344C116.805 30.6 116.437 30.808 116.01 30.968C115.594 31.1173 115.135 31.192 114.634 31.192ZM125.23 31.192C124.387 31.192 123.646 30.9947 123.006 30.6C122.366 30.2053 121.865 29.672 121.502 29C121.139 28.3173 120.958 27.5493 120.958 26.696C120.958 25.8427 121.139 25.08 121.502 24.408C121.865 23.736 122.366 23.208 123.006 22.824C123.646 22.4293 124.387 22.232 125.23 22.232C125.763 22.232 126.265 22.328 126.734 22.52C127.203 22.712 127.619 22.9733 127.982 23.304C128.345 23.624 128.617 23.9973 128.798 24.424L127.71 24.984C127.497 24.5253 127.171 24.152 126.734 23.864C126.297 23.576 125.795 23.432 125.23 23.432C124.665 23.432 124.153 23.576 123.694 23.864C123.246 24.1413 122.889 24.5307 122.622 25.032C122.366 25.5227 122.238 26.0827 122.238 26.712C122.238 27.3307 122.366 27.8907 122.622 28.392C122.889 28.8827 123.246 29.272 123.694 29.56C124.153 29.848 124.665 29.992 125.23 29.992C125.795 29.992 126.291 29.848 126.718 29.56C127.155 29.272 127.486 28.888 127.71 28.408L128.798 29C128.617 29.416 128.345 29.7893 127.982 30.12C127.619 30.4507 127.203 30.712 126.734 30.904C126.265 31.096 125.763 31.192 125.23 31.192ZM134.808 31.192C134.008 31.192 133.283 31 132.632 30.616C131.992 30.2213 131.485 29.6827 131.112 29C130.739 28.3173 130.552 27.544 130.552 26.68C130.552 25.816 130.733 25.0533 131.096 24.392C131.459 23.72 131.949 23.192 132.568 22.808C133.197 22.424 133.901 22.232 134.68 22.232C135.299 22.232 135.848 22.3493 136.328 22.584C136.819 22.808 137.235 23.1173 137.576 23.512C137.917 23.896 138.179 24.3333 138.36 24.824C138.541 25.304 138.632 25.8 138.632 26.312C138.632 26.4187 138.627 26.5413 138.616 26.68C138.605 26.808 138.589 26.9413 138.568 27.08H131.32V25.96H137.88L137.304 26.44C137.4 25.8533 137.331 25.3307 137.096 24.872C136.872 24.4027 136.547 24.0347 136.12 23.768C135.693 23.4907 135.213 23.352 134.68 23.352C134.147 23.352 133.651 23.4907 133.192 23.768C132.744 24.0453 132.392 24.4347 132.136 24.936C131.88 25.4267 131.779 26.0133 131.832 26.696C131.779 27.3787 131.885 27.976 132.152 28.488C132.429 28.9893 132.803 29.3787 133.272 29.656C133.752 29.9333 134.264 30.072 134.808 30.072C135.437 30.072 135.965 29.9227 136.392 29.624C136.819 29.3253 137.165 28.952 137.432 28.504L138.456 29.048C138.285 29.432 138.024 29.7893 137.672 30.12C137.32 30.44 136.899 30.7013 136.408 30.904C135.928 31.096 135.395 31.192 134.808 31.192ZM143.724 31.192C142.902 31.192 142.182 30.984 141.564 30.568C140.945 30.152 140.497 29.5867 140.22 28.872L141.228 28.392C141.473 28.9147 141.814 29.3307 142.252 29.64C142.7 29.9493 143.19 30.104 143.724 30.104C144.236 30.104 144.668 29.9813 145.02 29.736C145.372 29.48 145.548 29.1493 145.548 28.744C145.548 28.4453 145.462 28.2107 145.292 28.04C145.121 27.8587 144.924 27.72 144.7 27.624C144.476 27.528 144.278 27.4587 144.108 27.416L142.876 27.064C142.086 26.84 141.516 26.5253 141.164 26.12C140.812 25.7147 140.636 25.2453 140.636 24.712C140.636 24.2107 140.764 23.7733 141.02 23.4C141.276 23.0267 141.622 22.7387 142.06 22.536C142.497 22.3333 142.982 22.232 143.516 22.232C144.241 22.232 144.897 22.424 145.484 22.808C146.081 23.1813 146.502 23.704 146.748 24.376L145.724 24.856C145.51 24.376 145.201 24.0027 144.796 23.736C144.401 23.4587 143.958 23.32 143.468 23.32C142.988 23.32 142.604 23.4427 142.316 23.688C142.028 23.9333 141.884 24.2427 141.884 24.616C141.884 24.904 141.958 25.1333 142.108 25.304C142.257 25.4747 142.428 25.6027 142.62 25.688C142.822 25.7733 142.998 25.8373 143.148 25.88L144.572 26.296C145.265 26.4987 145.804 26.8133 146.188 27.24C146.582 27.6667 146.78 28.168 146.78 28.744C146.78 29.2133 146.646 29.6347 146.38 30.008C146.124 30.3813 145.766 30.6747 145.308 30.888C144.849 31.0907 144.321 31.192 143.724 31.192Z" fill="#494949"/>
</svg>
