<svg width="160" height="48" viewBox="0 0 160 48" fill="none" xmlns="http://www.w3.org/2000/svg">
<rect x="0.5" width="159" height="48" rx="24" fill="#E93740"/>
<path d="M24.676 31L29.028 19.08H30.404L34.756 31H33.412L32.388 28.088H27.06L26.02 31H24.676ZM27.476 26.888H31.94L29.524 20.04H29.908L27.476 26.888ZM36.1695 31V18.888H37.3695V31H36.1695ZM39.8258 31V18.888H41.0258V31H39.8258ZM46.3768 31V19.08H47.6568V31H46.3768ZM53.5745 31.096C52.8065 31.096 52.2145 30.872 51.7985 30.424C51.3825 29.976 51.1745 29.336 51.1745 28.504V23.624H49.5905V22.424H49.9905C50.3532 22.424 50.6412 22.3067 50.8545 22.072C51.0678 21.8267 51.1745 21.5227 51.1745 21.16V20.44H52.3745V22.424H54.2625V23.624H52.3745V28.504C52.3745 28.792 52.4172 29.048 52.5025 29.272C52.5878 29.4853 52.7318 29.656 52.9345 29.784C53.1478 29.912 53.4305 29.976 53.7825 29.976C53.8678 29.976 53.9692 29.9707 54.0865 29.96C54.2038 29.9493 54.3052 29.9387 54.3905 29.928V31C54.2625 31.032 54.1185 31.0533 53.9585 31.064C53.7985 31.0853 53.6705 31.096 53.5745 31.096ZM60.0891 31.192C59.2891 31.192 58.5638 31 57.9131 30.616C57.2731 30.2213 56.7665 29.6827 56.3931 29C56.0198 28.3173 55.8331 27.544 55.8331 26.68C55.8331 25.816 56.0145 25.0533 56.3771 24.392C56.7398 23.72 57.2305 23.192 57.8491 22.808C58.4785 22.424 59.1825 22.232 59.9611 22.232C60.5798 22.232 61.1291 22.3493 61.6091 22.584C62.0998 22.808 62.5158 23.1173 62.8571 23.512C63.1985 23.896 63.4598 24.3333 63.6411 24.824C63.8225 25.304 63.9131 25.8 63.9131 26.312C63.9131 26.4187 63.9078 26.5413 63.8971 26.68C63.8865 26.808 63.8705 26.9413 63.8491 27.08H56.6011V25.96H63.1611L62.5851 26.44C62.6811 25.8533 62.6118 25.3307 62.3771 24.872C62.1531 24.4027 61.8278 24.0347 61.4011 23.768C60.9745 23.4907 60.4945 23.352 59.9611 23.352C59.4278 23.352 58.9318 23.4907 58.4731 23.768C58.0251 24.0453 57.6731 24.4347 57.4171 24.936C57.1611 25.4267 57.0598 26.0133 57.1131 26.696C57.0598 27.3787 57.1665 27.976 57.4331 28.488C57.7105 28.9893 58.0838 29.3787 58.5531 29.656C59.0331 29.9333 59.5451 30.072 60.0891 30.072C60.7185 30.072 61.2465 29.9227 61.6731 29.624C62.0998 29.3253 62.4465 28.952 62.7131 28.504L63.7371 29.048C63.5665 29.432 63.3051 29.7893 62.9531 30.12C62.6011 30.44 62.1798 30.7013 61.6891 30.904C61.2091 31.096 60.6758 31.192 60.0891 31.192ZM66.0289 31V22.424H67.2289V24.056L67.0369 23.816C67.2715 23.3147 67.6182 22.9253 68.0769 22.648C68.5462 22.3707 69.0582 22.232 69.6129 22.232C70.2742 22.232 70.8715 22.4187 71.4049 22.792C71.9382 23.1653 72.3169 23.6507 72.5409 24.248L72.2049 24.264C72.4182 23.6027 72.7862 23.1013 73.3089 22.76C73.8422 22.408 74.4289 22.232 75.0689 22.232C75.6449 22.232 76.1729 22.3707 76.6529 22.648C77.1435 22.9253 77.5329 23.3093 77.8209 23.8C78.1195 24.28 78.2689 24.824 78.2689 25.432V31H77.0689V25.896C77.0689 25.3733 76.9729 24.9307 76.7809 24.568C76.5995 24.2053 76.3489 23.928 76.0289 23.736C75.7089 23.5333 75.3409 23.432 74.9249 23.432C74.5195 23.432 74.1515 23.5333 73.8209 23.736C73.4902 23.928 73.2289 24.2107 73.0369 24.584C72.8449 24.9467 72.7489 25.384 72.7489 25.896V31H71.5489V25.896C71.5489 25.3733 71.4529 24.9307 71.2609 24.568C71.0795 24.2053 70.8289 23.928 70.5089 23.736C70.1889 23.5333 69.8209 23.432 69.4049 23.432C68.9889 23.432 68.6155 23.5333 68.2849 23.736C67.9649 23.928 67.7089 24.2107 67.5169 24.584C67.3249 24.9467 67.2289 25.384 67.2289 25.896V31H66.0289ZM83.5361 31.192C82.7148 31.192 81.9948 30.984 81.3761 30.568C80.7575 30.152 80.3095 29.5867 80.0321 28.872L81.0401 28.392C81.2855 28.9147 81.6268 29.3307 82.0641 29.64C82.5121 29.9493 83.0028 30.104 83.5361 30.104C84.0481 30.104 84.4801 29.9813 84.8321 29.736C85.1841 29.48 85.3601 29.1493 85.3601 28.744C85.3601 28.4453 85.2748 28.2107 85.1041 28.04C84.9335 27.8587 84.7361 27.72 84.5121 27.624C84.2881 27.528 84.0908 27.4587 83.9201 27.416L82.6881 27.064C81.8988 26.84 81.3281 26.5253 80.9761 26.12C80.6241 25.7147 80.4481 25.2453 80.4481 24.712C80.4481 24.2107 80.5761 23.7733 80.8321 23.4C81.0881 23.0267 81.4348 22.7387 81.8721 22.536C82.3095 22.3333 82.7948 22.232 83.3281 22.232C84.0535 22.232 84.7095 22.424 85.2961 22.808C85.8935 23.1813 86.3148 23.704 86.5601 24.376L85.5361 24.856C85.3228 24.376 85.0135 24.0027 84.6081 23.736C84.2135 23.4587 83.7708 23.32 83.2801 23.32C82.8001 23.32 82.4161 23.4427 82.1281 23.688C81.8401 23.9333 81.6961 24.2427 81.6961 24.616C81.6961 24.904 81.7708 25.1333 81.9201 25.304C82.0695 25.4747 82.2401 25.6027 82.4321 25.688C82.6348 25.7733 82.8108 25.8373 82.9601 25.88L84.3841 26.296C85.0775 26.4987 85.6161 26.8133 86.0001 27.24C86.3948 27.6667 86.5921 28.168 86.5921 28.744C86.5921 29.2133 86.4588 29.6347 86.1921 30.008C85.9361 30.3813 85.5788 30.6747 85.1201 30.888C84.6615 31.0907 84.1335 31.192 83.5361 31.192ZM93.5475 33.24C92.7048 32.28 92.0595 31.1973 91.6115 29.992C91.1742 28.7867 90.9555 27.5067 90.9555 26.152C90.9555 24.7867 91.1742 23.5067 91.6115 22.312C92.0595 21.1067 92.7048 20.0293 93.5475 19.08H94.5875C93.8195 20.1467 93.2328 21.2827 92.8275 22.488C92.4328 23.6933 92.2355 24.9147 92.2355 26.152C92.2355 27.3893 92.4328 28.6107 92.8275 29.816C93.2328 31.0213 93.8195 32.1627 94.5875 33.24H93.5475ZM99.7383 31.192C99.1196 31.192 98.5436 31.0853 98.0103 30.872C97.4876 30.6587 97.0289 30.3547 96.6343 29.96C96.2396 29.5653 95.9409 29.096 95.7383 28.552L96.7143 28.072C96.9596 28.6907 97.3596 29.1813 97.9143 29.544C98.4796 29.896 99.0876 30.072 99.7383 30.072C100.261 30.072 100.725 29.9493 101.13 29.704C101.546 29.4587 101.872 29.128 102.106 28.712C102.341 28.2853 102.458 27.8107 102.458 27.288C102.458 26.744 102.336 26.264 102.09 25.848C101.856 25.432 101.536 25.1067 101.13 24.872C100.725 24.6267 100.266 24.504 99.7543 24.504C99.2316 24.504 98.7463 24.6267 98.2983 24.872C97.8609 25.1067 97.5409 25.3947 97.3383 25.736L96.3303 25.544L97.2263 19.08H103.258V20.2H97.6903L98.1863 19.768L97.4663 24.856L96.9703 24.632C97.3436 24.1733 97.7809 23.848 98.2823 23.656C98.7836 23.4533 99.2956 23.352 99.8183 23.352C100.586 23.352 101.264 23.5333 101.85 23.896C102.437 24.248 102.896 24.7227 103.226 25.32C103.568 25.9067 103.738 26.5627 103.738 27.288C103.738 28.024 103.562 28.6907 103.21 29.288C102.869 29.8747 102.394 30.3387 101.786 30.68C101.189 31.0213 100.506 31.192 99.7383 31.192ZM107.662 31V20.2H105.422V19.08H108.942V31H107.662ZM111.631 31V30.2L114.959 26.536C115.61 25.8213 116.138 25.2293 116.543 24.76C116.959 24.2907 117.268 23.864 117.471 23.48C117.674 23.096 117.775 22.68 117.775 22.232C117.775 21.5173 117.567 20.968 117.151 20.584C116.735 20.2 116.18 20.008 115.487 20.008C114.772 20.008 114.17 20.2107 113.679 20.616C113.199 21.0213 112.874 21.5867 112.703 22.312L111.535 22.056C111.674 21.4053 111.924 20.8453 112.287 20.376C112.65 19.9067 113.103 19.544 113.647 19.288C114.191 19.0213 114.799 18.888 115.471 18.888C116.186 18.888 116.81 19.032 117.343 19.32C117.876 19.608 118.292 20.0027 118.591 20.504C118.9 21.0053 119.055 21.5813 119.055 22.232C119.055 22.68 118.959 23.112 118.767 23.528C118.586 23.944 118.308 24.392 117.935 24.872C117.562 25.352 117.082 25.912 116.495 26.552L113.471 29.88H119.375V31H111.631ZM125.129 31.192C124.51 31.192 123.934 31.0853 123.401 30.872C122.878 30.6587 122.42 30.3547 122.025 29.96C121.63 29.5653 121.332 29.096 121.129 28.552L122.105 28.072C122.35 28.6907 122.75 29.1813 123.305 29.544C123.87 29.896 124.478 30.072 125.129 30.072C125.652 30.072 126.116 29.9493 126.521 29.704C126.937 29.4587 127.262 29.128 127.497 28.712C127.732 28.2853 127.849 27.8107 127.849 27.288C127.849 26.744 127.726 26.264 127.481 25.848C127.246 25.432 126.926 25.1067 126.521 24.872C126.116 24.6267 125.657 24.504 125.145 24.504C124.622 24.504 124.137 24.6267 123.689 24.872C123.252 25.1067 122.932 25.3947 122.729 25.736L121.721 25.544L122.617 19.08H128.649V20.2H123.081L123.577 19.768L122.857 24.856L122.361 24.632C122.734 24.1733 123.172 23.848 123.673 23.656C124.174 23.4533 124.686 23.352 125.209 23.352C125.977 23.352 126.654 23.5333 127.241 23.896C127.828 24.248 128.286 24.7227 128.617 25.32C128.958 25.9067 129.129 26.5627 129.129 27.288C129.129 28.024 128.953 28.6907 128.601 29.288C128.26 29.8747 127.785 30.3387 127.177 30.68C126.58 31.0213 125.897 31.192 125.129 31.192ZM130.476 33.24C131.244 32.1627 131.826 31.0213 132.22 29.816C132.626 28.6107 132.828 27.3893 132.828 26.152C132.828 24.9147 132.626 23.6933 132.22 22.488C131.826 21.2827 131.244 20.1467 130.476 19.08H131.516C132.37 20.0293 133.015 21.1067 133.452 22.312C133.89 23.5067 134.108 24.7867 134.108 26.152C134.108 27.5067 133.89 28.7867 133.452 29.992C133.015 31.1973 132.37 32.28 131.516 33.24H130.476Z" fill="white"/>
</svg>
