<svg width="141" height="48" viewBox="0 0 141 48" fill="none" xmlns="http://www.w3.org/2000/svg">
<rect x="0.5" width="140" height="48" rx="24" fill="#E8E8E8"/>
<path d="M31.348 31.192C30.5053 31.192 29.732 31.0427 29.028 30.744C28.324 30.4347 27.7107 30.008 27.188 29.464C26.676 28.9093 26.276 28.2587 25.988 27.512C25.7 26.7653 25.556 25.944 25.556 25.048C25.556 24.152 25.7 23.3307 25.988 22.584C26.276 21.8373 26.676 21.1867 27.188 20.632C27.7107 20.0773 28.324 19.6507 29.028 19.352C29.732 19.0427 30.5053 18.888 31.348 18.888C32.1587 18.888 32.884 19.032 33.524 19.32C34.1747 19.608 34.7187 19.9813 35.156 20.44C35.604 20.888 35.924 21.3627 36.116 21.864L34.916 22.392C34.6173 21.6987 34.1587 21.144 33.54 20.728C32.932 20.3013 32.2013 20.088 31.348 20.088C30.4733 20.088 29.6947 20.296 29.012 20.712C28.3293 21.128 27.796 21.7093 27.412 22.456C27.028 23.192 26.836 24.056 26.836 25.048C26.836 26.0293 27.028 26.8933 27.412 27.64C27.796 28.3867 28.3293 28.968 29.012 29.384C29.6947 29.7893 30.4733 29.992 31.348 29.992C32.2013 29.992 32.932 29.784 33.54 29.368C34.1587 28.952 34.6173 28.3973 34.916 27.704L36.116 28.232C35.924 28.7227 35.604 29.1973 35.156 29.656C34.7187 30.104 34.1747 30.472 33.524 30.76C32.884 31.048 32.1587 31.192 31.348 31.192ZM40.5558 31.192C40.0118 31.192 39.5264 31.0907 39.0998 30.888C38.6731 30.6747 38.3371 30.3867 38.0918 30.024C37.8464 29.6613 37.7238 29.2453 37.7238 28.776C37.7238 28.328 37.8198 27.9227 38.0118 27.56C38.2038 27.1867 38.5024 26.872 38.9078 26.616C39.3131 26.36 39.8304 26.1787 40.4598 26.072L43.8198 25.512V26.6L40.7478 27.112C40.1291 27.2187 39.6811 27.416 39.4038 27.704C39.1371 27.992 39.0038 28.3333 39.0038 28.728C39.0038 29.112 39.1531 29.4373 39.4518 29.704C39.7611 29.9707 40.1558 30.104 40.6358 30.104C41.2224 30.104 41.7344 29.9813 42.1718 29.736C42.6091 29.48 42.9504 29.1387 43.1958 28.712C43.4411 28.2853 43.5638 27.8107 43.5638 27.288V25.112C43.5638 24.6 43.3771 24.184 43.0038 23.864C42.6304 23.544 42.1451 23.384 41.5477 23.384C41.0251 23.384 40.5664 23.5173 40.1718 23.784C39.7771 24.04 39.4838 24.376 39.2918 24.792L38.2038 24.2C38.3638 23.8373 38.6144 23.5067 38.9557 23.208C39.3078 22.9093 39.7078 22.6747 40.1558 22.504C40.6038 22.3227 41.0678 22.232 41.5477 22.232C42.1771 22.232 42.7318 22.3547 43.2118 22.6C43.7024 22.8453 44.0811 23.1867 44.3478 23.624C44.6251 24.0507 44.7638 24.5467 44.7638 25.112V31H43.5638V29.288L43.7398 29.464C43.5904 29.784 43.3558 30.0773 43.0358 30.344C42.7264 30.6 42.3584 30.808 41.9318 30.968C41.5158 31.1173 41.0571 31.192 40.5558 31.192ZM47.232 31V22.424H48.432V23.832L48.272 23.624C48.4747 23.2187 48.7787 22.8987 49.184 22.664C49.6 22.4293 50.1013 22.312 50.688 22.312H51.232V23.512H50.48C49.8613 23.512 49.3653 23.704 48.992 24.088C48.6187 24.472 48.432 25.016 48.432 25.72V31H47.232ZM55.6143 31.192C54.7929 31.192 54.0729 30.984 53.4543 30.568C52.8356 30.152 52.3876 29.5867 52.1103 28.872L53.1183 28.392C53.3636 28.9147 53.7049 29.3307 54.1423 29.64C54.5903 29.9493 55.0809 30.104 55.6143 30.104C56.1263 30.104 56.5583 29.9813 56.9103 29.736C57.2623 29.48 57.4383 29.1493 57.4383 28.744C57.4383 28.4453 57.3529 28.2107 57.1823 28.04C57.0116 27.8587 56.8143 27.72 56.5903 27.624C56.3663 27.528 56.1689 27.4587 55.9983 27.416L54.7663 27.064C53.9769 26.84 53.4063 26.5253 53.0543 26.12C52.7023 25.7147 52.5263 25.2453 52.5263 24.712C52.5263 24.2107 52.6543 23.7733 52.9103 23.4C53.1663 23.0267 53.5129 22.7387 53.9503 22.536C54.3876 22.3333 54.8729 22.232 55.4062 22.232C56.1316 22.232 56.7876 22.424 57.3743 22.808C57.9716 23.1813 58.3929 23.704 58.6383 24.376L57.6143 24.856C57.4009 24.376 57.0916 24.0027 56.6863 23.736C56.2916 23.4587 55.8489 23.32 55.3583 23.32C54.8783 23.32 54.4943 23.4427 54.2063 23.688C53.9183 23.9333 53.7743 24.2427 53.7743 24.616C53.7743 24.904 53.8489 25.1333 53.9983 25.304C54.1476 25.4747 54.3183 25.6027 54.5103 25.688C54.7129 25.7733 54.8889 25.8373 55.0383 25.88L56.4623 26.296C57.1556 26.4987 57.6943 26.8133 58.0783 27.24C58.4729 27.6667 58.6703 28.168 58.6703 28.744C58.6703 29.2133 58.5369 29.6347 58.2703 30.008C58.0143 30.3813 57.6569 30.6747 57.1983 30.888C56.7396 31.0907 56.2116 31.192 55.6143 31.192ZM66.4896 31.192C65.8496 31.192 65.279 31.0693 64.7776 30.824C64.2763 30.5787 63.8816 30.232 63.5936 29.784C63.3056 29.336 63.1616 28.8133 63.1616 28.216C63.1616 27.704 63.2576 27.2507 63.4496 26.856C63.6416 26.4613 63.8763 26.12 64.1536 25.832C64.4416 25.5333 64.7296 25.2827 65.0176 25.08C65.3163 24.8773 65.567 24.712 65.7696 24.584L66.6016 24.072C66.9003 23.8907 67.1936 23.688 67.4816 23.464C67.7803 23.2293 68.0256 22.9627 68.2176 22.664C68.4203 22.3547 68.5216 22.0133 68.5216 21.64C68.5216 21.192 68.3723 20.8187 68.0736 20.52C67.775 20.2213 67.4016 20.072 66.9536 20.072C66.495 20.072 66.1163 20.2213 65.8176 20.52C65.5296 20.8187 65.3856 21.1973 65.3856 21.656C65.3856 21.9547 65.455 22.248 65.5936 22.536C65.743 22.824 65.9243 23.1013 66.1376 23.368C66.3616 23.624 66.591 23.8747 66.8256 24.12L73.3856 31H71.6736L65.8176 24.952C65.5616 24.6853 65.3003 24.392 65.0336 24.072C64.7776 23.7413 64.559 23.384 64.3776 23C64.1963 22.6053 64.1056 22.1733 64.1056 21.704C64.1056 21.1493 64.2336 20.664 64.4896 20.248C64.7456 19.8213 65.087 19.4907 65.5136 19.256C65.951 19.0107 66.431 18.888 66.9536 18.888C67.4656 18.888 67.935 19.0053 68.3616 19.24C68.7883 19.4747 69.1296 19.8 69.3856 20.216C69.6416 20.632 69.7696 21.1067 69.7696 21.64C69.7696 22.2053 69.6363 22.7013 69.3696 23.128C69.1136 23.544 68.799 23.9013 68.4256 24.2C68.0523 24.4987 67.7056 24.7493 67.3856 24.952L66.5856 25.448C66.2976 25.6293 65.9936 25.848 65.6736 26.104C65.3536 26.3493 65.0816 26.6427 64.8576 26.984C64.6336 27.3147 64.5216 27.7147 64.5216 28.184C64.5216 28.76 64.7083 29.208 65.0816 29.528C65.455 29.848 65.935 30.008 66.5216 30.008C66.9056 30.008 67.247 29.944 67.5456 29.816C67.8443 29.688 68.111 29.5227 68.3456 29.32C68.5803 29.1067 68.7936 28.872 68.9856 28.616C69.1776 28.3493 69.359 28.088 69.5296 27.832L71.3696 25.096H72.8256L70.6816 28.36C70.511 28.6267 70.303 28.9253 70.0576 29.256C69.8123 29.576 69.5243 29.8853 69.1936 30.184C68.863 30.472 68.4736 30.712 68.0256 30.904C67.5883 31.096 67.0763 31.192 66.4896 31.192ZM82.1584 31.192C81.401 31.192 80.713 31.048 80.0944 30.76C79.4757 30.472 78.953 30.088 78.5264 29.608C78.0997 29.1173 77.7957 28.5787 77.6144 27.992L78.7664 27.56C79.0437 28.3707 79.4757 28.9893 80.0624 29.416C80.649 29.832 81.3477 30.04 82.1584 30.04C82.6704 30.04 83.1184 29.96 83.5024 29.8C83.897 29.6293 84.201 29.3947 84.4144 29.096C84.6277 28.7973 84.7344 28.4507 84.7344 28.056C84.7344 27.4693 84.5744 27.016 84.2544 26.696C83.9344 26.376 83.4757 26.1307 82.8784 25.96L80.7344 25.32C79.8917 25.0747 79.241 24.664 78.7824 24.088C78.3344 23.512 78.1104 22.856 78.1104 22.12C78.1104 21.4907 78.265 20.936 78.5744 20.456C78.8837 19.9653 79.305 19.5813 79.8384 19.304C80.3824 19.0267 80.9957 18.888 81.6784 18.888C82.393 18.888 83.033 19.0213 83.5984 19.288C84.1744 19.544 84.6597 19.8853 85.0544 20.312C85.449 20.7387 85.7317 21.2133 85.9024 21.736L84.7824 22.184C84.5264 21.48 84.1264 20.9467 83.5824 20.584C83.049 20.2213 82.4197 20.04 81.6944 20.04C81.2357 20.04 80.8304 20.12 80.4784 20.28C80.137 20.44 79.8704 20.6693 79.6784 20.968C79.4864 21.2667 79.3904 21.6187 79.3904 22.024C79.3904 22.5147 79.545 22.9573 79.8544 23.352C80.1637 23.736 80.6384 24.024 81.2784 24.216L83.1664 24.776C84.105 25.0533 84.8144 25.4533 85.2944 25.976C85.7744 26.4987 86.0144 27.1547 86.0144 27.944C86.0144 28.584 85.849 29.1493 85.5184 29.64C85.1984 30.12 84.745 30.4987 84.1584 30.776C83.5824 31.0533 82.9157 31.192 82.1584 31.192ZM92.6781 31.192C91.8355 31.192 91.0941 31.016 90.4541 30.664C89.8141 30.312 89.3181 29.832 88.9661 29.224C88.6141 28.6053 88.4381 27.9013 88.4381 27.112V19.08H89.7181V27.112C89.7181 27.688 89.8408 28.1947 90.0861 28.632C90.3421 29.0587 90.6888 29.3947 91.1261 29.64C91.5741 29.8747 92.0915 29.992 92.6781 29.992C93.2648 29.992 93.7768 29.8747 94.2141 29.64C94.6621 29.3947 95.0088 29.0587 95.2541 28.632C95.5101 28.1947 95.6381 27.688 95.6381 27.112V19.08H96.9181V27.112C96.9181 27.9013 96.7421 28.6053 96.3901 29.224C96.0381 29.832 95.5421 30.312 94.9021 30.664C94.2728 31.016 93.5315 31.192 92.6781 31.192ZM102.825 31L98.4573 19.08H99.7853L103.625 29.864H103.369L107.193 19.08H108.537L104.169 31H102.825ZM112.13 31.192C111.309 31.192 110.589 30.984 109.97 30.568C109.351 30.152 108.903 29.5867 108.626 28.872L109.634 28.392C109.879 28.9147 110.221 29.3307 110.658 29.64C111.106 29.9493 111.597 30.104 112.13 30.104C112.642 30.104 113.074 29.9813 113.426 29.736C113.778 29.48 113.954 29.1493 113.954 28.744C113.954 28.4453 113.869 28.2107 113.698 28.04C113.527 27.8587 113.33 27.72 113.106 27.624C112.882 27.528 112.685 27.4587 112.514 27.416L111.282 27.064C110.493 26.84 109.922 26.5253 109.57 26.12C109.218 25.7147 109.042 25.2453 109.042 24.712C109.042 24.2107 109.17 23.7733 109.426 23.4C109.682 23.0267 110.029 22.7387 110.466 22.536C110.903 22.3333 111.389 22.232 111.922 22.232C112.647 22.232 113.303 22.424 113.89 22.808C114.487 23.1813 114.909 23.704 115.154 24.376L114.13 24.856C113.917 24.376 113.607 24.0027 113.202 23.736C112.807 23.4587 112.365 23.32 111.874 23.32C111.394 23.32 111.01 23.4427 110.722 23.688C110.434 23.9333 110.29 24.2427 110.29 24.616C110.29 24.904 110.365 25.1333 110.514 25.304C110.663 25.4747 110.834 25.6027 111.026 25.688C111.229 25.7733 111.405 25.8373 111.554 25.88L112.978 26.296C113.671 26.4987 114.21 26.8133 114.594 27.24C114.989 27.6667 115.186 28.168 115.186 28.744C115.186 29.2133 115.053 29.6347 114.786 30.008C114.53 30.3813 114.173 30.6747 113.714 30.888C113.255 31.0907 112.727 31.192 112.13 31.192Z" fill="#494949"/>
</svg>
