<svg width="254" height="48" viewBox="0 0 254 48" fill="none" xmlns="http://www.w3.org/2000/svg">
<rect x="0.5" width="253" height="48" rx="24" fill="#E8E8E8"/>
<path d="M25.908 31V19.08H27.188V29.8H32.468V31H25.908ZM38.248 31.192C37.4373 31.192 36.7013 31 36.04 30.616C35.3787 30.2213 34.8507 29.688 34.456 29.016C34.072 28.3333 33.88 27.56 33.88 26.696C33.88 25.8427 34.072 25.08 34.456 24.408C34.84 23.736 35.3573 23.208 36.008 22.824C36.6693 22.4293 37.416 22.232 38.248 22.232C39.08 22.232 39.8213 22.424 40.472 22.808C41.1333 23.192 41.6507 23.72 42.024 24.392C42.408 25.064 42.6 25.832 42.6 26.696C42.6 27.5707 42.4027 28.3493 42.008 29.032C41.6133 29.704 41.0853 30.232 40.424 30.616C39.7733 31 39.048 31.192 38.248 31.192ZM38.248 29.992C38.824 29.992 39.3413 29.848 39.8 29.56C40.2693 29.272 40.6373 28.8773 40.904 28.376C41.1813 27.8747 41.32 27.3147 41.32 26.696C41.32 26.0773 41.1813 25.5227 40.904 25.032C40.6373 24.5413 40.2693 24.152 39.8 23.864C39.3413 23.576 38.824 23.432 38.248 23.432C37.672 23.432 37.1493 23.576 36.68 23.864C36.2213 24.152 35.8533 24.5413 35.576 25.032C35.2987 25.5227 35.16 26.0773 35.16 26.696C35.16 27.3147 35.2987 27.8747 35.576 28.376C35.8533 28.8773 36.2213 29.272 36.68 29.56C37.1493 29.848 37.672 29.992 38.248 29.992ZM44.7164 31V22.424H45.9164V23.832L45.7564 23.624C45.959 23.2187 46.263 22.8987 46.6684 22.664C47.0844 22.4293 47.5857 22.312 48.1724 22.312H48.7164V23.512H47.9644C47.3457 23.512 46.8497 23.704 46.4764 24.088C46.103 24.472 45.9164 25.016 45.9164 25.72V31H44.7164ZM50.1226 31V22.424H51.3226V23.832L51.1626 23.624C51.3653 23.2187 51.6693 22.8987 52.0746 22.664C52.4906 22.4293 52.992 22.312 53.5786 22.312H54.1226V23.512H53.3706C52.752 23.512 52.256 23.704 51.8826 24.088C51.5093 24.472 51.3226 25.016 51.3226 25.72V31H50.1226ZM55.5289 31V22.424H56.7289V31H55.5289ZM55.5289 20.84V19.08H56.7289V20.84H55.5289ZM63.0891 31.192C62.2891 31.192 61.5638 31 60.9131 30.616C60.2731 30.2213 59.7665 29.6827 59.3931 29C59.0198 28.3173 58.8331 27.544 58.8331 26.68C58.8331 25.816 59.0145 25.0533 59.3771 24.392C59.7398 23.72 60.2305 23.192 60.8491 22.808C61.4785 22.424 62.1825 22.232 62.9611 22.232C63.5798 22.232 64.1291 22.3493 64.6091 22.584C65.0998 22.808 65.5158 23.1173 65.8571 23.512C66.1985 23.896 66.4598 24.3333 66.6411 24.824C66.8225 25.304 66.9131 25.8 66.9131 26.312C66.9131 26.4187 66.9078 26.5413 66.8971 26.68C66.8865 26.808 66.8705 26.9413 66.8491 27.08H59.6011V25.96H66.1611L65.5851 26.44C65.6811 25.8533 65.6118 25.3307 65.3771 24.872C65.1531 24.4027 64.8278 24.0347 64.4011 23.768C63.9745 23.4907 63.4945 23.352 62.9611 23.352C62.4278 23.352 61.9318 23.4907 61.4731 23.768C61.0251 24.0453 60.6731 24.4347 60.4171 24.936C60.1611 25.4267 60.0598 26.0133 60.1131 26.696C60.0598 27.3787 60.1665 27.976 60.4331 28.488C60.7105 28.9893 61.0838 29.3787 61.5531 29.656C62.0331 29.9333 62.5451 30.072 63.0891 30.072C63.7185 30.072 64.2465 29.9227 64.6731 29.624C65.0998 29.3253 65.4465 28.952 65.7131 28.504L66.7371 29.048C66.5665 29.432 66.3051 29.7893 65.9531 30.12C65.6011 30.44 65.1798 30.7013 64.6891 30.904C64.2091 31.096 63.6758 31.192 63.0891 31.192ZM72.0049 31.192C71.1835 31.192 70.4635 30.984 69.8449 30.568C69.2262 30.152 68.7782 29.5867 68.5009 28.872L69.5089 28.392C69.7542 28.9147 70.0955 29.3307 70.5329 29.64C70.9809 29.9493 71.4715 30.104 72.0049 30.104C72.5169 30.104 72.9489 29.9813 73.3009 29.736C73.6529 29.48 73.8289 29.1493 73.8289 28.744C73.8289 28.4453 73.7435 28.2107 73.5729 28.04C73.4022 27.8587 73.2049 27.72 72.9809 27.624C72.7569 27.528 72.5595 27.4587 72.3889 27.416L71.1569 27.064C70.3675 26.84 69.7969 26.5253 69.4449 26.12C69.0929 25.7147 68.9169 25.2453 68.9169 24.712C68.9169 24.2107 69.0449 23.7733 69.3009 23.4C69.5569 23.0267 69.9035 22.7387 70.3409 22.536C70.7782 22.3333 71.2635 22.232 71.7969 22.232C72.5222 22.232 73.1782 22.424 73.7649 22.808C74.3622 23.1813 74.7835 23.704 75.0289 24.376L74.0049 24.856C73.7915 24.376 73.4822 24.0027 73.0769 23.736C72.6822 23.4587 72.2395 23.32 71.7489 23.32C71.2689 23.32 70.8849 23.4427 70.5969 23.688C70.3089 23.9333 70.1649 24.2427 70.1649 24.616C70.1649 24.904 70.2395 25.1333 70.3889 25.304C70.5382 25.4747 70.7089 25.6027 70.9009 25.688C71.1035 25.7733 71.2795 25.8373 71.4289 25.88L72.8529 26.296C73.5462 26.4987 74.0849 26.8133 74.4689 27.24C74.8635 27.6667 75.0609 28.168 75.0609 28.744C75.0609 29.2133 74.9275 29.6347 74.6609 30.008C74.4049 30.3813 74.0475 30.6747 73.5889 30.888C73.1302 31.0907 72.6022 31.192 72.0049 31.192ZM82.8802 31.192C82.2403 31.192 81.6696 31.0693 81.1683 30.824C80.6669 30.5787 80.2723 30.232 79.9843 29.784C79.6963 29.336 79.5523 28.8133 79.5523 28.216C79.5523 27.704 79.6483 27.2507 79.8403 26.856C80.0323 26.4613 80.2669 26.12 80.5443 25.832C80.8323 25.5333 81.1203 25.2827 81.4083 25.08C81.7069 24.8773 81.9576 24.712 82.1603 24.584L82.9923 24.072C83.2909 23.8907 83.5843 23.688 83.8723 23.464C84.1709 23.2293 84.4163 22.9627 84.6083 22.664C84.8109 22.3547 84.9123 22.0133 84.9123 21.64C84.9123 21.192 84.7629 20.8187 84.4643 20.52C84.1656 20.2213 83.7923 20.072 83.3443 20.072C82.8856 20.072 82.5069 20.2213 82.2083 20.52C81.9203 20.8187 81.7763 21.1973 81.7763 21.656C81.7763 21.9547 81.8456 22.248 81.9843 22.536C82.1336 22.824 82.3149 23.1013 82.5283 23.368C82.7523 23.624 82.9816 23.8747 83.2163 24.12L89.7763 31H88.0642L82.2083 24.952C81.9523 24.6853 81.6909 24.392 81.4243 24.072C81.1683 23.7413 80.9496 23.384 80.7682 23C80.5869 22.6053 80.4963 22.1733 80.4963 21.704C80.4963 21.1493 80.6243 20.664 80.8803 20.248C81.1363 19.8213 81.4776 19.4907 81.9043 19.256C82.3416 19.0107 82.8216 18.888 83.3443 18.888C83.8563 18.888 84.3256 19.0053 84.7523 19.24C85.1789 19.4747 85.5203 19.8 85.7763 20.216C86.0323 20.632 86.1603 21.1067 86.1603 21.64C86.1603 22.2053 86.0269 22.7013 85.7603 23.128C85.5043 23.544 85.1896 23.9013 84.8163 24.2C84.4429 24.4987 84.0963 24.7493 83.7763 24.952L82.9763 25.448C82.6883 25.6293 82.3843 25.848 82.0643 26.104C81.7443 26.3493 81.4723 26.6427 81.2483 26.984C81.0243 27.3147 80.9123 27.7147 80.9123 28.184C80.9123 28.76 81.0989 29.208 81.4723 29.528C81.8456 29.848 82.3256 30.008 82.9123 30.008C83.2963 30.008 83.6376 29.944 83.9363 29.816C84.2349 29.688 84.5016 29.5227 84.7363 29.32C84.9709 29.1067 85.1843 28.872 85.3763 28.616C85.5683 28.3493 85.7496 28.088 85.9203 27.832L87.7603 25.096H89.2163L87.0723 28.36C86.9016 28.6267 86.6936 28.9253 86.4483 29.256C86.2029 29.576 85.9149 29.8853 85.5843 30.184C85.2536 30.472 84.8643 30.712 84.4163 30.904C83.9789 31.096 83.4669 31.192 82.8802 31.192ZM94.533 31V19.08H95.813V31H94.533ZM98.4508 31V22.424H99.6508V24.088L99.3788 24.024C99.5921 23.4693 99.9388 23.032 100.419 22.712C100.909 22.392 101.475 22.232 102.115 22.232C102.723 22.232 103.267 22.3707 103.747 22.648C104.237 22.9253 104.621 23.3093 104.899 23.8C105.187 24.28 105.331 24.824 105.331 25.432V31H104.131V25.896C104.131 25.3733 104.035 24.9307 103.843 24.568C103.661 24.2053 103.4 23.928 103.059 23.736C102.728 23.5333 102.344 23.432 101.907 23.432C101.469 23.432 101.08 23.5333 100.739 23.736C100.397 23.928 100.131 24.2107 99.9388 24.584C99.7468 24.9467 99.6508 25.384 99.6508 25.896V31H98.4508ZM111.495 31.192C110.695 31.192 109.975 31 109.335 30.616C108.695 30.2213 108.188 29.688 107.815 29.016C107.452 28.3333 107.271 27.5653 107.271 26.712C107.271 25.848 107.452 25.08 107.815 24.408C108.188 23.736 108.689 23.208 109.319 22.824C109.959 22.4293 110.684 22.232 111.495 22.232C112.231 22.232 112.887 22.392 113.463 22.712C114.039 23.032 114.492 23.464 114.823 24.008L114.631 24.344V18.888H115.831V31H114.631V29.08L114.823 29.256C114.524 29.8747 114.076 30.3547 113.479 30.696C112.892 31.0267 112.231 31.192 111.495 31.192ZM111.559 29.992C112.135 29.992 112.652 29.848 113.111 29.56C113.58 29.272 113.948 28.8827 114.215 28.392C114.492 27.8907 114.631 27.3307 114.631 26.712C114.631 26.0933 114.492 25.5387 114.215 25.048C113.948 24.5467 113.58 24.152 113.111 23.864C112.652 23.576 112.135 23.432 111.559 23.432C110.993 23.432 110.481 23.576 110.023 23.864C109.564 24.152 109.201 24.5413 108.935 25.032C108.679 25.5227 108.551 26.0827 108.551 26.712C108.551 27.3307 108.679 27.8907 108.935 28.392C109.201 28.8827 109.559 29.272 110.007 29.56C110.465 29.848 110.983 29.992 111.559 29.992ZM121.335 31.192C120.737 31.192 120.193 31.0533 119.703 30.776C119.212 30.488 118.823 30.0933 118.535 29.592C118.257 29.08 118.118 28.4933 118.118 27.832V22.424H119.319V27.688C119.319 28.1467 119.409 28.552 119.591 28.904C119.783 29.2453 120.044 29.512 120.375 29.704C120.716 29.896 121.105 29.992 121.543 29.992C121.98 29.992 122.369 29.896 122.711 29.704C123.052 29.5013 123.319 29.2187 123.511 28.856C123.703 28.4827 123.799 28.04 123.799 27.528V22.424H124.999V31H123.799V29.336L124.071 29.4C123.868 29.9547 123.521 30.392 123.031 30.712C122.54 31.032 121.975 31.192 121.335 31.192ZM130.442 31.192C129.621 31.192 128.901 30.984 128.282 30.568C127.664 30.152 127.216 29.5867 126.938 28.872L127.946 28.392C128.192 28.9147 128.533 29.3307 128.97 29.64C129.418 29.9493 129.909 30.104 130.442 30.104C130.954 30.104 131.386 29.9813 131.738 29.736C132.09 29.48 132.266 29.1493 132.266 28.744C132.266 28.4453 132.181 28.2107 132.01 28.04C131.84 27.8587 131.642 27.72 131.418 27.624C131.194 27.528 130.997 27.4587 130.826 27.416L129.594 27.064C128.805 26.84 128.234 26.5253 127.882 26.12C127.53 25.7147 127.354 25.2453 127.354 24.712C127.354 24.2107 127.482 23.7733 127.738 23.4C127.994 23.0267 128.341 22.7387 128.778 22.536C129.216 22.3333 129.701 22.232 130.234 22.232C130.96 22.232 131.616 22.424 132.202 22.808C132.8 23.1813 133.221 23.704 133.466 24.376L132.442 24.856C132.229 24.376 131.92 24.0027 131.514 23.736C131.12 23.4587 130.677 23.32 130.186 23.32C129.706 23.32 129.322 23.4427 129.034 23.688C128.746 23.9333 128.602 24.2427 128.602 24.616C128.602 24.904 128.677 25.1333 128.826 25.304C128.976 25.4747 129.146 25.6027 129.338 25.688C129.541 25.7733 129.717 25.8373 129.866 25.88L131.29 26.296C131.984 26.4987 132.522 26.8133 132.906 27.24C133.301 27.6667 133.498 28.168 133.498 28.744C133.498 29.2133 133.365 29.6347 133.098 30.008C132.842 30.3813 132.485 30.6747 132.026 30.888C131.568 31.0907 131.04 31.192 130.442 31.192ZM138.887 31.096C138.119 31.096 137.527 30.872 137.111 30.424C136.695 29.976 136.487 29.336 136.487 28.504V23.624H134.903V22.424H135.303C135.666 22.424 135.954 22.3067 136.167 22.072C136.38 21.8267 136.487 21.5227 136.487 21.16V20.44H137.687V22.424H139.575V23.624H137.687V28.504C137.687 28.792 137.73 29.048 137.815 29.272C137.9 29.4853 138.044 29.656 138.247 29.784C138.46 29.912 138.743 29.976 139.095 29.976C139.18 29.976 139.282 29.9707 139.399 29.96C139.516 29.9493 139.618 29.9387 139.703 29.928V31C139.575 31.032 139.431 31.0533 139.271 31.064C139.111 31.0853 138.983 31.096 138.887 31.096ZM141.81 31V22.424H143.01V23.832L142.85 23.624C143.053 23.2187 143.357 22.8987 143.762 22.664C144.178 22.4293 144.679 22.312 145.266 22.312H145.81V23.512H145.058C144.439 23.512 143.943 23.704 143.57 24.088C143.197 24.472 143.01 25.016 143.01 25.72V31H141.81ZM147.216 31V22.424H148.416V31H147.216ZM147.216 20.84V19.08H148.416V20.84H147.216ZM153.353 31.192C152.809 31.192 152.323 31.0907 151.897 30.888C151.47 30.6747 151.134 30.3867 150.889 30.024C150.643 29.6613 150.521 29.2453 150.521 28.776C150.521 28.328 150.617 27.9227 150.809 27.56C151.001 27.1867 151.299 26.872 151.705 26.616C152.11 26.36 152.627 26.1787 153.257 26.072L156.617 25.512V26.6L153.545 27.112C152.926 27.2187 152.478 27.416 152.201 27.704C151.934 27.992 151.801 28.3333 151.801 28.728C151.801 29.112 151.95 29.4373 152.249 29.704C152.558 29.9707 152.953 30.104 153.433 30.104C154.019 30.104 154.531 29.9813 154.969 29.736C155.406 29.48 155.747 29.1387 155.993 28.712C156.238 28.2853 156.361 27.8107 156.361 27.288V25.112C156.361 24.6 156.174 24.184 155.801 23.864C155.427 23.544 154.942 23.384 154.345 23.384C153.822 23.384 153.363 23.5173 152.969 23.784C152.574 24.04 152.281 24.376 152.089 24.792L151.001 24.2C151.161 23.8373 151.411 23.5067 151.753 23.208C152.105 22.9093 152.505 22.6747 152.953 22.504C153.401 22.3227 153.865 22.232 154.345 22.232C154.974 22.232 155.529 22.3547 156.009 22.6C156.499 22.8453 156.878 23.1867 157.145 23.624C157.422 24.0507 157.561 24.5467 157.561 25.112V31H156.361V29.288L156.537 29.464C156.387 29.784 156.153 30.0773 155.833 30.344C155.523 30.6 155.155 30.808 154.729 30.968C154.313 31.1173 153.854 31.192 153.353 31.192ZM160.029 31V18.888H161.229V31H160.029ZM169.716 31L165.348 19.08H166.676L170.516 29.864H170.26L174.084 19.08H175.428L171.06 31H169.716ZM179.949 31.192C179.149 31.192 178.423 31 177.773 30.616C177.133 30.2213 176.626 29.6827 176.253 29C175.879 28.3173 175.693 27.544 175.693 26.68C175.693 25.816 175.874 25.0533 176.237 24.392C176.599 23.72 177.09 23.192 177.709 22.808C178.338 22.424 179.042 22.232 179.821 22.232C180.439 22.232 180.989 22.3493 181.469 22.584C181.959 22.808 182.375 23.1173 182.717 23.512C183.058 23.896 183.319 24.3333 183.501 24.824C183.682 25.304 183.773 25.8 183.773 26.312C183.773 26.4187 183.767 26.5413 183.757 26.68C183.746 26.808 183.73 26.9413 183.709 27.08H176.461V25.96H183.021L182.445 26.44C182.541 25.8533 182.471 25.3307 182.237 24.872C182.013 24.4027 181.687 24.0347 181.261 23.768C180.834 23.4907 180.354 23.352 179.821 23.352C179.287 23.352 178.791 23.4907 178.333 23.768C177.885 24.0453 177.533 24.4347 177.277 24.936C177.021 25.4267 176.919 26.0133 176.973 26.696C176.919 27.3787 177.026 27.976 177.293 28.488C177.57 28.9893 177.943 29.3787 178.413 29.656C178.893 29.9333 179.405 30.072 179.949 30.072C180.578 30.072 181.106 29.9227 181.533 29.624C181.959 29.3253 182.306 28.952 182.573 28.504L183.597 29.048C183.426 29.432 183.165 29.7893 182.812 30.12C182.461 30.44 182.039 30.7013 181.549 30.904C181.069 31.096 180.535 31.192 179.949 31.192ZM185.888 31V18.888H187.088V24.088L186.816 24.024C187.03 23.4693 187.376 23.032 187.856 22.712C188.347 22.392 188.912 22.232 189.552 22.232C190.16 22.232 190.704 22.3707 191.184 22.648C191.675 22.9253 192.059 23.3093 192.336 23.8C192.624 24.28 192.768 24.824 192.768 25.432V31H191.568V25.896C191.568 25.3733 191.472 24.9307 191.28 24.568C191.088 24.2053 190.822 23.928 190.48 23.736C190.15 23.5333 189.771 23.432 189.344 23.432C188.918 23.432 188.534 23.5333 188.192 23.736C187.851 23.928 187.579 24.2107 187.376 24.584C187.184 24.9467 187.088 25.384 187.088 25.896V31H185.888ZM195.06 31V22.424H196.26V31H195.06ZM195.06 20.84V19.08H196.26V20.84H195.06ZM202.636 31.192C201.794 31.192 201.052 30.9947 200.412 30.6C199.772 30.2053 199.271 29.672 198.908 29C198.546 28.3173 198.364 27.5493 198.364 26.696C198.364 25.8427 198.546 25.08 198.908 24.408C199.271 23.736 199.772 23.208 200.412 22.824C201.052 22.4293 201.794 22.232 202.636 22.232C203.17 22.232 203.671 22.328 204.14 22.52C204.61 22.712 205.026 22.9733 205.388 23.304C205.751 23.624 206.023 23.9973 206.204 24.424L205.116 24.984C204.903 24.5253 204.578 24.152 204.14 23.864C203.703 23.576 203.202 23.432 202.636 23.432C202.071 23.432 201.559 23.576 201.1 23.864C200.652 24.1413 200.295 24.5307 200.028 25.032C199.772 25.5227 199.644 26.0827 199.644 26.712C199.644 27.3307 199.772 27.8907 200.028 28.392C200.295 28.8827 200.652 29.272 201.1 29.56C201.559 29.848 202.071 29.992 202.636 29.992C203.202 29.992 203.698 29.848 204.124 29.56C204.562 29.272 204.892 28.888 205.116 28.408L206.204 29C206.023 29.416 205.751 29.7893 205.388 30.12C205.026 30.4507 204.61 30.712 204.14 30.904C203.671 31.096 203.17 31.192 202.636 31.192ZM208.31 31V18.888H209.51V31H208.31ZM215.87 31.192C215.07 31.192 214.345 31 213.694 30.616C213.054 30.2213 212.548 29.6827 212.174 29C211.801 28.3173 211.614 27.544 211.614 26.68C211.614 25.816 211.796 25.0533 212.158 24.392C212.521 23.72 213.012 23.192 213.63 22.808C214.26 22.424 214.964 22.232 215.742 22.232C216.361 22.232 216.91 22.3493 217.39 22.584C217.881 22.808 218.297 23.1173 218.638 23.512C218.98 23.896 219.241 24.3333 219.422 24.824C219.604 25.304 219.694 25.8 219.694 26.312C219.694 26.4187 219.689 26.5413 219.678 26.68C219.668 26.808 219.652 26.9413 219.63 27.08H212.382V25.96H218.942L218.366 26.44C218.462 25.8533 218.393 25.3307 218.158 24.872C217.934 24.4027 217.609 24.0347 217.182 23.768C216.756 23.4907 216.276 23.352 215.742 23.352C215.209 23.352 214.713 23.4907 214.254 23.768C213.806 24.0453 213.454 24.4347 213.198 24.936C212.942 25.4267 212.841 26.0133 212.894 26.696C212.841 27.3787 212.948 27.976 213.214 28.488C213.492 28.9893 213.865 29.3787 214.334 29.656C214.814 29.9333 215.326 30.072 215.87 30.072C216.5 30.072 217.028 29.9227 217.454 29.624C217.881 29.3253 218.228 28.952 218.494 28.504L219.518 29.048C219.348 29.432 219.086 29.7893 218.734 30.12C218.382 30.44 217.961 30.7013 217.47 30.904C216.99 31.096 216.457 31.192 215.87 31.192ZM224.786 31.192C223.965 31.192 223.245 30.984 222.626 30.568C222.007 30.152 221.559 29.5867 221.282 28.872L222.29 28.392C222.535 28.9147 222.877 29.3307 223.314 29.64C223.762 29.9493 224.253 30.104 224.786 30.104C225.298 30.104 225.73 29.9813 226.082 29.736C226.434 29.48 226.61 29.1493 226.61 28.744C226.61 28.4453 226.525 28.2107 226.354 28.04C226.183 27.8587 225.986 27.72 225.762 27.624C225.538 27.528 225.341 27.4587 225.17 27.416L223.938 27.064C223.149 26.84 222.578 26.5253 222.226 26.12C221.874 25.7147 221.698 25.2453 221.698 24.712C221.698 24.2107 221.826 23.7733 222.082 23.4C222.338 23.0267 222.685 22.7387 223.122 22.536C223.559 22.3333 224.045 22.232 224.578 22.232C225.303 22.232 225.959 22.424 226.546 22.808C227.143 23.1813 227.565 23.704 227.81 24.376L226.786 24.856C226.573 24.376 226.263 24.0027 225.858 23.736C225.463 23.4587 225.021 23.32 224.53 23.32C224.05 23.32 223.666 23.4427 223.378 23.688C223.09 23.9333 222.946 24.2427 222.946 24.616C222.946 24.904 223.021 25.1333 223.17 25.304C223.319 25.4747 223.49 25.6027 223.682 25.688C223.885 25.7733 224.061 25.8373 224.21 25.88L225.634 26.296C226.327 26.4987 226.866 26.8133 227.25 27.24C227.645 27.6667 227.842 28.168 227.842 28.744C227.842 29.2133 227.709 29.6347 227.442 30.008C227.186 30.3813 226.829 30.6747 226.37 30.888C225.911 31.0907 225.383 31.192 224.786 31.192Z" fill="#494949"/>
</svg>
