<svg width="109" height="37" viewBox="0 0 109 37" fill="none" xmlns="http://www.w3.org/2000/svg">
<rect x="0.5" width="108" height="37" rx="18.5" fill="#77B747"/>
<path d="M27.662 24V13.57H34.27V14.83H29.034V18.204H33.78V19.464H29.034V24H27.662ZM39.0217 24.168C38.2937 24.168 37.6357 24 37.0477 23.664C36.4597 23.3187 35.993 22.8473 35.6477 22.25C35.3024 21.6527 35.1297 20.976 35.1297 20.22C35.1297 19.464 35.2977 18.792 35.6337 18.204C35.979 17.616 36.4457 17.1493 37.0337 16.804C37.6217 16.4587 38.2844 16.286 39.0217 16.286C39.7497 16.286 40.4077 16.4587 40.9957 16.804C41.5837 17.14 42.0457 17.602 42.3817 18.19C42.727 18.778 42.8997 19.4547 42.8997 20.22C42.8997 20.9853 42.7224 21.6667 42.3677 22.264C42.013 22.852 41.5417 23.3187 40.9537 23.664C40.375 24 39.731 24.168 39.0217 24.168ZM39.0217 22.908C39.4884 22.908 39.9084 22.7913 40.2817 22.558C40.6644 22.3247 40.963 22.0027 41.1777 21.592C41.4017 21.1813 41.5137 20.724 41.5137 20.22C41.5137 19.7067 41.4017 19.254 41.1777 18.862C40.963 18.4607 40.6644 18.1433 40.2817 17.91C39.9084 17.6673 39.4884 17.546 39.0217 17.546C38.5457 17.546 38.1164 17.6673 37.7337 17.91C37.3604 18.1433 37.0617 18.4607 36.8377 18.862C36.6137 19.254 36.5017 19.7067 36.5017 20.22C36.5017 20.724 36.6137 21.1813 36.8377 21.592C37.0617 22.0027 37.3604 22.3247 37.7337 22.558C38.1164 22.7913 38.5457 22.908 39.0217 22.908ZM44.5978 24V16.454H45.8718V17.84L45.7318 17.644C45.9092 17.2147 46.1798 16.8973 46.5438 16.692C46.9078 16.4773 47.3512 16.37 47.8738 16.37H48.3358V17.602H47.6778C47.1458 17.602 46.7165 17.77 46.3898 18.106C46.0632 18.4327 45.8998 18.8993 45.8998 19.506V24H44.5978ZM52.0663 24V13.57H55.7483C56.439 13.57 57.0456 13.7007 57.5683 13.962C58.091 14.2233 58.497 14.5967 58.7863 15.082C59.085 15.5673 59.2343 16.1367 59.2343 16.79C59.2343 17.5273 59.0476 18.1527 58.6743 18.666C58.301 19.1793 57.797 19.548 57.1623 19.772L59.5843 24H57.9883L55.4403 19.478L56.3503 20.01H53.4383V24H52.0663ZM53.4383 18.75H55.7903C56.201 18.75 56.5603 18.6707 56.8683 18.512C57.1763 18.3533 57.4143 18.1247 57.5823 17.826C57.7596 17.5273 57.8483 17.182 57.8483 16.79C57.8483 16.3887 57.7596 16.0433 57.5823 15.754C57.4143 15.4553 57.1763 15.2267 56.8683 15.068C56.5603 14.9093 56.201 14.83 55.7903 14.83H53.4383V18.75ZM64.0386 24.168C63.3106 24.168 62.6619 23.9953 62.0926 23.65C61.5233 23.3047 61.0753 22.8333 60.7486 22.236C60.4219 21.6293 60.2586 20.9527 60.2586 20.206C60.2586 19.45 60.4173 18.778 60.7346 18.19C61.0613 17.602 61.4999 17.14 62.0506 16.804C62.6106 16.4587 63.2359 16.286 63.9266 16.286C64.4866 16.286 64.9813 16.3887 65.4106 16.594C65.8493 16.79 66.2179 17.0607 66.5166 17.406C66.8246 17.742 67.0579 18.1293 67.2166 18.568C67.3846 18.9973 67.4686 19.4453 67.4686 19.912C67.4686 20.0147 67.4593 20.1313 67.4406 20.262C67.4313 20.3833 67.4173 20.5 67.3986 20.612H61.2106V19.492H66.6426L66.0266 19.996C66.1106 19.5107 66.0639 19.0767 65.8866 18.694C65.7093 18.3113 65.4479 18.008 65.1026 17.784C64.7573 17.56 64.3653 17.448 63.9266 17.448C63.4879 17.448 63.0866 17.56 62.7226 17.784C62.3586 18.008 62.0739 18.33 61.8686 18.75C61.6726 19.1607 61.5933 19.6507 61.6306 20.22C61.5933 20.7707 61.6773 21.256 61.8826 21.676C62.0973 22.0867 62.3959 22.4087 62.7786 22.642C63.1706 22.866 63.5953 22.978 64.0526 22.978C64.5566 22.978 64.9813 22.8613 65.3266 22.628C65.6719 22.3947 65.9519 22.096 66.1666 21.732L67.2586 22.292C67.1093 22.6373 66.8759 22.9547 66.5586 23.244C66.2506 23.524 65.8819 23.748 65.4526 23.916C65.0326 24.084 64.5613 24.168 64.0386 24.168ZM69.1662 24V16.454H70.4402V17.924L70.2302 17.798C70.4169 17.322 70.7155 16.9533 71.1262 16.692C71.5462 16.4213 72.0362 16.286 72.5962 16.286C73.1375 16.286 73.6182 16.4073 74.0382 16.65C74.4675 16.8927 74.8035 17.2287 75.0462 17.658C75.2982 18.0873 75.4242 18.5727 75.4242 19.114V24H74.1082V19.534C74.1082 19.114 74.0335 18.7593 73.8842 18.47C73.7349 18.1807 73.5202 17.9567 73.2402 17.798C72.9695 17.63 72.6569 17.546 72.3022 17.546C71.9475 17.546 71.6302 17.63 71.3502 17.798C71.0795 17.9567 70.8649 18.1853 70.7062 18.484C70.5475 18.7733 70.4682 19.1233 70.4682 19.534V24H69.1662ZM80.3533 24.084C79.616 24.084 79.0466 23.874 78.6453 23.454C78.2533 23.034 78.0573 22.4413 78.0573 21.676V17.7H76.6853V16.454H76.9653C77.3013 16.454 77.5673 16.3513 77.7633 16.146C77.9593 15.9407 78.0573 15.67 78.0573 15.334V14.718H79.3593V16.454H81.0533V17.7H79.3593V21.634C79.3593 21.886 79.3966 22.1053 79.4713 22.292C79.5553 22.4787 79.6906 22.628 79.8773 22.74C80.064 22.8427 80.3113 22.894 80.6193 22.894C80.6846 22.894 80.764 22.8893 80.8573 22.88C80.96 22.8707 81.0533 22.8613 81.1373 22.852V24C81.016 24.028 80.8806 24.0467 80.7313 24.056C80.582 24.0747 80.456 24.084 80.3533 24.084Z" fill="white"/>
</svg>
