<svg width="381" height="244" viewBox="0 0 381 244" fill="none" xmlns="http://www.w3.org/2000/svg">
<rect width="381" height="244" rx="16" fill="#1C1C1C"/>
<path d="M162.13 120.48C160.503 120.48 158.957 120.187 157.49 119.6C156.05 118.987 154.81 118.133 153.77 117.04C152.757 115.92 152.063 114.6 151.69 113.08L156.45 111.4C156.93 112.76 157.663 113.8 158.65 114.52C159.637 115.213 160.797 115.56 162.13 115.56C163.197 115.56 164.117 115.36 164.89 114.96C165.69 114.56 166.317 113.987 166.77 113.24C167.223 112.467 167.45 111.56 167.45 110.52C167.45 109.48 167.223 108.6 166.77 107.88C166.343 107.133 165.73 106.56 164.93 106.16C164.13 105.76 163.183 105.56 162.09 105.56C161.583 105.56 161.05 105.613 160.49 105.72C159.957 105.827 159.477 105.987 159.05 106.2L157.81 103.6L165.53 94.8H153.37V90.2H171.65V94.48L163.89 103.56L163.97 101.52C165.757 101.547 167.317 101.933 168.65 102.68C169.983 103.427 171.023 104.453 171.77 105.76C172.517 107.067 172.89 108.6 172.89 110.36C172.89 112.28 172.423 114.013 171.49 115.56C170.557 117.08 169.277 118.28 167.65 119.16C166.023 120.04 164.183 120.48 162.13 120.48ZM189.023 120.48C186.65 120.48 184.57 119.84 182.783 118.56C180.997 117.28 179.597 115.48 178.583 113.16C177.597 110.84 177.103 108.147 177.103 105.08C177.103 101.987 177.597 99.2933 178.583 97C179.57 94.7067 180.957 92.92 182.743 91.64C184.53 90.36 186.61 89.72 188.983 89.72C191.41 89.72 193.503 90.36 195.263 91.64C197.05 92.92 198.45 94.72 199.463 97.04C200.477 99.3333 200.983 102.013 200.983 105.08C200.983 108.147 200.477 110.84 199.463 113.16C198.477 115.453 197.09 117.253 195.303 118.56C193.517 119.84 191.423 120.48 189.023 120.48ZM189.063 115.52C190.423 115.52 191.583 115.107 192.543 114.28C193.503 113.427 194.237 112.227 194.743 110.68C195.277 109.107 195.543 107.24 195.543 105.08C195.543 102.92 195.277 101.067 194.743 99.52C194.237 97.9467 193.49 96.7467 192.503 95.92C191.543 95.0933 190.37 94.68 188.983 94.68C187.65 94.68 186.503 95.0933 185.543 95.92C184.583 96.7467 183.837 97.9467 183.303 99.52C182.797 101.067 182.543 102.92 182.543 105.08C182.543 107.213 182.797 109.067 183.303 110.64C183.837 112.187 184.583 113.387 185.543 114.24C186.53 115.093 187.703 115.52 189.063 115.52ZM214.144 120V112.24H206.384V107.72H214.144V100H218.664V107.72H226.384V112.24H218.664V120H214.144Z" fill="white"/>
<path d="M120.692 155L125.044 143.08H126.42L130.772 155H129.428L128.404 152.088H123.076L122.036 155H120.692ZM123.492 150.888H127.956L125.54 144.04H125.924L123.492 150.888ZM132.185 155V146.424H133.385V147.832L133.225 147.624C133.428 147.219 133.732 146.899 134.137 146.664C134.553 146.429 135.054 146.312 135.641 146.312H136.185V147.512H135.433C134.814 147.512 134.318 147.704 133.945 148.088C133.572 148.472 133.385 149.016 133.385 149.72V155H132.185ZM140.871 155.096C140.103 155.096 139.511 154.872 139.095 154.424C138.679 153.976 138.471 153.336 138.471 152.504V147.624H136.887V146.424H137.287C137.65 146.424 137.938 146.307 138.151 146.072C138.365 145.827 138.471 145.523 138.471 145.16V144.44H139.671V146.424H141.559V147.624H139.671V152.504C139.671 152.792 139.714 153.048 139.799 153.272C139.885 153.485 140.029 153.656 140.231 153.784C140.445 153.912 140.727 153.976 141.079 153.976C141.165 153.976 141.266 153.971 141.383 153.96C141.501 153.949 141.602 153.939 141.687 153.928V155C141.559 155.032 141.415 155.053 141.255 155.064C141.095 155.085 140.967 155.096 140.871 155.096ZM143.795 155V146.424H144.995V155H143.795ZM143.795 144.84V143.08H144.995V144.84H143.795ZM151.371 155.192C150.528 155.192 149.787 154.995 149.147 154.6C148.507 154.205 148.005 153.672 147.643 153C147.28 152.317 147.099 151.549 147.099 150.696C147.099 149.843 147.28 149.08 147.643 148.408C148.005 147.736 148.507 147.208 149.147 146.824C149.787 146.429 150.528 146.232 151.371 146.232C151.904 146.232 152.405 146.328 152.875 146.52C153.344 146.712 153.76 146.973 154.123 147.304C154.485 147.624 154.757 147.997 154.939 148.424L153.851 148.984C153.637 148.525 153.312 148.152 152.875 147.864C152.437 147.576 151.936 147.432 151.371 147.432C150.805 147.432 150.293 147.576 149.835 147.864C149.387 148.141 149.029 148.531 148.763 149.032C148.507 149.523 148.379 150.083 148.379 150.712C148.379 151.331 148.507 151.891 148.763 152.392C149.029 152.883 149.387 153.272 149.835 153.56C150.293 153.848 150.805 153.992 151.371 153.992C151.936 153.992 152.432 153.848 152.859 153.56C153.296 153.272 153.627 152.888 153.851 152.408L154.939 153C154.757 153.416 154.485 153.789 154.123 154.12C153.76 154.451 153.344 154.712 152.875 154.904C152.405 155.096 151.904 155.192 151.371 155.192ZM157.045 155V142.888H158.245V155H157.045ZM164.605 155.192C163.805 155.192 163.079 155 162.429 154.616C161.789 154.221 161.282 153.683 160.909 153C160.535 152.317 160.349 151.544 160.349 150.68C160.349 149.816 160.53 149.053 160.893 148.392C161.255 147.72 161.746 147.192 162.365 146.808C162.994 146.424 163.698 146.232 164.477 146.232C165.095 146.232 165.645 146.349 166.125 146.584C166.615 146.808 167.031 147.117 167.373 147.512C167.714 147.896 167.975 148.333 168.157 148.824C168.338 149.304 168.429 149.8 168.429 150.312C168.429 150.419 168.423 150.541 168.413 150.68C168.402 150.808 168.386 150.941 168.365 151.08H161.117V149.96H167.677L167.101 150.44C167.197 149.853 167.127 149.331 166.893 148.872C166.669 148.403 166.343 148.035 165.917 147.768C165.49 147.491 165.01 147.352 164.477 147.352C163.943 147.352 163.447 147.491 162.989 147.768C162.541 148.045 162.189 148.435 161.933 148.936C161.677 149.427 161.575 150.013 161.629 150.696C161.575 151.379 161.682 151.976 161.949 152.488C162.226 152.989 162.599 153.379 163.069 153.656C163.549 153.933 164.061 154.072 164.605 154.072C165.234 154.072 165.762 153.923 166.189 153.624C166.615 153.325 166.962 152.952 167.229 152.504L168.253 153.048C168.082 153.432 167.821 153.789 167.469 154.12C167.117 154.44 166.695 154.701 166.205 154.904C165.725 155.096 165.191 155.192 164.605 155.192ZM173.521 155.192C172.699 155.192 171.979 154.984 171.361 154.568C170.742 154.152 170.294 153.587 170.017 152.872L171.025 152.392C171.27 152.915 171.611 153.331 172.049 153.64C172.497 153.949 172.987 154.104 173.521 154.104C174.033 154.104 174.465 153.981 174.817 153.736C175.169 153.48 175.345 153.149 175.345 152.744C175.345 152.445 175.259 152.211 175.089 152.04C174.918 151.859 174.721 151.72 174.497 151.624C174.273 151.528 174.075 151.459 173.905 151.416L172.673 151.064C171.883 150.84 171.313 150.525 170.961 150.12C170.609 149.715 170.433 149.245 170.433 148.712C170.433 148.211 170.561 147.773 170.817 147.4C171.073 147.027 171.419 146.739 171.857 146.536C172.294 146.333 172.779 146.232 173.312 146.232C174.038 146.232 174.694 146.424 175.281 146.808C175.878 147.181 176.299 147.704 176.545 148.376L175.521 148.856C175.307 148.376 174.998 148.003 174.593 147.736C174.198 147.459 173.755 147.32 173.265 147.32C172.785 147.32 172.401 147.443 172.113 147.688C171.825 147.933 171.681 148.243 171.681 148.616C171.681 148.904 171.755 149.133 171.905 149.304C172.054 149.475 172.225 149.603 172.417 149.688C172.619 149.773 172.795 149.837 172.945 149.88L174.369 150.296C175.062 150.499 175.601 150.813 175.985 151.24C176.379 151.667 176.577 152.168 176.577 152.744C176.577 153.213 176.443 153.635 176.177 154.008C175.921 154.381 175.563 154.675 175.105 154.888C174.646 155.091 174.118 155.192 173.521 155.192ZM181.404 155V146.424H182.604V155H181.404ZM181.404 144.84V143.08H182.604V144.84H181.404ZM185.06 155V146.424H186.26V148.088L185.988 148.024C186.201 147.469 186.548 147.032 187.028 146.712C187.519 146.392 188.084 146.232 188.724 146.232C189.332 146.232 189.876 146.371 190.356 146.648C190.847 146.925 191.231 147.309 191.508 147.8C191.796 148.28 191.94 148.824 191.94 149.432V155H190.74V149.896C190.74 149.373 190.644 148.931 190.452 148.568C190.271 148.205 190.009 147.928 189.668 147.736C189.337 147.533 188.953 147.432 188.516 147.432C188.079 147.432 187.689 147.533 187.348 147.736C187.007 147.928 186.74 148.211 186.548 148.584C186.356 148.947 186.26 149.384 186.26 149.896V155H185.06ZM200.231 155.096C199.463 155.096 198.871 154.872 198.455 154.424C198.039 153.976 197.831 153.336 197.831 152.504V147.624H196.247V146.424H196.647C197.009 146.424 197.297 146.307 197.511 146.072C197.724 145.827 197.831 145.523 197.831 145.16V144.44H199.031V146.424H200.919V147.624H199.031V152.504C199.031 152.792 199.073 153.048 199.159 153.272C199.244 153.485 199.388 153.656 199.591 153.784C199.804 153.912 200.087 153.976 200.439 153.976C200.524 153.976 200.625 153.971 200.743 153.96C200.86 153.949 200.961 153.939 201.047 153.928V155C200.919 155.032 200.775 155.053 200.615 155.064C200.455 155.085 200.327 155.096 200.231 155.096ZM203.154 155V142.888H204.354V148.088L204.082 148.024C204.295 147.469 204.642 147.032 205.122 146.712C205.613 146.392 206.178 146.232 206.818 146.232C207.426 146.232 207.97 146.371 208.45 146.648C208.941 146.925 209.325 147.309 209.602 147.8C209.89 148.28 210.034 148.824 210.034 149.432V155H208.834V149.896C208.834 149.373 208.738 148.931 208.546 148.568C208.354 148.205 208.087 147.928 207.746 147.736C207.415 147.533 207.037 147.432 206.61 147.432C206.183 147.432 205.799 147.533 205.458 147.736C205.117 147.928 204.845 148.211 204.642 148.584C204.45 148.947 204.354 149.384 204.354 149.896V155H203.154ZM216.23 155.192C215.43 155.192 214.704 155 214.054 154.616C213.414 154.221 212.907 153.683 212.534 153C212.16 152.317 211.974 151.544 211.974 150.68C211.974 149.816 212.155 149.053 212.518 148.392C212.88 147.72 213.371 147.192 213.99 146.808C214.619 146.424 215.323 146.232 216.102 146.232C216.72 146.232 217.27 146.349 217.75 146.584C218.24 146.808 218.656 147.117 218.998 147.512C219.339 147.896 219.6 148.333 219.782 148.824C219.963 149.304 220.054 149.8 220.054 150.312C220.054 150.419 220.048 150.541 220.038 150.68C220.027 150.808 220.011 150.941 219.99 151.08H212.742V149.96H219.302L218.726 150.44C218.822 149.853 218.752 149.331 218.518 148.872C218.294 148.403 217.968 148.035 217.542 147.768C217.115 147.491 216.635 147.352 216.102 147.352C215.568 147.352 215.072 147.491 214.614 147.768C214.166 148.045 213.814 148.435 213.558 148.936C213.302 149.427 213.2 150.013 213.254 150.696C213.2 151.379 213.307 151.976 213.574 152.488C213.851 152.989 214.224 153.379 214.694 153.656C215.174 153.933 215.686 154.072 216.23 154.072C216.859 154.072 217.387 153.923 217.814 153.624C218.24 153.325 218.587 152.952 218.854 152.504L219.878 153.048C219.707 153.432 219.446 153.789 219.094 154.12C218.742 154.44 218.32 154.701 217.83 154.904C217.35 155.096 216.816 155.192 216.23 155.192ZM225.064 155V143.08H230.072C230.744 143.08 231.326 143.208 231.816 143.464C232.318 143.709 232.702 144.056 232.968 144.504C233.246 144.952 233.384 145.475 233.384 146.072C233.384 146.691 233.23 147.24 232.92 147.72C232.622 148.189 232.19 148.547 231.624 148.792L231.608 148.408C232.078 148.579 232.478 148.819 232.808 149.128C233.15 149.437 233.411 149.8 233.592 150.216C233.774 150.621 233.864 151.059 233.864 151.528C233.864 152.595 233.523 153.443 232.84 154.072C232.168 154.691 231.251 155 230.088 155H225.064ZM226.344 153.8H230.088C230.846 153.8 231.448 153.603 231.896 153.208C232.355 152.803 232.584 152.248 232.584 151.544C232.584 150.851 232.355 150.301 231.896 149.896C231.448 149.48 230.846 149.272 230.088 149.272H226.344V153.8ZM226.344 148.12H229.976C230.616 148.12 231.128 147.933 231.512 147.56C231.907 147.187 232.104 146.707 232.104 146.12C232.104 145.523 231.907 145.069 231.512 144.76C231.128 144.44 230.616 144.28 229.976 144.28H226.344V148.12ZM235.982 155V142.888H237.182V155H235.982ZM243.654 155.192C242.844 155.192 242.108 155 241.446 154.616C240.785 154.221 240.257 153.688 239.862 153.016C239.478 152.333 239.286 151.56 239.286 150.696C239.286 149.843 239.478 149.08 239.862 148.408C240.246 147.736 240.764 147.208 241.414 146.824C242.076 146.429 242.822 146.232 243.654 146.232C244.486 146.232 245.228 146.424 245.878 146.808C246.54 147.192 247.057 147.72 247.43 148.392C247.814 149.064 248.006 149.832 248.006 150.696C248.006 151.571 247.809 152.349 247.414 153.032C247.02 153.704 246.492 154.232 245.83 154.616C245.18 155 244.454 155.192 243.654 155.192ZM243.654 153.992C244.23 153.992 244.748 153.848 245.206 153.56C245.676 153.272 246.044 152.877 246.31 152.376C246.588 151.875 246.726 151.315 246.726 150.696C246.726 150.077 246.588 149.523 246.31 149.032C246.044 148.541 245.676 148.152 245.206 147.864C244.748 147.576 244.23 147.432 243.654 147.432C243.078 147.432 242.556 147.576 242.086 147.864C241.628 148.152 241.26 148.541 240.982 149.032C240.705 149.523 240.566 150.077 240.566 150.696C240.566 151.315 240.705 151.875 240.982 152.376C241.26 152.877 241.628 153.272 242.086 153.56C242.556 153.848 243.078 153.992 243.654 153.992ZM254.187 158.52C253.6 158.52 253.056 158.429 252.555 158.248C252.064 158.067 251.637 157.816 251.275 157.496C250.923 157.187 250.651 156.824 250.459 156.408L251.563 155.816C251.733 156.221 252.037 156.573 252.475 156.872C252.912 157.171 253.472 157.32 254.155 157.32C254.677 157.32 255.157 157.219 255.595 157.016C256.032 156.813 256.384 156.515 256.651 156.12C256.917 155.725 257.051 155.24 257.051 154.664V152.76L257.243 152.936C256.944 153.555 256.501 154.035 255.915 154.376C255.328 154.707 254.688 154.872 253.995 154.872C253.195 154.872 252.475 154.68 251.835 154.296C251.195 153.912 250.688 153.395 250.315 152.744C249.952 152.083 249.771 151.352 249.771 150.552C249.771 149.741 249.952 149.011 250.315 148.36C250.688 147.709 251.189 147.192 251.819 146.808C252.459 146.424 253.184 146.232 253.995 146.232C254.688 146.232 255.317 146.392 255.883 146.712C256.459 147.032 256.912 147.464 257.243 148.008L257.051 148.344V146.424H258.251V154.664C258.251 155.4 258.075 156.056 257.723 156.632C257.381 157.219 256.901 157.677 256.283 158.008C255.675 158.349 254.976 158.52 254.187 158.52ZM254.059 153.672C254.613 153.672 255.115 153.533 255.563 153.256C256.011 152.968 256.368 152.589 256.635 152.12C256.912 151.64 257.051 151.117 257.051 150.552C257.051 149.987 256.912 149.469 256.635 149C256.368 148.52 256.011 148.141 255.563 147.864C255.115 147.576 254.613 147.432 254.059 147.432C253.493 147.432 252.981 147.576 252.523 147.864C252.064 148.141 251.701 148.515 251.435 148.984C251.179 149.453 251.051 149.976 251.051 150.552C251.051 151.117 251.179 151.64 251.435 152.12C251.701 152.589 252.059 152.968 252.507 153.256C252.965 153.533 253.483 153.672 254.059 153.672Z" fill="white"/>
</svg>
