<svg width="381" height="244" viewBox="0 0 381 244" fill="none" xmlns="http://www.w3.org/2000/svg">
<rect width="381" height="244" rx="16" fill="#1C1C1C"/>
<path d="M133.892 120.48C132.318 120.48 130.812 120.187 129.372 119.6C127.958 119.013 126.732 118.187 125.692 117.12C124.678 116.027 123.985 114.733 123.612 113.24L128.332 111.56C128.785 112.92 129.518 113.933 130.532 114.6C131.545 115.24 132.665 115.56 133.892 115.56C134.905 115.56 135.798 115.347 136.572 114.92C137.372 114.467 137.985 113.853 138.412 113.08C138.838 112.28 139.052 111.36 139.052 110.32C139.052 109.28 138.825 108.373 138.372 107.6C137.945 106.827 137.345 106.227 136.572 105.8C135.798 105.347 134.905 105.12 133.892 105.12C132.852 105.12 131.905 105.347 131.052 105.8C130.225 106.253 129.625 106.907 129.252 107.76L124.812 106.76L127.172 90.2H143.412V94.8H129.332L131.372 92.44L129.692 104.92L128.132 103.64C128.878 102.547 129.785 101.747 130.852 101.24C131.945 100.733 133.265 100.48 134.812 100.48C136.785 100.48 138.492 100.907 139.932 101.76C141.398 102.613 142.532 103.773 143.332 105.24C144.132 106.707 144.532 108.4 144.532 110.32C144.532 112.24 144.065 113.973 143.132 115.52C142.198 117.067 140.932 118.28 139.332 119.16C137.732 120.04 135.918 120.48 133.892 120.48ZM160.781 120.48C158.408 120.48 156.328 119.84 154.541 118.56C152.754 117.28 151.354 115.48 150.341 113.16C149.354 110.84 148.861 108.147 148.861 105.08C148.861 101.987 149.354 99.2933 150.341 97C151.328 94.7067 152.714 92.92 154.501 91.64C156.288 90.36 158.368 89.72 160.741 89.72C163.168 89.72 165.261 90.36 167.021 91.64C168.808 92.92 170.208 94.72 171.221 97.04C172.234 99.3333 172.741 102.013 172.741 105.08C172.741 108.147 172.234 110.84 171.221 113.16C170.234 115.453 168.848 117.253 167.061 118.56C165.274 119.84 163.181 120.48 160.781 120.48ZM160.821 115.52C162.181 115.52 163.341 115.107 164.301 114.28C165.261 113.427 165.994 112.227 166.501 110.68C167.034 109.107 167.301 107.24 167.301 105.08C167.301 102.92 167.034 101.067 166.501 99.52C165.994 97.9467 165.248 96.7467 164.261 95.92C163.301 95.0933 162.128 94.68 160.741 94.68C159.408 94.68 158.261 95.0933 157.301 95.92C156.341 96.7467 155.594 97.9467 155.061 99.52C154.554 101.067 154.301 102.92 154.301 105.08C154.301 107.213 154.554 109.067 155.061 110.64C155.594 112.187 156.341 113.387 157.301 114.24C158.288 115.093 159.461 115.52 160.821 115.52ZM189.101 120.48C186.728 120.48 184.648 119.84 182.861 118.56C181.075 117.28 179.675 115.48 178.661 113.16C177.675 110.84 177.181 108.147 177.181 105.08C177.181 101.987 177.675 99.2933 178.661 97C179.648 94.7067 181.035 92.92 182.821 91.64C184.608 90.36 186.688 89.72 189.061 89.72C191.488 89.72 193.581 90.36 195.341 91.64C197.128 92.92 198.528 94.72 199.541 97.04C200.555 99.3333 201.061 102.013 201.061 105.08C201.061 108.147 200.555 110.84 199.541 113.16C198.555 115.453 197.168 117.253 195.381 118.56C193.595 119.84 191.501 120.48 189.101 120.48ZM189.141 115.52C190.501 115.52 191.661 115.107 192.621 114.28C193.581 113.427 194.315 112.227 194.821 110.68C195.355 109.107 195.621 107.24 195.621 105.08C195.621 102.92 195.355 101.067 194.821 99.52C194.315 97.9467 193.568 96.7467 192.581 95.92C191.621 95.0933 190.448 94.68 189.061 94.68C187.728 94.68 186.581 95.0933 185.621 95.92C184.661 96.7467 183.915 97.9467 183.381 99.52C182.875 101.067 182.621 102.92 182.621 105.08C182.621 107.213 182.875 109.067 183.381 110.64C183.915 112.187 184.661 113.387 185.621 114.24C186.608 115.093 187.781 115.52 189.141 115.52ZM217.422 120.48C215.048 120.48 212.968 119.84 211.182 118.56C209.395 117.28 207.995 115.48 206.982 113.16C205.995 110.84 205.502 108.147 205.502 105.08C205.502 101.987 205.995 99.2933 206.982 97C207.968 94.7067 209.355 92.92 211.142 91.64C212.928 90.36 215.008 89.72 217.382 89.72C219.808 89.72 221.902 90.36 223.662 91.64C225.448 92.92 226.848 94.72 227.862 97.04C228.875 99.3333 229.382 102.013 229.382 105.08C229.382 108.147 228.875 110.84 227.862 113.16C226.875 115.453 225.488 117.253 223.702 118.56C221.915 119.84 219.822 120.48 217.422 120.48ZM217.462 115.52C218.822 115.52 219.982 115.107 220.942 114.28C221.902 113.427 222.635 112.227 223.142 110.68C223.675 109.107 223.942 107.24 223.942 105.08C223.942 102.92 223.675 101.067 223.142 99.52C222.635 97.9467 221.888 96.7467 220.902 95.92C219.942 95.0933 218.768 94.68 217.382 94.68C216.048 94.68 214.902 95.0933 213.942 95.92C212.982 96.7467 212.235 97.9467 211.702 99.52C211.195 101.067 210.942 102.92 210.942 105.08C210.942 107.213 211.195 109.067 211.702 110.64C212.235 112.187 212.982 113.387 213.942 114.24C214.928 115.093 216.102 115.52 217.462 115.52ZM242.542 120V112.24H234.782V107.72H242.542V100H247.062V107.72H254.782V112.24H247.062V120H242.542Z" fill="white"/>
<path d="M93.1908 155V144.28H89.8948V143.08H97.7348V144.28H94.4708V155H93.1908ZM102.029 155.192C101.219 155.192 100.483 155 99.8213 154.616C99.1599 154.221 98.6319 153.688 98.2373 153.016C97.8533 152.333 97.6613 151.56 97.6613 150.696C97.6613 149.843 97.8533 149.08 98.2373 148.408C98.6213 147.736 99.1386 147.208 99.7893 146.824C100.451 146.429 101.197 146.232 102.029 146.232C102.861 146.232 103.603 146.424 104.253 146.808C104.915 147.192 105.432 147.72 105.805 148.392C106.189 149.064 106.381 149.832 106.381 150.696C106.381 151.571 106.184 152.349 105.789 153.032C105.395 153.704 104.867 154.232 104.205 154.616C103.555 155 102.829 155.192 102.029 155.192ZM102.029 153.992C102.605 153.992 103.123 153.848 103.581 153.56C104.051 153.272 104.419 152.877 104.685 152.376C104.963 151.875 105.101 151.315 105.101 150.696C105.101 150.077 104.963 149.523 104.685 149.032C104.419 148.541 104.051 148.152 103.581 147.864C103.123 147.576 102.605 147.432 102.029 147.432C101.453 147.432 100.931 147.576 100.461 147.864C100.003 148.152 99.6346 148.541 99.3573 149.032C99.0799 149.523 98.9413 150.077 98.9413 150.696C98.9413 151.315 99.0799 151.875 99.3573 152.376C99.6346 152.877 100.003 153.272 100.461 153.56C100.931 153.848 101.453 153.992 102.029 153.992ZM111.621 155.096C110.853 155.096 110.261 154.872 109.845 154.424C109.429 153.976 109.221 153.336 109.221 152.504V147.624H107.637V146.424H108.037C108.4 146.424 108.688 146.307 108.901 146.072C109.115 145.827 109.221 145.523 109.221 145.16V144.44H110.421V146.424H112.309V147.624H110.421V152.504C110.421 152.792 110.464 153.048 110.549 153.272C110.635 153.485 110.779 153.656 110.981 153.784C111.195 153.912 111.477 153.976 111.829 153.976C111.915 153.976 112.016 153.971 112.133 153.96C112.251 153.949 112.352 153.939 112.437 153.928V155C112.309 155.032 112.165 155.053 112.005 155.064C111.845 155.085 111.717 155.096 111.621 155.096ZM116.868 155.192C116.324 155.192 115.839 155.091 115.412 154.888C114.986 154.675 114.65 154.387 114.404 154.024C114.159 153.661 114.036 153.245 114.036 152.776C114.036 152.328 114.132 151.923 114.324 151.56C114.516 151.187 114.815 150.872 115.22 150.616C115.626 150.36 116.143 150.179 116.772 150.072L120.132 149.512V150.6L117.06 151.112C116.442 151.219 115.994 151.416 115.716 151.704C115.45 151.992 115.316 152.333 115.316 152.728C115.316 153.112 115.466 153.437 115.764 153.704C116.074 153.971 116.468 154.104 116.948 154.104C117.535 154.104 118.047 153.981 118.484 153.736C118.922 153.48 119.263 153.139 119.508 152.712C119.754 152.285 119.876 151.811 119.876 151.288V149.112C119.876 148.6 119.69 148.184 119.316 147.864C118.943 147.544 118.458 147.384 117.86 147.384C117.338 147.384 116.879 147.517 116.484 147.784C116.09 148.04 115.796 148.376 115.604 148.792L114.516 148.2C114.676 147.837 114.927 147.507 115.268 147.208C115.62 146.909 116.02 146.675 116.468 146.504C116.916 146.323 117.38 146.232 117.86 146.232C118.49 146.232 119.044 146.355 119.524 146.6C120.015 146.845 120.394 147.187 120.66 147.624C120.938 148.051 121.076 148.547 121.076 149.112V155H119.876V153.288L120.052 153.464C119.903 153.784 119.668 154.077 119.348 154.344C119.039 154.6 118.671 154.808 118.244 154.968C117.828 155.117 117.37 155.192 116.868 155.192ZM123.545 155V142.888H124.745V155H123.545ZM130.096 155V143.08H131.376V153.8H136.656V155H130.096ZM138.42 155V146.424H139.62V155H138.42ZM138.42 144.84V143.08H139.62V144.84H138.42ZM145.052 155.192C144.23 155.192 143.51 154.984 142.892 154.568C142.273 154.152 141.825 153.587 141.548 152.872L142.556 152.392C142.801 152.915 143.142 153.331 143.58 153.64C144.028 153.949 144.518 154.104 145.052 154.104C145.564 154.104 145.996 153.981 146.348 153.736C146.7 153.48 146.876 153.149 146.876 152.744C146.876 152.445 146.79 152.211 146.62 152.04C146.449 151.859 146.252 151.72 146.028 151.624C145.804 151.528 145.606 151.459 145.436 151.416L144.204 151.064C143.414 150.84 142.844 150.525 142.492 150.12C142.14 149.715 141.964 149.245 141.964 148.712C141.964 148.211 142.092 147.773 142.348 147.4C142.604 147.027 142.95 146.739 143.388 146.536C143.825 146.333 144.31 146.232 144.844 146.232C145.569 146.232 146.225 146.424 146.812 146.808C147.409 147.181 147.83 147.704 148.076 148.376L147.052 148.856C146.838 148.376 146.529 148.003 146.124 147.736C145.729 147.459 145.286 147.32 144.796 147.32C144.316 147.32 143.932 147.443 143.644 147.688C143.356 147.933 143.212 148.243 143.212 148.616C143.212 148.904 143.286 149.133 143.436 149.304C143.585 149.475 143.756 149.603 143.948 149.688C144.15 149.773 144.326 149.837 144.476 149.88L145.9 150.296C146.593 150.499 147.132 150.813 147.516 151.24C147.91 151.667 148.108 152.168 148.108 152.744C148.108 153.213 147.974 153.635 147.708 154.008C147.452 154.381 147.094 154.675 146.636 154.888C146.177 155.091 145.649 155.192 145.052 155.192ZM153.496 155.096C152.728 155.096 152.136 154.872 151.72 154.424C151.304 153.976 151.096 153.336 151.096 152.504V147.624H149.512V146.424H149.912C150.275 146.424 150.563 146.307 150.776 146.072C150.99 145.827 151.096 145.523 151.096 145.16V144.44H152.296V146.424H154.184V147.624H152.296V152.504C152.296 152.792 152.339 153.048 152.424 153.272C152.51 153.485 152.654 153.656 152.856 153.784C153.07 153.912 153.352 153.976 153.704 153.976C153.79 153.976 153.891 153.971 154.008 153.96C154.126 153.949 154.227 153.939 154.312 153.928V155C154.184 155.032 154.04 155.053 153.88 155.064C153.72 155.085 153.592 155.096 153.496 155.096ZM156.42 155V146.424H157.62V155H156.42ZM156.42 144.84V143.08H157.62V144.84H156.42ZM160.076 155V146.424H161.276V148.088L161.004 148.024C161.217 147.469 161.564 147.032 162.044 146.712C162.534 146.392 163.1 146.232 163.74 146.232C164.348 146.232 164.892 146.371 165.372 146.648C165.862 146.925 166.246 147.309 166.524 147.8C166.812 148.28 166.956 148.824 166.956 149.432V155H165.756V149.896C165.756 149.373 165.66 148.931 165.468 148.568C165.286 148.205 165.025 147.928 164.684 147.736C164.353 147.533 163.969 147.432 163.532 147.432C163.094 147.432 162.705 147.533 162.364 147.736C162.022 147.928 161.756 148.211 161.564 148.584C161.372 148.947 161.276 149.384 161.276 149.896V155H160.076ZM173.312 158.52C172.725 158.52 172.181 158.429 171.68 158.248C171.189 158.067 170.762 157.816 170.4 157.496C170.048 157.187 169.776 156.824 169.584 156.408L170.688 155.816C170.858 156.221 171.162 156.573 171.6 156.872C172.037 157.171 172.597 157.32 173.28 157.32C173.802 157.32 174.282 157.219 174.72 157.016C175.157 156.813 175.509 156.515 175.776 156.12C176.042 155.725 176.176 155.24 176.176 154.664V152.76L176.368 152.936C176.069 153.555 175.626 154.035 175.04 154.376C174.453 154.707 173.813 154.872 173.12 154.872C172.32 154.872 171.6 154.68 170.96 154.296C170.32 153.912 169.813 153.395 169.44 152.744C169.077 152.083 168.896 151.352 168.896 150.552C168.896 149.741 169.077 149.011 169.44 148.36C169.813 147.709 170.314 147.192 170.944 146.808C171.584 146.424 172.309 146.232 173.12 146.232C173.813 146.232 174.442 146.392 175.008 146.712C175.584 147.032 176.037 147.464 176.368 148.008L176.176 148.344V146.424H177.376V154.664C177.376 155.4 177.2 156.056 176.848 156.632C176.506 157.219 176.026 157.677 175.408 158.008C174.8 158.349 174.101 158.52 173.312 158.52ZM173.184 153.672C173.738 153.672 174.24 153.533 174.688 153.256C175.136 152.968 175.493 152.589 175.76 152.12C176.037 151.64 176.176 151.117 176.176 150.552C176.176 149.987 176.037 149.469 175.76 149C175.493 148.52 175.136 148.141 174.688 147.864C174.24 147.576 173.738 147.432 173.184 147.432C172.618 147.432 172.106 147.576 171.648 147.864C171.189 148.141 170.826 148.515 170.56 148.984C170.304 149.453 170.176 149.976 170.176 150.552C170.176 151.117 170.304 151.64 170.56 152.12C170.826 152.589 171.184 152.968 171.632 153.256C172.09 153.533 172.608 153.672 173.184 153.672ZM182.817 155.192C181.996 155.192 181.276 154.984 180.657 154.568C180.039 154.152 179.591 153.587 179.313 152.872L180.321 152.392C180.567 152.915 180.908 153.331 181.345 153.64C181.793 153.949 182.284 154.104 182.817 154.104C183.329 154.104 183.761 153.981 184.113 153.736C184.465 153.48 184.641 153.149 184.641 152.744C184.641 152.445 184.556 152.211 184.385 152.04C184.215 151.859 184.017 151.72 183.793 151.624C183.569 151.528 183.372 151.459 183.201 151.416L181.969 151.064C181.18 150.84 180.609 150.525 180.257 150.12C179.905 149.715 179.729 149.245 179.729 148.712C179.729 148.211 179.857 147.773 180.113 147.4C180.369 147.027 180.716 146.739 181.153 146.536C181.591 146.333 182.076 146.232 182.609 146.232C183.335 146.232 183.991 146.424 184.577 146.808C185.175 147.181 185.596 147.704 185.841 148.376L184.817 148.856C184.604 148.376 184.295 148.003 183.889 147.736C183.495 147.459 183.052 147.32 182.561 147.32C182.081 147.32 181.697 147.443 181.409 147.688C181.121 147.933 180.977 148.243 180.977 148.616C180.977 148.904 181.052 149.133 181.201 149.304C181.351 149.475 181.521 149.603 181.713 149.688C181.916 149.773 182.092 149.837 182.241 149.88L183.665 150.296C184.359 150.499 184.897 150.813 185.281 151.24C185.676 151.667 185.873 152.168 185.873 152.744C185.873 153.213 185.74 153.635 185.473 154.008C185.217 154.381 184.86 154.675 184.401 154.888C183.943 155.091 183.415 155.192 182.817 155.192ZM190.701 155V146.424H191.901V155H190.701ZM190.701 144.84V143.08H191.901V144.84H190.701ZM194.357 155V146.424H195.557V148.088L195.285 148.024C195.498 147.469 195.845 147.032 196.325 146.712C196.816 146.392 197.381 146.232 198.021 146.232C198.629 146.232 199.173 146.371 199.653 146.648C200.144 146.925 200.528 147.309 200.805 147.8C201.093 148.28 201.237 148.824 201.237 149.432V155H200.037V149.896C200.037 149.373 199.941 148.931 199.749 148.568C199.568 148.205 199.306 147.928 198.965 147.736C198.634 147.533 198.25 147.432 197.813 147.432C197.376 147.432 196.986 147.533 196.645 147.736C196.304 147.928 196.037 148.211 195.845 148.584C195.653 148.947 195.557 149.384 195.557 149.896V155H194.357ZM209.528 155.096C208.76 155.096 208.168 154.872 207.752 154.424C207.336 153.976 207.128 153.336 207.128 152.504V147.624H205.544V146.424H205.944C206.306 146.424 206.594 146.307 206.808 146.072C207.021 145.827 207.128 145.523 207.128 145.16V144.44H208.328V146.424H210.216V147.624H208.328V152.504C208.328 152.792 208.37 153.048 208.456 153.272C208.541 153.485 208.685 153.656 208.888 153.784C209.101 153.912 209.384 153.976 209.736 153.976C209.821 153.976 209.922 153.971 210.04 153.96C210.157 153.949 210.258 153.939 210.344 153.928V155C210.216 155.032 210.072 155.053 209.912 155.064C209.752 155.085 209.624 155.096 209.528 155.096ZM212.451 155V142.888H213.651V148.088L213.379 148.024C213.592 147.469 213.939 147.032 214.419 146.712C214.909 146.392 215.475 146.232 216.115 146.232C216.723 146.232 217.267 146.371 217.747 146.648C218.237 146.925 218.621 147.309 218.899 147.8C219.187 148.28 219.331 148.824 219.331 149.432V155H218.131V149.896C218.131 149.373 218.035 148.931 217.843 148.568C217.651 148.205 217.384 147.928 217.043 147.736C216.712 147.533 216.333 147.432 215.907 147.432C215.48 147.432 215.096 147.533 214.755 147.736C214.413 147.928 214.141 148.211 213.939 148.584C213.747 148.947 213.651 149.384 213.651 149.896V155H212.451ZM225.527 155.192C224.727 155.192 224.001 155 223.351 154.616C222.711 154.221 222.204 153.683 221.831 153C221.457 152.317 221.271 151.544 221.271 150.68C221.271 149.816 221.452 149.053 221.815 148.392C222.177 147.72 222.668 147.192 223.287 146.808C223.916 146.424 224.62 146.232 225.399 146.232C226.017 146.232 226.567 146.349 227.047 146.584C227.537 146.808 227.953 147.117 228.295 147.512C228.636 147.896 228.897 148.333 229.079 148.824C229.26 149.304 229.351 149.8 229.351 150.312C229.351 150.419 229.345 150.541 229.335 150.68C229.324 150.808 229.308 150.941 229.287 151.08H222.039V149.96H228.599L228.023 150.44C228.119 149.853 228.049 149.331 227.815 148.872C227.591 148.403 227.265 148.035 226.839 147.768C226.412 147.491 225.932 147.352 225.399 147.352C224.865 147.352 224.369 147.491 223.911 147.768C223.463 148.045 223.111 148.435 222.855 148.936C222.599 149.427 222.497 150.013 222.551 150.696C222.497 151.379 222.604 151.976 222.871 152.488C223.148 152.989 223.521 153.379 223.991 153.656C224.471 153.933 224.983 154.072 225.527 154.072C226.156 154.072 226.684 153.923 227.111 153.624C227.537 153.325 227.884 152.952 228.151 152.504L229.175 153.048C229.004 153.432 228.743 153.789 228.391 154.12C228.039 154.44 227.617 154.701 227.127 154.904C226.647 155.096 226.113 155.192 225.527 155.192ZM238.377 155.192C237.62 155.192 236.932 155.048 236.313 154.76C235.694 154.472 235.172 154.088 234.745 153.608C234.318 153.117 234.014 152.579 233.833 151.992L234.985 151.56C235.262 152.371 235.694 152.989 236.281 153.416C236.868 153.832 237.566 154.04 238.377 154.04C238.889 154.04 239.337 153.96 239.721 153.8C240.116 153.629 240.42 153.395 240.633 153.096C240.846 152.797 240.953 152.451 240.953 152.056C240.953 151.469 240.793 151.016 240.473 150.696C240.153 150.376 239.694 150.131 239.097 149.96L236.953 149.32C236.11 149.075 235.46 148.664 235.001 148.088C234.553 147.512 234.329 146.856 234.329 146.12C234.329 145.491 234.484 144.936 234.793 144.456C235.102 143.965 235.524 143.581 236.057 143.304C236.601 143.027 237.214 142.888 237.897 142.888C238.612 142.888 239.252 143.021 239.817 143.288C240.393 143.544 240.878 143.885 241.273 144.312C241.668 144.739 241.95 145.213 242.121 145.736L241.001 146.184C240.745 145.48 240.345 144.947 239.801 144.584C239.268 144.221 238.638 144.04 237.913 144.04C237.454 144.04 237.049 144.12 236.697 144.28C236.356 144.44 236.089 144.669 235.897 144.968C235.705 145.267 235.609 145.619 235.609 146.024C235.609 146.515 235.764 146.957 236.073 147.352C236.382 147.736 236.857 148.024 237.497 148.216L239.385 148.776C240.324 149.053 241.033 149.453 241.513 149.976C241.993 150.499 242.233 151.155 242.233 151.944C242.233 152.584 242.068 153.149 241.737 153.64C241.417 154.12 240.964 154.499 240.377 154.776C239.801 155.053 239.134 155.192 238.377 155.192ZM244.705 158.52C244.534 158.52 244.358 158.504 244.177 158.472C244.006 158.451 243.836 158.408 243.665 158.344V157.224C243.772 157.235 243.905 157.251 244.065 157.272C244.236 157.304 244.406 157.32 244.577 157.32C245.1 157.32 245.5 157.208 245.777 156.984C246.054 156.771 246.326 156.355 246.593 155.736L247.137 154.456L247.105 155.512L243.473 146.424H244.769L247.745 153.928H247.409L250.369 146.424H251.697L247.777 156.088C247.606 156.504 247.388 156.899 247.121 157.272C246.865 157.645 246.54 157.944 246.145 158.168C245.75 158.403 245.27 158.52 244.705 158.52ZM256.083 155.192C255.262 155.192 254.542 154.984 253.923 154.568C253.304 154.152 252.856 153.587 252.579 152.872L253.587 152.392C253.832 152.915 254.174 153.331 254.611 153.64C255.059 153.949 255.55 154.104 256.083 154.104C256.595 154.104 257.027 153.981 257.379 153.736C257.731 153.48 257.907 153.149 257.907 152.744C257.907 152.445 257.822 152.211 257.651 152.04C257.48 151.859 257.283 151.72 257.059 151.624C256.835 151.528 256.638 151.459 256.467 151.416L255.235 151.064C254.446 150.84 253.875 150.525 253.523 150.12C253.171 149.715 252.995 149.245 252.995 148.712C252.995 148.211 253.123 147.773 253.379 147.4C253.635 147.027 253.982 146.739 254.419 146.536C254.856 146.333 255.342 146.232 255.875 146.232C256.6 146.232 257.256 146.424 257.843 146.808C258.44 147.181 258.862 147.704 259.107 148.376L258.083 148.856C257.87 148.376 257.56 148.003 257.155 147.736C256.76 147.459 256.318 147.32 255.827 147.32C255.347 147.32 254.963 147.443 254.675 147.688C254.387 147.933 254.243 148.243 254.243 148.616C254.243 148.904 254.318 149.133 254.467 149.304C254.616 149.475 254.787 149.603 254.979 149.688C255.182 149.773 255.358 149.837 255.507 149.88L256.931 150.296C257.624 150.499 258.163 150.813 258.547 151.24C258.942 151.667 259.139 152.168 259.139 152.744C259.139 153.213 259.006 153.635 258.739 154.008C258.483 154.381 258.126 154.675 257.667 154.888C257.208 155.091 256.68 155.192 256.083 155.192ZM264.528 155.096C263.76 155.096 263.168 154.872 262.752 154.424C262.336 153.976 262.128 153.336 262.128 152.504V147.624H260.544V146.424H260.944C261.306 146.424 261.594 146.307 261.808 146.072C262.021 145.827 262.128 145.523 262.128 145.16V144.44H263.328V146.424H265.216V147.624H263.328V152.504C263.328 152.792 263.37 153.048 263.456 153.272C263.541 153.485 263.685 153.656 263.888 153.784C264.101 153.912 264.384 153.976 264.736 153.976C264.821 153.976 264.922 153.971 265.04 153.96C265.157 153.949 265.258 153.939 265.344 153.928V155C265.216 155.032 265.072 155.053 264.912 155.064C264.752 155.085 264.624 155.096 264.528 155.096ZM271.042 155.192C270.242 155.192 269.517 155 268.866 154.616C268.226 154.221 267.72 153.683 267.346 153C266.973 152.317 266.786 151.544 266.786 150.68C266.786 149.816 266.968 149.053 267.33 148.392C267.693 147.72 268.184 147.192 268.802 146.808C269.432 146.424 270.136 146.232 270.914 146.232C271.533 146.232 272.082 146.349 272.562 146.584C273.053 146.808 273.469 147.117 273.81 147.512C274.152 147.896 274.413 148.333 274.594 148.824C274.776 149.304 274.866 149.8 274.866 150.312C274.866 150.419 274.861 150.541 274.85 150.68C274.84 150.808 274.824 150.941 274.802 151.08H267.554V149.96H274.114L273.538 150.44C273.634 149.853 273.565 149.331 273.33 148.872C273.106 148.403 272.781 148.035 272.354 147.768C271.928 147.491 271.448 147.352 270.914 147.352C270.381 147.352 269.885 147.491 269.426 147.768C268.978 148.045 268.626 148.435 268.37 148.936C268.114 149.427 268.013 150.013 268.066 150.696C268.013 151.379 268.12 151.976 268.386 152.488C268.664 152.989 269.037 153.379 269.506 153.656C269.986 153.933 270.498 154.072 271.042 154.072C271.672 154.072 272.2 153.923 272.626 153.624C273.053 153.325 273.4 152.952 273.666 152.504L274.69 153.048C274.52 153.432 274.258 153.789 273.906 154.12C273.554 154.44 273.133 154.701 272.642 154.904C272.162 155.096 271.629 155.192 271.042 155.192ZM276.982 155V146.424H278.182V148.056L277.99 147.816C278.225 147.315 278.571 146.925 279.03 146.648C279.499 146.371 280.011 146.232 280.566 146.232C281.227 146.232 281.825 146.419 282.358 146.792C282.891 147.165 283.27 147.651 283.494 148.248L283.158 148.264C283.371 147.603 283.739 147.101 284.262 146.76C284.795 146.408 285.382 146.232 286.022 146.232C286.598 146.232 287.126 146.371 287.606 146.648C288.097 146.925 288.486 147.309 288.774 147.8C289.073 148.28 289.222 148.824 289.222 149.432V155H288.022V149.896C288.022 149.373 287.926 148.931 287.734 148.568C287.553 148.205 287.302 147.928 286.982 147.736C286.662 147.533 286.294 147.432 285.878 147.432C285.473 147.432 285.105 147.533 284.774 147.736C284.443 147.928 284.182 148.211 283.99 148.584C283.798 148.947 283.702 149.384 283.702 149.896V155H282.502V149.896C282.502 149.373 282.406 148.931 282.214 148.568C282.033 148.205 281.782 147.928 281.462 147.736C281.142 147.533 280.774 147.432 280.358 147.432C279.942 147.432 279.569 147.533 279.238 147.736C278.918 147.928 278.662 148.211 278.47 148.584C278.278 148.947 278.182 149.384 278.182 149.896V155H276.982Z" fill="white"/>
</svg>
