<svg width="381" height="244" viewBox="0 0 381 244" fill="none" xmlns="http://www.w3.org/2000/svg">
<rect width="381" height="244" rx="16" fill="#1C1C1C"/>
<path d="M133.17 120V94.84H127.41V90.2H138.61V120H133.17ZM156.543 120.48C154.169 120.48 152.089 119.84 150.303 118.56C148.516 117.28 147.116 115.48 146.103 113.16C145.116 110.84 144.623 108.147 144.623 105.08C144.623 101.987 145.116 99.2933 146.103 97C147.089 94.7067 148.476 92.92 150.263 91.64C152.049 90.36 154.129 89.72 156.503 89.72C158.929 89.72 161.023 90.36 162.783 91.64C164.569 92.92 165.969 94.72 166.983 97.04C167.996 99.3333 168.503 102.013 168.503 105.08C168.503 108.147 167.996 110.84 166.983 113.16C165.996 115.453 164.609 117.253 162.823 118.56C161.036 119.84 158.943 120.48 156.543 120.48ZM156.583 115.52C157.943 115.52 159.103 115.107 160.063 114.28C161.023 113.427 161.756 112.227 162.263 110.68C162.796 109.107 163.063 107.24 163.063 105.08C163.063 102.92 162.796 101.067 162.263 99.52C161.756 97.9467 161.009 96.7467 160.023 95.92C159.063 95.0933 157.889 94.68 156.503 94.68C155.169 94.68 154.023 95.0933 153.063 95.92C152.103 96.7467 151.356 97.9467 150.823 99.52C150.316 101.067 150.063 102.92 150.063 105.08C150.063 107.213 150.316 109.067 150.823 110.64C151.356 112.187 152.103 113.387 153.063 114.24C154.049 115.093 155.223 115.52 156.583 115.52ZM184.863 120.48C182.49 120.48 180.41 119.84 178.623 118.56C176.836 117.28 175.436 115.48 174.423 113.16C173.436 110.84 172.943 108.147 172.943 105.08C172.943 101.987 173.436 99.2933 174.423 97C175.41 94.7067 176.796 92.92 178.583 91.64C180.37 90.36 182.45 89.72 184.823 89.72C187.25 89.72 189.343 90.36 191.103 91.64C192.89 92.92 194.29 94.72 195.303 97.04C196.316 99.3333 196.823 102.013 196.823 105.08C196.823 108.147 196.316 110.84 195.303 113.16C194.316 115.453 192.93 117.253 191.143 118.56C189.356 119.84 187.263 120.48 184.863 120.48ZM184.903 115.52C186.263 115.52 187.423 115.107 188.383 114.28C189.343 113.427 190.076 112.227 190.583 110.68C191.116 109.107 191.383 107.24 191.383 105.08C191.383 102.92 191.116 101.067 190.583 99.52C190.076 97.9467 189.33 96.7467 188.343 95.92C187.383 95.0933 186.21 94.68 184.823 94.68C183.49 94.68 182.343 95.0933 181.383 95.92C180.423 96.7467 179.676 97.9467 179.143 99.52C178.636 101.067 178.383 102.92 178.383 105.08C178.383 107.213 178.636 109.067 179.143 110.64C179.676 112.187 180.423 113.387 181.383 114.24C182.37 115.093 183.543 115.52 184.903 115.52ZM213.183 120.48C210.81 120.48 208.73 119.84 206.943 118.56C205.157 117.28 203.757 115.48 202.743 113.16C201.757 110.84 201.263 108.147 201.263 105.08C201.263 101.987 201.757 99.2933 202.743 97C203.73 94.7067 205.117 92.92 206.903 91.64C208.69 90.36 210.77 89.72 213.143 89.72C215.57 89.72 217.663 90.36 219.423 91.64C221.21 92.92 222.61 94.72 223.623 97.04C224.637 99.3333 225.143 102.013 225.143 105.08C225.143 108.147 224.637 110.84 223.623 113.16C222.637 115.453 221.25 117.253 219.463 118.56C217.677 119.84 215.583 120.48 213.183 120.48ZM213.223 115.52C214.583 115.52 215.743 115.107 216.703 114.28C217.663 113.427 218.397 112.227 218.903 110.68C219.437 109.107 219.703 107.24 219.703 105.08C219.703 102.92 219.437 101.067 218.903 99.52C218.397 97.9467 217.65 96.7467 216.663 95.92C215.703 95.0933 214.53 94.68 213.143 94.68C211.81 94.68 210.663 95.0933 209.703 95.92C208.743 96.7467 207.997 97.9467 207.463 99.52C206.957 101.067 206.703 102.92 206.703 105.08C206.703 107.213 206.957 109.067 207.463 110.64C207.997 112.187 208.743 113.387 209.703 114.24C210.69 115.093 211.863 115.52 213.223 115.52ZM238.304 120V112.24H230.544V107.72H238.304V100H242.824V107.72H250.544V112.24H242.824V120H238.304Z" fill="white"/>
<path d="M136.02 155L140.372 143.08H141.748L146.1 155H144.756L143.732 152.088H138.404L137.364 155H136.02ZM138.82 150.888H143.284L140.868 144.04H141.252L138.82 150.888ZM151.121 155.192C150.278 155.192 149.537 154.995 148.897 154.6C148.257 154.205 147.755 153.672 147.393 153C147.03 152.317 146.849 151.549 146.849 150.696C146.849 149.843 147.03 149.08 147.393 148.408C147.755 147.736 148.257 147.208 148.897 146.824C149.537 146.429 150.278 146.232 151.121 146.232C151.654 146.232 152.155 146.328 152.625 146.52C153.094 146.712 153.51 146.973 153.873 147.304C154.235 147.624 154.507 147.997 154.689 148.424L153.601 148.984C153.387 148.525 153.062 148.152 152.625 147.864C152.187 147.576 151.686 147.432 151.121 147.432C150.555 147.432 150.043 147.576 149.585 147.864C149.137 148.141 148.779 148.531 148.513 149.032C148.257 149.523 148.129 150.083 148.129 150.712C148.129 151.331 148.257 151.891 148.513 152.392C148.779 152.883 149.137 153.272 149.585 153.56C150.043 153.848 150.555 153.992 151.121 153.992C151.686 153.992 152.182 153.848 152.609 153.56C153.046 153.272 153.377 152.888 153.601 152.408L154.689 153C154.507 153.416 154.235 153.789 153.873 154.12C153.51 154.451 153.094 154.712 152.625 154.904C152.155 155.096 151.654 155.192 151.121 155.192ZM160.075 155.096C159.307 155.096 158.715 154.872 158.299 154.424C157.883 153.976 157.674 153.336 157.674 152.504V147.624H156.09V146.424H156.491C156.853 146.424 157.141 146.307 157.355 146.072C157.568 145.827 157.674 145.523 157.674 145.16V144.44H158.875V146.424H160.763V147.624H158.875V152.504C158.875 152.792 158.917 153.048 159.003 153.272C159.088 153.485 159.232 153.656 159.435 153.784C159.648 153.912 159.931 153.976 160.283 153.976C160.368 153.976 160.469 153.971 160.587 153.96C160.704 153.949 160.805 153.939 160.891 153.928V155C160.763 155.032 160.619 155.053 160.459 155.064C160.299 155.085 160.171 155.096 160.075 155.096ZM162.998 155V146.424H164.198V155H162.998ZM162.998 144.84V143.08H164.198V144.84H162.998ZM168.942 155L165.598 146.424H166.942L169.758 153.944H169.326L172.158 146.424H173.518L170.142 155H168.942ZM178.667 155.192C177.867 155.192 177.142 155 176.491 154.616C175.851 154.221 175.345 153.683 174.971 153C174.598 152.317 174.411 151.544 174.411 150.68C174.411 149.816 174.593 149.053 174.955 148.392C175.318 147.72 175.809 147.192 176.427 146.808C177.057 146.424 177.761 146.232 178.539 146.232C179.158 146.232 179.707 146.349 180.187 146.584C180.678 146.808 181.094 147.117 181.435 147.512C181.777 147.896 182.038 148.333 182.219 148.824C182.401 149.304 182.491 149.8 182.491 150.312C182.491 150.419 182.486 150.541 182.475 150.68C182.465 150.808 182.449 150.941 182.427 151.08H175.179V149.96H181.739L181.163 150.44C181.259 149.853 181.19 149.331 180.955 148.872C180.731 148.403 180.406 148.035 179.979 147.768C179.553 147.491 179.073 147.352 178.539 147.352C178.006 147.352 177.51 147.491 177.051 147.768C176.603 148.045 176.251 148.435 175.995 148.936C175.739 149.427 175.638 150.013 175.691 150.696C175.638 151.379 175.745 151.976 176.011 152.488C176.289 152.989 176.662 153.379 177.131 153.656C177.611 153.933 178.123 154.072 178.667 154.072C179.297 154.072 179.825 153.923 180.251 153.624C180.678 153.325 181.025 152.952 181.291 152.504L182.315 153.048C182.145 153.432 181.883 153.789 181.531 154.12C181.179 154.44 180.758 154.701 180.267 154.904C179.787 155.096 179.254 155.192 178.667 155.192ZM187.502 155V143.08H188.782V153.8H194.062V155H187.502ZM195.826 155V146.424H197.026V155H195.826ZM195.826 144.84V143.08H197.026V144.84H195.826ZM202.458 155.192C201.637 155.192 200.917 154.984 200.298 154.568C199.679 154.152 199.231 153.587 198.954 152.872L199.962 152.392C200.207 152.915 200.549 153.331 200.986 153.64C201.434 153.949 201.925 154.104 202.458 154.104C202.97 154.104 203.402 153.981 203.754 153.736C204.106 153.48 204.282 153.149 204.282 152.744C204.282 152.445 204.197 152.211 204.026 152.04C203.855 151.859 203.658 151.72 203.434 151.624C203.21 151.528 203.013 151.459 202.842 151.416L201.61 151.064C200.821 150.84 200.25 150.525 199.898 150.12C199.546 149.715 199.37 149.245 199.37 148.712C199.37 148.211 199.498 147.773 199.754 147.4C200.01 147.027 200.357 146.739 200.794 146.536C201.231 146.333 201.717 146.232 202.25 146.232C202.975 146.232 203.631 146.424 204.218 146.808C204.815 147.181 205.237 147.704 205.482 148.376L204.458 148.856C204.245 148.376 203.935 148.003 203.53 147.736C203.135 147.459 202.693 147.32 202.202 147.32C201.722 147.32 201.338 147.443 201.05 147.688C200.762 147.933 200.618 148.243 200.618 148.616C200.618 148.904 200.693 149.133 200.842 149.304C200.991 149.475 201.162 149.603 201.354 149.688C201.557 149.773 201.733 149.837 201.882 149.88L203.306 150.296C203.999 150.499 204.538 150.813 204.922 151.24C205.317 151.667 205.514 152.168 205.514 152.744C205.514 153.213 205.381 153.635 205.114 154.008C204.858 154.381 204.501 154.675 204.042 154.888C203.583 155.091 203.055 155.192 202.458 155.192ZM210.903 155.096C210.135 155.096 209.543 154.872 209.127 154.424C208.711 153.976 208.503 153.336 208.503 152.504V147.624H206.919V146.424H207.319C207.681 146.424 207.969 146.307 208.183 146.072C208.396 145.827 208.503 145.523 208.503 145.16V144.44H209.703V146.424H211.591V147.624H209.703V152.504C209.703 152.792 209.745 153.048 209.831 153.272C209.916 153.485 210.06 153.656 210.263 153.784C210.476 153.912 210.759 153.976 211.111 153.976C211.196 153.976 211.297 153.971 211.415 153.96C211.532 153.949 211.633 153.939 211.719 153.928V155C211.591 155.032 211.447 155.053 211.287 155.064C211.127 155.085 210.999 155.096 210.903 155.096ZM213.826 155V146.424H215.026V155H213.826ZM213.826 144.84V143.08H215.026V144.84H213.826ZM217.482 155V146.424H218.682V148.088L218.41 148.024C218.623 147.469 218.97 147.032 219.45 146.712C219.941 146.392 220.506 146.232 221.146 146.232C221.754 146.232 222.298 146.371 222.778 146.648C223.269 146.925 223.653 147.309 223.93 147.8C224.218 148.28 224.362 148.824 224.362 149.432V155H223.162V149.896C223.162 149.373 223.066 148.931 222.874 148.568C222.693 148.205 222.431 147.928 222.09 147.736C221.759 147.533 221.375 147.432 220.938 147.432C220.501 147.432 220.111 147.533 219.77 147.736C219.429 147.928 219.162 148.211 218.97 148.584C218.778 148.947 218.682 149.384 218.682 149.896V155H217.482ZM230.718 158.52C230.131 158.52 229.587 158.429 229.086 158.248C228.595 158.067 228.169 157.816 227.806 157.496C227.454 157.187 227.182 156.824 226.99 156.408L228.094 155.816C228.265 156.221 228.569 156.573 229.006 156.872C229.443 157.171 230.003 157.32 230.686 157.32C231.209 157.32 231.689 157.219 232.126 157.016C232.563 156.813 232.915 156.515 233.182 156.12C233.449 155.725 233.582 155.24 233.582 154.664V152.76L233.774 152.936C233.475 153.555 233.033 154.035 232.446 154.376C231.859 154.707 231.219 154.872 230.526 154.872C229.726 154.872 229.006 154.68 228.366 154.296C227.726 153.912 227.219 153.395 226.846 152.744C226.483 152.083 226.302 151.352 226.302 150.552C226.302 149.741 226.483 149.011 226.846 148.36C227.219 147.709 227.721 147.192 228.35 146.808C228.99 146.424 229.715 146.232 230.526 146.232C231.219 146.232 231.849 146.392 232.414 146.712C232.99 147.032 233.443 147.464 233.774 148.008L233.582 148.344V146.424H234.782V154.664C234.782 155.4 234.606 156.056 234.254 156.632C233.913 157.219 233.433 157.677 232.814 158.008C232.206 158.349 231.507 158.52 230.718 158.52ZM230.59 153.672C231.145 153.672 231.646 153.533 232.094 153.256C232.542 152.968 232.899 152.589 233.166 152.12C233.443 151.64 233.582 151.117 233.582 150.552C233.582 149.987 233.443 149.469 233.166 149C232.899 148.52 232.542 148.141 232.094 147.864C231.646 147.576 231.145 147.432 230.59 147.432C230.025 147.432 229.513 147.576 229.054 147.864C228.595 148.141 228.233 148.515 227.966 148.984C227.71 149.453 227.582 149.976 227.582 150.552C227.582 151.117 227.71 151.64 227.966 152.12C228.233 152.589 228.59 152.968 229.038 153.256C229.497 153.533 230.014 153.672 230.59 153.672ZM240.224 155.192C239.402 155.192 238.682 154.984 238.064 154.568C237.445 154.152 236.997 153.587 236.72 152.872L237.728 152.392C237.973 152.915 238.314 153.331 238.752 153.64C239.2 153.949 239.69 154.104 240.224 154.104C240.736 154.104 241.168 153.981 241.52 153.736C241.872 153.48 242.048 153.149 242.048 152.744C242.048 152.445 241.962 152.211 241.792 152.04C241.621 151.859 241.424 151.72 241.2 151.624C240.976 151.528 240.778 151.459 240.608 151.416L239.376 151.064C238.586 150.84 238.016 150.525 237.664 150.12C237.312 149.715 237.136 149.245 237.136 148.712C237.136 148.211 237.264 147.773 237.52 147.4C237.776 147.027 238.122 146.739 238.56 146.536C238.997 146.333 239.482 146.232 240.016 146.232C240.741 146.232 241.397 146.424 241.984 146.808C242.581 147.181 243.002 147.704 243.248 148.376L242.224 148.856C242.01 148.376 241.701 148.003 241.296 147.736C240.901 147.459 240.458 147.32 239.968 147.32C239.488 147.32 239.104 147.443 238.816 147.688C238.528 147.933 238.384 148.243 238.384 148.616C238.384 148.904 238.458 149.133 238.608 149.304C238.757 149.475 238.928 149.603 239.12 149.688C239.322 149.773 239.498 149.837 239.648 149.88L241.072 150.296C241.765 150.499 242.304 150.813 242.688 151.24C243.082 151.667 243.28 152.168 243.28 152.744C243.28 153.213 243.146 153.635 242.88 154.008C242.624 154.381 242.266 154.675 241.808 154.888C241.349 155.091 240.821 155.192 240.224 155.192Z" fill="white"/>
</svg>
