<svg width="273" height="72" viewBox="0 0 273 72" fill="none" xmlns="http://www.w3.org/2000/svg">
<rect x="1" y="0.5" width="271" height="71" rx="35.5" fill="white" stroke="#E8E8E8"/>
<rect x="7.5" y="7" width="59" height="59" rx="29.5" fill="#FDEBEC"/>
<path d="M31.5 35L35.5 26C36.2956 26 37.0587 26.3161 37.6213 26.8787C38.1839 27.4413 38.5 28.2044 38.5 29V33H44.16C44.4499 32.9967 44.7371 33.0565 45.0016 33.1752C45.2661 33.2939 45.5016 33.4687 45.6919 33.6875C45.8821 33.9063 46.0225 34.1638 46.1033 34.4423C46.1842 34.7207 46.2035 35.0134 46.16 35.3L44.78 44.3C44.7077 44.7769 44.4654 45.2116 44.0979 45.524C43.7304 45.8364 43.2623 46.0055 42.78 46H31.5M31.5 35V46M31.5 35H28.5C27.9696 35 27.4609 35.2107 27.0858 35.5858C26.7107 35.9609 26.5 36.4696 26.5 37V44C26.5 44.5304 26.7107 45.0391 27.0858 45.4142C27.4609 45.7893 27.9696 46 28.5 46H31.5" stroke="#E93740" stroke-width="2" stroke-linecap="round" stroke-linejoin="round"/>
<path d="M88.16 44V29.1H90.12V35.74H97.58V29.1H99.56V44H97.58V37.54H90.12V44H88.16ZM107.767 44.24C106.727 44.24 105.787 44 104.947 43.52C104.107 43.0267 103.44 42.3533 102.947 41.5C102.454 40.6467 102.207 39.68 102.207 38.6C102.207 37.52 102.447 36.56 102.927 35.72C103.42 34.88 104.087 34.2133 104.927 33.72C105.767 33.2267 106.714 32.98 107.767 32.98C108.807 32.98 109.747 33.2267 110.587 33.72C111.427 34.2 112.087 34.86 112.567 35.7C113.06 36.54 113.307 37.5067 113.307 38.6C113.307 39.6933 113.054 40.6667 112.547 41.52C112.04 42.36 111.367 43.0267 110.527 43.52C109.7 44 108.78 44.24 107.767 44.24ZM107.767 42.44C108.434 42.44 109.034 42.2733 109.567 41.94C110.114 41.6067 110.54 41.1467 110.847 40.56C111.167 39.9733 111.327 39.32 111.327 38.6C111.327 37.8667 111.167 37.22 110.847 36.66C110.54 36.0867 110.114 35.6333 109.567 35.3C109.034 34.9533 108.434 34.78 107.767 34.78C107.087 34.78 106.474 34.9533 105.927 35.3C105.394 35.6333 104.967 36.0867 104.647 36.66C104.327 37.22 104.167 37.8667 104.167 38.6C104.167 39.32 104.327 39.9733 104.647 40.56C104.967 41.1467 105.394 41.6067 105.927 41.94C106.474 42.2733 107.087 42.44 107.767 42.44ZM115.733 44V28.86H117.593V44H115.733ZM120.479 44V33.22H122.339V44H120.479ZM120.479 31.5V29.1H122.339V31.5H120.479ZM130.125 44.24C129.112 44.24 128.198 43.9933 127.385 43.5C126.585 43.0067 125.952 42.3333 125.485 41.48C125.018 40.6267 124.785 39.6733 124.785 38.62C124.785 37.54 125.018 36.58 125.485 35.74C125.952 34.8867 126.585 34.2133 127.385 33.72C128.198 33.2267 129.112 32.98 130.125 32.98C131.018 32.98 131.812 33.1733 132.505 33.56C133.198 33.9333 133.745 34.44 134.145 35.08L133.845 35.54V28.86H135.725V44H133.905V41.7L134.145 42.02C133.772 42.7267 133.225 43.2733 132.505 43.66C131.798 44.0467 131.005 44.24 130.125 44.24ZM130.285 42.44C130.965 42.44 131.572 42.2733 132.105 41.94C132.638 41.6067 133.058 41.1533 133.365 40.58C133.685 39.9933 133.845 39.34 133.845 38.62C133.845 37.8867 133.685 37.2333 133.365 36.66C133.058 36.0733 132.638 35.6133 132.105 35.28C131.572 34.9467 130.965 34.78 130.285 34.78C129.618 34.78 129.012 34.9533 128.465 35.3C127.932 35.6333 127.512 36.0867 127.205 36.66C126.898 37.22 126.745 37.8733 126.745 38.62C126.745 39.34 126.898 39.9933 127.205 40.58C127.512 41.1533 127.932 41.6067 128.465 41.94C128.998 42.2733 129.605 42.44 130.285 42.44ZM141.764 44.24C141.057 44.24 140.431 44.1133 139.884 43.86C139.351 43.5933 138.931 43.2333 138.624 42.78C138.317 42.3133 138.164 41.78 138.164 41.18C138.164 40.6067 138.284 40.0933 138.524 39.64C138.777 39.1733 139.164 38.78 139.684 38.46C140.217 38.14 140.884 37.9133 141.684 37.78L145.684 37.12V38.68L142.104 39.28C141.411 39.4 140.904 39.62 140.584 39.94C140.277 40.26 140.124 40.6533 140.124 41.12C140.124 41.56 140.297 41.9267 140.644 42.22C141.004 42.5133 141.451 42.66 141.984 42.66C142.664 42.66 143.251 42.52 143.744 42.24C144.251 41.9467 144.644 41.5533 144.924 41.06C145.217 40.5667 145.364 40.02 145.364 39.42V36.68C145.364 36.0933 145.144 35.62 144.704 35.26C144.277 34.8867 143.711 34.7 143.004 34.7C142.391 34.7 141.844 34.86 141.364 35.18C140.897 35.4867 140.551 35.9 140.324 36.42L138.704 35.58C138.904 35.0867 139.224 34.6467 139.664 34.26C140.104 33.86 140.617 33.5467 141.204 33.32C141.791 33.0933 142.404 32.98 143.044 32.98C143.871 32.98 144.597 33.14 145.224 33.46C145.851 33.7667 146.337 34.2 146.684 34.76C147.044 35.3067 147.224 35.9467 147.224 36.68V44H145.404V41.96L145.744 42.08C145.517 42.5067 145.211 42.88 144.824 43.2C144.437 43.52 143.984 43.7733 143.464 43.96C142.944 44.1467 142.377 44.24 141.764 44.24ZM150.688 48.4C150.448 48.4 150.208 48.38 149.968 48.34C149.728 48.3133 149.501 48.2533 149.288 48.16V46.5C149.435 46.5133 149.615 46.54 149.828 46.58C150.055 46.62 150.275 46.64 150.488 46.64C151.115 46.64 151.588 46.5 151.908 46.22C152.241 45.94 152.555 45.4667 152.848 44.8L153.528 43.18L153.488 44.8L148.888 33.22H150.908L154.488 42.42H153.888L157.448 33.22H159.508L154.648 45.28C154.421 45.8533 154.128 46.38 153.768 46.86C153.421 47.34 152.995 47.7133 152.488 47.98C151.981 48.26 151.381 48.4 150.688 48.4ZM164.84 44V29.1H170.1C171.086 29.1 171.953 29.2867 172.7 29.66C173.446 30.0333 174.026 30.5667 174.44 31.26C174.866 31.9533 175.08 32.7667 175.08 33.7C175.08 34.7533 174.813 35.6467 174.28 36.38C173.746 37.1133 173.026 37.64 172.12 37.96L175.58 44H173.3L169.66 37.54L170.96 38.3H166.8V44H164.84ZM166.8 36.5H170.16C170.746 36.5 171.26 36.3867 171.7 36.16C172.14 35.9333 172.48 35.6067 172.72 35.18C172.973 34.7533 173.1 34.26 173.1 33.7C173.1 33.1267 172.973 32.6333 172.72 32.22C172.48 31.7933 172.14 31.4667 171.7 31.24C171.26 31.0133 170.746 30.9 170.16 30.9H166.8V36.5ZM181.943 44.24C180.903 44.24 179.976 43.9933 179.163 43.5C178.35 43.0067 177.71 42.3333 177.243 41.48C176.776 40.6133 176.543 39.6467 176.543 38.58C176.543 37.5 176.77 36.54 177.223 35.7C177.69 34.86 178.316 34.2 179.103 33.72C179.903 33.2267 180.796 32.98 181.783 32.98C182.583 32.98 183.29 33.1267 183.903 33.42C184.53 33.7 185.056 34.0867 185.483 34.58C185.923 35.06 186.256 35.6133 186.483 36.24C186.723 36.8533 186.843 37.4933 186.843 38.16C186.843 38.3067 186.83 38.4733 186.803 38.66C186.79 38.8333 186.77 39 186.743 39.16H177.903V37.56H185.663L184.783 38.28C184.903 37.5867 184.836 36.9667 184.583 36.42C184.33 35.8733 183.956 35.44 183.463 35.12C182.97 34.8 182.41 34.64 181.783 34.64C181.156 34.64 180.583 34.8 180.063 35.12C179.543 35.44 179.136 35.9 178.843 36.5C178.563 37.0867 178.45 37.7867 178.503 38.6C178.45 39.3867 178.57 40.08 178.863 40.68C179.17 41.2667 179.596 41.7267 180.143 42.06C180.703 42.38 181.31 42.54 181.963 42.54C182.683 42.54 183.29 42.3733 183.783 42.04C184.276 41.7067 184.676 41.28 184.983 40.76L186.543 41.56C186.33 42.0533 185.996 42.5067 185.543 42.92C185.103 43.32 184.576 43.64 183.963 43.88C183.363 44.12 182.69 44.24 181.943 44.24ZM189.268 44V33.22H191.088V35.32L190.788 35.14C191.055 34.46 191.481 33.9333 192.068 33.56C192.668 33.1733 193.368 32.98 194.168 32.98C194.941 32.98 195.628 33.1533 196.228 33.5C196.841 33.8467 197.321 34.3267 197.668 34.94C198.028 35.5533 198.208 36.2467 198.208 37.02V44H196.328V37.62C196.328 37.02 196.221 36.5133 196.008 36.1C195.795 35.6867 195.488 35.3667 195.088 35.14C194.701 34.9 194.255 34.78 193.748 34.78C193.241 34.78 192.788 34.9 192.388 35.14C192.001 35.3667 191.695 35.6933 191.468 36.12C191.241 36.5333 191.128 37.0333 191.128 37.62V44H189.268ZM205.25 44.12C204.196 44.12 203.383 43.82 202.81 43.22C202.25 42.62 201.97 41.7733 201.97 40.68V35H200.01V33.22H200.41C200.89 33.22 201.27 33.0733 201.55 32.78C201.83 32.4867 201.97 32.1 201.97 31.62V30.74H203.83V33.22H206.25V35H203.83V40.62C203.83 40.98 203.883 41.2933 203.99 41.56C204.11 41.8267 204.303 42.04 204.57 42.2C204.836 42.3467 205.19 42.42 205.63 42.42C205.723 42.42 205.836 42.4133 205.97 42.4C206.116 42.3867 206.25 42.3733 206.37 42.36V44C206.196 44.04 206.003 44.0667 205.79 44.08C205.576 44.1067 205.396 44.12 205.25 44.12ZM211.823 44.24C211.116 44.24 210.489 44.1133 209.943 43.86C209.409 43.5933 208.989 43.2333 208.683 42.78C208.376 42.3133 208.223 41.78 208.223 41.18C208.223 40.6067 208.343 40.0933 208.583 39.64C208.836 39.1733 209.223 38.78 209.743 38.46C210.276 38.14 210.943 37.9133 211.743 37.78L215.743 37.12V38.68L212.163 39.28C211.469 39.4 210.963 39.62 210.643 39.94C210.336 40.26 210.183 40.6533 210.183 41.12C210.183 41.56 210.356 41.9267 210.703 42.22C211.063 42.5133 211.509 42.66 212.043 42.66C212.723 42.66 213.309 42.52 213.803 42.24C214.309 41.9467 214.703 41.5533 214.983 41.06C215.276 40.5667 215.423 40.02 215.423 39.42V36.68C215.423 36.0933 215.203 35.62 214.763 35.26C214.336 34.8867 213.769 34.7 213.063 34.7C212.449 34.7 211.903 34.86 211.423 35.18C210.956 35.4867 210.609 35.9 210.383 36.42L208.763 35.58C208.963 35.0867 209.283 34.6467 209.723 34.26C210.163 33.86 210.676 33.5467 211.263 33.32C211.849 33.0933 212.463 32.98 213.103 32.98C213.929 32.98 214.656 33.14 215.283 33.46C215.909 33.7667 216.396 34.2 216.743 34.76C217.103 35.3067 217.283 35.9467 217.283 36.68V44H215.463V41.96L215.803 42.08C215.576 42.5067 215.269 42.88 214.883 43.2C214.496 43.52 214.043 43.7733 213.523 43.96C213.003 44.1467 212.436 44.24 211.823 44.24ZM220.167 44V28.86H222.027V44H220.167ZM228.773 44.24C227.693 44.24 226.753 43.9733 225.953 43.44C225.153 42.9067 224.586 42.1867 224.253 41.28L225.733 40.56C226.039 41.2 226.459 41.7067 226.993 42.08C227.526 42.4533 228.119 42.64 228.773 42.64C229.359 42.64 229.846 42.5 230.233 42.22C230.619 41.94 230.813 41.5733 230.813 41.12C230.813 40.8 230.719 40.5467 230.533 40.36C230.359 40.16 230.146 40.0067 229.893 39.9C229.639 39.78 229.406 39.6933 229.193 39.64L227.573 39.18C226.599 38.9 225.886 38.5 225.433 37.98C224.993 37.46 224.773 36.8533 224.773 36.16C224.773 35.52 224.933 34.9667 225.253 34.5C225.586 34.02 226.033 33.6467 226.593 33.38C227.166 33.1133 227.806 32.98 228.513 32.98C229.459 32.98 230.306 33.22 231.053 33.7C231.813 34.18 232.353 34.8533 232.673 35.72L231.153 36.42C230.913 35.86 230.553 35.42 230.073 35.1C229.593 34.7667 229.053 34.6 228.453 34.6C227.906 34.6 227.473 34.74 227.153 35.02C226.833 35.2867 226.673 35.6267 226.673 36.04C226.673 36.3467 226.753 36.6 226.913 36.8C227.073 36.9867 227.266 37.1333 227.493 37.24C227.719 37.3333 227.939 37.4133 228.153 37.48L229.913 38C230.793 38.2533 231.473 38.6467 231.953 39.18C232.446 39.7133 232.693 40.3533 232.693 41.1C232.693 41.7 232.526 42.24 232.193 42.72C231.859 43.2 231.399 43.5733 230.813 43.84C230.226 44.1067 229.546 44.24 228.773 44.24Z" fill="#1C1C1C"/>
</svg>
