<svg width="349" height="72" viewBox="0 0 349 72" fill="none" xmlns="http://www.w3.org/2000/svg">
<rect x="1" y="0.5" width="347" height="71" rx="35.5" fill="white" stroke="#E8E8E8"/>
<rect x="7.5" y="7" width="59" height="59" rx="29.5" fill="#EAF2F9"/>
<path d="M36.5 25V47" stroke="#2D7BC0" stroke-width="2" stroke-linecap="round" stroke-linejoin="round"/>
<path d="M41.5 29H34C33.0717 29 32.1815 29.3687 31.5251 30.0251C30.8687 30.6815 30.5 31.5717 30.5 32.5C30.5 33.4283 30.8687 34.3185 31.5251 34.9749C32.1815 35.6313 33.0717 36 34 36H39C39.9283 36 40.8185 36.3687 41.4749 37.0251C42.1313 37.6815 42.5 38.5717 42.5 39.5C42.5 40.4283 42.1313 41.3185 41.4749 41.9749C40.8185 42.6313 39.9283 43 39 43H30.5" stroke="#2D7BC0" stroke-width="2" stroke-linecap="round" stroke-linejoin="round"/>
<path d="M95.02 44.24C93.9667 44.24 92.9933 44.0533 92.1 43.68C91.22 43.2933 90.4467 42.7533 89.78 42.06C89.1267 41.3667 88.62 40.5533 88.26 39.62C87.9 38.6867 87.72 37.6667 87.72 36.56C87.72 35.44 87.9 34.4133 88.26 33.48C88.62 32.5467 89.1267 31.7333 89.78 31.04C90.4333 30.3467 91.2067 29.8133 92.1 29.44C92.9933 29.0533 93.9667 28.86 95.02 28.86C96.0467 28.86 96.9667 29.04 97.78 29.4C98.6067 29.76 99.3 30.2267 99.86 30.8C100.433 31.3733 100.84 31.9867 101.08 32.64L99.28 33.46C98.9333 32.6333 98.3933 31.9667 97.66 31.46C96.9267 30.94 96.0467 30.68 95.02 30.68C93.98 30.68 93.0533 30.9267 92.24 31.42C91.44 31.9133 90.8133 32.6 90.36 33.48C89.9067 34.36 89.68 35.3867 89.68 36.56C89.68 37.72 89.9067 38.74 90.36 39.62C90.8133 40.5 91.44 41.1867 92.24 41.68C93.0533 42.1733 93.98 42.42 95.02 42.42C96.0467 42.42 96.9267 42.1667 97.66 41.66C98.3933 41.14 98.9333 40.4667 99.28 39.64L101.08 40.46C100.84 41.1133 100.433 41.7267 99.86 42.3C99.3 42.8733 98.6067 43.34 97.78 43.7C96.9667 44.06 96.0467 44.24 95.02 44.24ZM108.451 44.24C107.411 44.24 106.471 44 105.631 43.52C104.791 43.0267 104.124 42.3533 103.631 41.5C103.137 40.6467 102.891 39.68 102.891 38.6C102.891 37.52 103.131 36.56 103.611 35.72C104.104 34.88 104.771 34.2133 105.611 33.72C106.451 33.2267 107.397 32.98 108.451 32.98C109.491 32.98 110.431 33.2267 111.271 33.72C112.111 34.2 112.771 34.86 113.251 35.7C113.744 36.54 113.991 37.5067 113.991 38.6C113.991 39.6933 113.737 40.6667 113.231 41.52C112.724 42.36 112.051 43.0267 111.211 43.52C110.384 44 109.464 44.24 108.451 44.24ZM108.451 42.44C109.117 42.44 109.717 42.2733 110.251 41.94C110.797 41.6067 111.224 41.1467 111.531 40.56C111.851 39.9733 112.011 39.32 112.011 38.6C112.011 37.8667 111.851 37.22 111.531 36.66C111.224 36.0867 110.797 35.6333 110.251 35.3C109.717 34.9533 109.117 34.78 108.451 34.78C107.771 34.78 107.157 34.9533 106.611 35.3C106.077 35.6333 105.651 36.0867 105.331 36.66C105.011 37.22 104.851 37.8667 104.851 38.6C104.851 39.32 105.011 39.9733 105.331 40.56C105.651 41.1467 106.077 41.6067 106.611 41.94C107.157 42.2733 107.771 42.44 108.451 42.44ZM116.417 44V33.22H118.237V35.42L117.977 35.08C118.243 34.4 118.67 33.88 119.257 33.52C119.843 33.16 120.503 32.98 121.237 32.98C122.077 32.98 122.83 33.2133 123.497 33.68C124.177 34.1467 124.643 34.76 124.897 35.52L124.377 35.54C124.657 34.7 125.13 34.0667 125.797 33.64C126.463 33.2 127.203 32.98 128.017 32.98C128.763 32.98 129.437 33.1533 130.037 33.5C130.65 33.8467 131.137 34.3267 131.497 34.94C131.857 35.5533 132.037 36.2467 132.037 37.02V44H130.157V37.62C130.157 37.02 130.05 36.5133 129.837 36.1C129.623 35.6867 129.33 35.3667 128.957 35.14C128.597 34.9 128.17 34.78 127.677 34.78C127.197 34.78 126.763 34.9 126.377 35.14C126.003 35.3667 125.703 35.6933 125.477 36.12C125.263 36.5333 125.157 37.0333 125.157 37.62V44H123.277V37.62C123.277 37.02 123.17 36.5133 122.957 36.1C122.743 35.6867 122.45 35.3667 122.077 35.14C121.717 34.9 121.29 34.78 120.797 34.78C120.317 34.78 119.883 34.9 119.497 35.14C119.123 35.3667 118.823 35.6933 118.597 36.12C118.383 36.5333 118.277 37.0333 118.277 37.62V44H116.417ZM134.678 44V33.22H136.498V35.42L136.238 35.08C136.505 34.4 136.932 33.88 137.518 33.52C138.105 33.16 138.765 32.98 139.498 32.98C140.338 32.98 141.092 33.2133 141.758 33.68C142.438 34.1467 142.905 34.76 143.158 35.52L142.638 35.54C142.918 34.7 143.392 34.0667 144.058 33.64C144.725 33.2 145.465 32.98 146.278 32.98C147.025 32.98 147.698 33.1533 148.298 33.5C148.912 33.8467 149.398 34.3267 149.758 34.94C150.118 35.5533 150.298 36.2467 150.298 37.02V44H148.418V37.62C148.418 37.02 148.312 36.5133 148.098 36.1C147.885 35.6867 147.592 35.3667 147.218 35.14C146.858 34.9 146.432 34.78 145.938 34.78C145.458 34.78 145.025 34.9 144.638 35.14C144.265 35.3667 143.965 35.6933 143.738 36.12C143.525 36.5333 143.418 37.0333 143.418 37.62V44H141.538V37.62C141.538 37.02 141.432 36.5133 141.218 36.1C141.005 35.6867 140.712 35.3667 140.338 35.14C139.978 34.9 139.552 34.78 139.058 34.78C138.578 34.78 138.145 34.9 137.758 35.14C137.385 35.3667 137.085 35.6933 136.858 36.12C136.645 36.5333 136.538 37.0333 136.538 37.62V44H134.678ZM157.9 44.24C156.86 44.24 155.933 43.9933 155.12 43.5C154.307 43.0067 153.667 42.3333 153.2 41.48C152.733 40.6133 152.5 39.6467 152.5 38.58C152.5 37.5 152.727 36.54 153.18 35.7C153.647 34.86 154.273 34.2 155.06 33.72C155.86 33.2267 156.753 32.98 157.74 32.98C158.54 32.98 159.247 33.1267 159.86 33.42C160.487 33.7 161.013 34.0867 161.44 34.58C161.88 35.06 162.213 35.6133 162.44 36.24C162.68 36.8533 162.8 37.4933 162.8 38.16C162.8 38.3067 162.787 38.4733 162.76 38.66C162.747 38.8333 162.727 39 162.7 39.16H153.86V37.56H161.62L160.74 38.28C160.86 37.5867 160.793 36.9667 160.54 36.42C160.287 35.8733 159.913 35.44 159.42 35.12C158.927 34.8 158.367 34.64 157.74 34.64C157.113 34.64 156.54 34.8 156.02 35.12C155.5 35.44 155.093 35.9 154.8 36.5C154.52 37.0867 154.407 37.7867 154.46 38.6C154.407 39.3867 154.527 40.08 154.82 40.68C155.127 41.2667 155.553 41.7267 156.1 42.06C156.66 42.38 157.267 42.54 157.92 42.54C158.64 42.54 159.247 42.3733 159.74 42.04C160.233 41.7067 160.633 41.28 160.94 40.76L162.5 41.56C162.287 42.0533 161.953 42.5067 161.5 42.92C161.06 43.32 160.533 43.64 159.92 43.88C159.32 44.12 158.647 44.24 157.9 44.24ZM165.225 44V33.22H167.045V35.2L166.845 34.92C167.098 34.3067 167.485 33.8533 168.005 33.56C168.525 33.2533 169.158 33.1 169.905 33.1H170.565V34.86H169.625C168.865 34.86 168.252 35.1 167.785 35.58C167.318 36.0467 167.085 36.7133 167.085 37.58V44H165.225ZM177.217 44.24C176.164 44.24 175.224 43.9933 174.397 43.5C173.584 43.0067 172.944 42.3333 172.477 41.48C172.011 40.6267 171.777 39.6667 171.777 38.6C171.777 37.52 172.011 36.56 172.477 35.72C172.944 34.88 173.584 34.2133 174.397 33.72C175.224 33.2267 176.164 32.98 177.217 32.98C177.924 32.98 178.584 33.1067 179.197 33.36C179.811 33.6133 180.351 33.9533 180.817 34.38C181.284 34.8067 181.624 35.3067 181.837 35.88L180.177 36.68C179.924 36.12 179.537 35.6667 179.017 35.32C178.497 34.96 177.897 34.78 177.217 34.78C176.564 34.78 175.971 34.9467 175.437 35.28C174.917 35.6133 174.504 36.0667 174.197 36.64C173.891 37.2133 173.737 37.8733 173.737 38.62C173.737 39.34 173.891 39.9933 174.197 40.58C174.504 41.1533 174.917 41.6067 175.437 41.94C175.971 42.2733 176.564 42.44 177.217 42.44C177.897 42.44 178.497 42.2667 179.017 41.92C179.537 41.56 179.924 41.0867 180.177 40.5L181.837 41.34C181.624 41.9 181.284 42.4 180.817 42.84C180.351 43.2667 179.811 43.6067 179.197 43.86C178.584 44.1133 177.924 44.24 177.217 44.24ZM184.268 44V33.22H186.128V44H184.268ZM184.268 31.5V29.1H186.128V31.5H184.268ZM192.174 44.24C191.468 44.24 190.841 44.1133 190.294 43.86C189.761 43.5933 189.341 43.2333 189.034 42.78C188.728 42.3133 188.574 41.78 188.574 41.18C188.574 40.6067 188.694 40.0933 188.934 39.64C189.188 39.1733 189.574 38.78 190.094 38.46C190.628 38.14 191.294 37.9133 192.094 37.78L196.094 37.12V38.68L192.514 39.28C191.821 39.4 191.314 39.62 190.994 39.94C190.688 40.26 190.534 40.6533 190.534 41.12C190.534 41.56 190.708 41.9267 191.054 42.22C191.414 42.5133 191.861 42.66 192.394 42.66C193.074 42.66 193.661 42.52 194.154 42.24C194.661 41.9467 195.054 41.5533 195.334 41.06C195.628 40.5667 195.774 40.02 195.774 39.42V36.68C195.774 36.0933 195.554 35.62 195.114 35.26C194.688 34.8867 194.121 34.7 193.414 34.7C192.801 34.7 192.254 34.86 191.774 35.18C191.308 35.4867 190.961 35.9 190.734 36.42L189.114 35.58C189.314 35.0867 189.634 34.6467 190.074 34.26C190.514 33.86 191.028 33.5467 191.614 33.32C192.201 33.0933 192.814 32.98 193.454 32.98C194.281 32.98 195.008 33.14 195.634 33.46C196.261 33.7667 196.748 34.2 197.094 34.76C197.454 35.3067 197.634 35.9467 197.634 36.68V44H195.814V41.96L196.154 42.08C195.928 42.5067 195.621 42.88 195.234 43.2C194.848 43.52 194.394 43.7733 193.874 43.96C193.354 44.1467 192.788 44.24 192.174 44.24ZM200.518 44V28.86H202.378V44H200.518ZM208.941 44V29.1H214.201C215.188 29.1 216.055 29.2867 216.801 29.66C217.548 30.0333 218.128 30.5667 218.541 31.26C218.968 31.9533 219.181 32.7667 219.181 33.7C219.181 34.6333 218.968 35.4467 218.541 36.14C218.128 36.82 217.548 37.3533 216.801 37.74C216.068 38.1133 215.201 38.3 214.201 38.3H210.901V44H208.941ZM210.901 36.5H214.261C214.861 36.5 215.381 36.3867 215.821 36.16C216.261 35.9333 216.601 35.6067 216.841 35.18C217.081 34.7533 217.201 34.26 217.201 33.7C217.201 33.1267 217.081 32.6333 216.841 32.22C216.601 31.7933 216.261 31.4667 215.821 31.24C215.381 31.0133 214.861 30.9 214.261 30.9H210.901V36.5ZM221.612 44V33.22H223.432V35.2L223.232 34.92C223.485 34.3067 223.872 33.8533 224.392 33.56C224.912 33.2533 225.545 33.1 226.292 33.1H226.952V34.86H226.012C225.252 34.86 224.639 35.1 224.172 35.58C223.705 36.0467 223.472 36.7133 223.472 37.58V44H221.612ZM233.724 44.24C232.684 44.24 231.744 44 230.904 43.52C230.064 43.0267 229.397 42.3533 228.904 41.5C228.411 40.6467 228.164 39.68 228.164 38.6C228.164 37.52 228.404 36.56 228.884 35.72C229.377 34.88 230.044 34.2133 230.884 33.72C231.724 33.2267 232.671 32.98 233.724 32.98C234.764 32.98 235.704 33.2267 236.544 33.72C237.384 34.2 238.044 34.86 238.524 35.7C239.017 36.54 239.264 37.5067 239.264 38.6C239.264 39.6933 239.011 40.6667 238.504 41.52C237.997 42.36 237.324 43.0267 236.484 43.52C235.657 44 234.737 44.24 233.724 44.24ZM233.724 42.44C234.391 42.44 234.991 42.2733 235.524 41.94C236.071 41.6067 236.497 41.1467 236.804 40.56C237.124 39.9733 237.284 39.32 237.284 38.6C237.284 37.8667 237.124 37.22 236.804 36.66C236.497 36.0867 236.071 35.6333 235.524 35.3C234.991 34.9533 234.391 34.78 233.724 34.78C233.044 34.78 232.431 34.9533 231.884 35.3C231.351 35.6333 230.924 36.0867 230.604 36.66C230.284 37.22 230.124 37.8667 230.124 38.6C230.124 39.32 230.284 39.9733 230.604 40.56C230.924 41.1467 231.351 41.6067 231.884 41.94C232.431 42.2733 233.044 42.44 233.724 42.44ZM241.69 48V33.22H243.51V35.54L243.27 35.08C243.67 34.44 244.217 33.9333 244.91 33.56C245.603 33.1733 246.397 32.98 247.29 32.98C248.303 32.98 249.21 33.2267 250.01 33.72C250.823 34.2133 251.463 34.8867 251.93 35.74C252.397 36.58 252.63 37.54 252.63 38.62C252.63 39.6733 252.397 40.6267 251.93 41.48C251.463 42.3333 250.823 43.0067 250.01 43.5C249.21 43.9933 248.297 44.24 247.27 44.24C246.403 44.24 245.61 44.0467 244.89 43.66C244.183 43.2733 243.637 42.7267 243.25 42.02L243.55 41.7V48H241.69ZM247.13 42.44C247.81 42.44 248.417 42.2733 248.95 41.94C249.483 41.6067 249.897 41.1533 250.19 40.58C250.497 39.9933 250.65 39.34 250.65 38.62C250.65 37.8733 250.497 37.22 250.19 36.66C249.897 36.0867 249.483 35.6333 248.95 35.3C248.417 34.9533 247.81 34.78 247.13 34.78C246.45 34.78 245.837 34.9467 245.29 35.28C244.757 35.6133 244.33 36.0733 244.01 36.66C243.703 37.2333 243.55 37.8867 243.55 38.62C243.55 39.34 243.703 39.9933 244.01 40.58C244.33 41.1533 244.757 41.6067 245.29 41.94C245.837 42.2733 246.45 42.44 247.13 42.44ZM260.029 44.24C258.989 44.24 258.062 43.9933 257.249 43.5C256.436 43.0067 255.796 42.3333 255.329 41.48C254.862 40.6133 254.629 39.6467 254.629 38.58C254.629 37.5 254.856 36.54 255.309 35.7C255.776 34.86 256.402 34.2 257.189 33.72C257.989 33.2267 258.882 32.98 259.869 32.98C260.669 32.98 261.376 33.1267 261.989 33.42C262.616 33.7 263.142 34.0867 263.569 34.58C264.009 35.06 264.342 35.6133 264.569 36.24C264.809 36.8533 264.929 37.4933 264.929 38.16C264.929 38.3067 264.916 38.4733 264.889 38.66C264.876 38.8333 264.856 39 264.829 39.16H255.989V37.56H263.749L262.869 38.28C262.989 37.5867 262.922 36.9667 262.669 36.42C262.416 35.8733 262.042 35.44 261.549 35.12C261.056 34.8 260.496 34.64 259.869 34.64C259.242 34.64 258.669 34.8 258.149 35.12C257.629 35.44 257.222 35.9 256.929 36.5C256.649 37.0867 256.536 37.7867 256.589 38.6C256.536 39.3867 256.656 40.08 256.949 40.68C257.256 41.2667 257.682 41.7267 258.229 42.06C258.789 42.38 259.396 42.54 260.049 42.54C260.769 42.54 261.376 42.3733 261.869 42.04C262.362 41.7067 262.762 41.28 263.069 40.76L264.629 41.56C264.416 42.0533 264.082 42.5067 263.629 42.92C263.189 43.32 262.662 43.64 262.049 43.88C261.449 44.12 260.776 44.24 260.029 44.24ZM267.354 44V33.22H269.174V35.2L268.974 34.92C269.227 34.3067 269.614 33.8533 270.134 33.56C270.654 33.2533 271.287 33.1 272.034 33.1H272.694V34.86H271.754C270.994 34.86 270.381 35.1 269.914 35.58C269.447 36.0467 269.214 36.7133 269.214 37.58V44H267.354ZM278.824 44.12C277.771 44.12 276.957 43.82 276.384 43.22C275.824 42.62 275.544 41.7733 275.544 40.68V35H273.584V33.22H273.984C274.464 33.22 274.844 33.0733 275.124 32.78C275.404 32.4867 275.544 32.1 275.544 31.62V30.74H277.404V33.22H279.824V35H277.404V40.62C277.404 40.98 277.457 41.2933 277.564 41.56C277.684 41.8267 277.877 42.04 278.144 42.2C278.411 42.3467 278.764 42.42 279.204 42.42C279.297 42.42 279.411 42.4133 279.544 42.4C279.691 42.3867 279.824 42.3733 279.944 42.36V44C279.771 44.04 279.577 44.0667 279.364 44.08C279.151 44.1067 278.971 44.12 278.824 44.12ZM282.374 44V33.22H284.234V44H282.374ZM282.374 31.5V29.1H284.234V31.5H282.374ZM292.08 44.24C291.04 44.24 290.113 43.9933 289.3 43.5C288.486 43.0067 287.846 42.3333 287.38 41.48C286.913 40.6133 286.68 39.6467 286.68 38.58C286.68 37.5 286.906 36.54 287.36 35.7C287.826 34.86 288.453 34.2 289.24 33.72C290.04 33.2267 290.933 32.98 291.92 32.98C292.72 32.98 293.426 33.1267 294.04 33.42C294.666 33.7 295.193 34.0867 295.62 34.58C296.06 35.06 296.393 35.6133 296.62 36.24C296.86 36.8533 296.98 37.4933 296.98 38.16C296.98 38.3067 296.966 38.4733 296.94 38.66C296.926 38.8333 296.906 39 296.88 39.16H288.04V37.56H295.8L294.92 38.28C295.04 37.5867 294.973 36.9667 294.72 36.42C294.466 35.8733 294.093 35.44 293.6 35.12C293.106 34.8 292.546 34.64 291.92 34.64C291.293 34.64 290.72 34.8 290.2 35.12C289.68 35.44 289.273 35.9 288.98 36.5C288.7 37.0867 288.586 37.7867 288.64 38.6C288.586 39.3867 288.706 40.08 289 40.68C289.306 41.2667 289.733 41.7267 290.28 42.06C290.84 42.38 291.446 42.54 292.1 42.54C292.82 42.54 293.426 42.3733 293.92 42.04C294.413 41.7067 294.813 41.28 295.12 40.76L296.68 41.56C296.466 42.0533 296.133 42.5067 295.68 42.92C295.24 43.32 294.713 43.64 294.1 43.88C293.5 44.12 292.826 44.24 292.08 44.24ZM303.265 44.24C302.185 44.24 301.245 43.9733 300.445 43.44C299.645 42.9067 299.078 42.1867 298.745 41.28L300.225 40.56C300.532 41.2 300.952 41.7067 301.485 42.08C302.018 42.4533 302.612 42.64 303.265 42.64C303.852 42.64 304.338 42.5 304.725 42.22C305.112 41.94 305.305 41.5733 305.305 41.12C305.305 40.8 305.212 40.5467 305.025 40.36C304.852 40.16 304.638 40.0067 304.385 39.9C304.132 39.78 303.898 39.6933 303.685 39.64L302.065 39.18C301.092 38.9 300.378 38.5 299.925 37.98C299.485 37.46 299.265 36.8533 299.265 36.16C299.265 35.52 299.425 34.9667 299.745 34.5C300.078 34.02 300.525 33.6467 301.085 33.38C301.658 33.1133 302.298 32.98 303.005 32.98C303.952 32.98 304.798 33.22 305.545 33.7C306.305 34.18 306.845 34.8533 307.165 35.72L305.645 36.42C305.405 35.86 305.045 35.42 304.565 35.1C304.085 34.7667 303.545 34.6 302.945 34.6C302.398 34.6 301.965 34.74 301.645 35.02C301.325 35.2867 301.165 35.6267 301.165 36.04C301.165 36.3467 301.245 36.6 301.405 36.8C301.565 36.9867 301.758 37.1333 301.985 37.24C302.212 37.3333 302.432 37.4133 302.645 37.48L304.405 38C305.285 38.2533 305.965 38.6467 306.445 39.18C306.938 39.7133 307.185 40.3533 307.185 41.1C307.185 41.7 307.018 42.24 306.685 42.72C306.352 43.2 305.892 43.5733 305.305 43.84C304.718 44.1067 304.038 44.24 303.265 44.24Z" fill="#1C1C1C"/>
</svg>
