<svg width="257" height="72" viewBox="0 0 257 72" fill="none" xmlns="http://www.w3.org/2000/svg">
<rect x="1" y="0.5" width="255" height="71" rx="35.5" fill="white" stroke="#E8E8E8"/>
<rect x="7.5" y="7" width="59" height="59" rx="29.5" fill="#F6EDF4"/>
<path d="M36.4414 45.6846C41.9643 45.6846 46.4414 41.2074 46.4414 35.6846C46.4414 30.1617 41.9643 25.6846 36.4414 25.6846C30.9186 25.6846 26.4414 30.1617 26.4414 35.6846C26.4414 41.2074 30.9186 45.6846 36.4414 45.6846Z" stroke="#A54A95" stroke-width="2" stroke-linecap="round" stroke-linejoin="round"/>
<path d="M40.6812 31.4443L38.5612 37.8043L32.2012 39.9243L34.3212 33.5643L40.6812 31.4443Z" stroke="#A54A95" stroke-width="2" stroke-linecap="round" stroke-linejoin="round"/>
<path d="M88.16 44V29.1H97.86V30.9H90.12V35.62H97.46V37.42H90.12V42.2H97.86V44H88.16ZM103.069 44L98.8489 33.22H100.929L104.309 42.34H103.589L106.989 33.22H109.069L104.829 44H103.069ZM115.498 44.24C114.458 44.24 113.531 43.9933 112.718 43.5C111.904 43.0067 111.264 42.3333 110.798 41.48C110.331 40.6133 110.098 39.6467 110.098 38.58C110.098 37.5 110.324 36.54 110.778 35.7C111.244 34.86 111.871 34.2 112.658 33.72C113.458 33.2267 114.351 32.98 115.338 32.98C116.138 32.98 116.844 33.1267 117.458 33.42C118.084 33.7 118.611 34.0867 119.038 34.58C119.478 35.06 119.811 35.6133 120.038 36.24C120.278 36.8533 120.398 37.4933 120.398 38.16C120.398 38.3067 120.384 38.4733 120.358 38.66C120.344 38.8333 120.324 39 120.298 39.16H111.458V37.56H119.218L118.338 38.28C118.458 37.5867 118.391 36.9667 118.138 36.42C117.884 35.8733 117.511 35.44 117.018 35.12C116.524 34.8 115.964 34.64 115.338 34.64C114.711 34.64 114.138 34.8 113.618 35.12C113.098 35.44 112.691 35.9 112.398 36.5C112.118 37.0867 112.004 37.7867 112.058 38.6C112.004 39.3867 112.124 40.08 112.418 40.68C112.724 41.2667 113.151 41.7267 113.698 42.06C114.258 42.38 114.864 42.54 115.518 42.54C116.238 42.54 116.844 42.3733 117.338 42.04C117.831 41.7067 118.231 41.28 118.538 40.76L120.098 41.56C119.884 42.0533 119.551 42.5067 119.098 42.92C118.658 43.32 118.131 43.64 117.518 43.88C116.918 44.12 116.244 44.24 115.498 44.24ZM122.823 44V33.22H124.643V35.32L124.343 35.14C124.609 34.46 125.036 33.9333 125.623 33.56C126.223 33.1733 126.923 32.98 127.723 32.98C128.496 32.98 129.183 33.1533 129.783 33.5C130.396 33.8467 130.876 34.3267 131.223 34.94C131.583 35.5533 131.763 36.2467 131.763 37.02V44H129.883V37.62C129.883 37.02 129.776 36.5133 129.563 36.1C129.349 35.6867 129.043 35.3667 128.643 35.14C128.256 34.9 127.809 34.78 127.303 34.78C126.796 34.78 126.343 34.9 125.943 35.14C125.556 35.3667 125.249 35.6933 125.023 36.12C124.796 36.5333 124.683 37.0333 124.683 37.62V44H122.823ZM138.804 44.12C137.751 44.12 136.938 43.82 136.364 43.22C135.804 42.62 135.524 41.7733 135.524 40.68V35H133.564V33.22H133.964C134.444 33.22 134.824 33.0733 135.104 32.78C135.384 32.4867 135.524 32.1 135.524 31.62V30.74H137.384V33.22H139.804V35H137.384V40.62C137.384 40.98 137.438 41.2933 137.544 41.56C137.664 41.8267 137.858 42.04 138.124 42.2C138.391 42.3467 138.744 42.42 139.184 42.42C139.278 42.42 139.391 42.4133 139.524 42.4C139.671 42.3867 139.804 42.3733 139.924 42.36V44C139.751 44.04 139.558 44.0667 139.344 44.08C139.131 44.1067 138.951 44.12 138.804 44.12ZM151.151 44.24C150.204 44.24 149.338 44.0667 148.551 43.72C147.764 43.36 147.098 42.8733 146.551 42.26C146.004 41.6467 145.611 40.96 145.371 40.2L147.071 39.5C147.431 40.46 147.964 41.2 148.671 41.72C149.391 42.2267 150.231 42.48 151.191 42.48C151.778 42.48 152.291 42.3867 152.731 42.2C153.171 42.0133 153.511 41.7533 153.751 41.42C154.004 41.0733 154.131 40.6733 154.131 40.22C154.131 39.5933 153.951 39.1 153.591 38.74C153.244 38.3667 152.731 38.0867 152.051 37.9L149.311 37.06C148.231 36.7267 147.404 36.2 146.831 35.48C146.258 34.76 145.971 33.9333 145.971 33C145.971 32.1867 146.164 31.4733 146.551 30.86C146.951 30.2333 147.498 29.7467 148.191 29.4C148.898 29.04 149.698 28.86 150.591 28.86C151.484 28.86 152.291 29.02 153.011 29.34C153.744 29.66 154.364 30.0933 154.871 30.64C155.378 31.1733 155.751 31.7867 155.991 32.48L154.311 33.18C153.991 32.34 153.511 31.7067 152.871 31.28C152.231 30.84 151.478 30.62 150.611 30.62C150.078 30.62 149.604 30.7133 149.191 30.9C148.791 31.0733 148.478 31.3333 148.251 31.68C148.038 32.0133 147.931 32.4133 147.931 32.88C147.931 33.4267 148.104 33.9133 148.451 34.34C148.798 34.7667 149.324 35.0933 150.031 35.32L152.531 36.06C153.704 36.42 154.591 36.9333 155.191 37.6C155.791 38.2667 156.091 39.0933 156.091 40.08C156.091 40.8933 155.878 41.6133 155.451 42.24C155.038 42.8667 154.458 43.36 153.711 43.72C152.978 44.0667 152.124 44.24 151.151 44.24ZM158.741 48V33.22H160.561V35.54L160.321 35.08C160.721 34.44 161.267 33.9333 161.961 33.56C162.654 33.1733 163.447 32.98 164.341 32.98C165.354 32.98 166.261 33.2267 167.061 33.72C167.874 34.2133 168.514 34.8867 168.981 35.74C169.447 36.58 169.681 37.54 169.681 38.62C169.681 39.6733 169.447 40.6267 168.981 41.48C168.514 42.3333 167.874 43.0067 167.061 43.5C166.261 43.9933 165.347 44.24 164.321 44.24C163.454 44.24 162.661 44.0467 161.941 43.66C161.234 43.2733 160.687 42.7267 160.301 42.02L160.601 41.7V48H158.741ZM164.181 42.44C164.861 42.44 165.467 42.2733 166.001 41.94C166.534 41.6067 166.947 41.1533 167.241 40.58C167.547 39.9933 167.701 39.34 167.701 38.62C167.701 37.8733 167.547 37.22 167.241 36.66C166.947 36.0867 166.534 35.6333 166.001 35.3C165.467 34.9533 164.861 34.78 164.181 34.78C163.501 34.78 162.887 34.9467 162.341 35.28C161.807 35.6133 161.381 36.0733 161.061 36.66C160.754 37.2333 160.601 37.8867 160.601 38.62C160.601 39.34 160.754 39.9933 161.061 40.58C161.381 41.1533 161.807 41.6067 162.341 41.94C162.887 42.2733 163.501 42.44 164.181 42.44ZM175.28 44.24C174.573 44.24 173.946 44.1133 173.4 43.86C172.866 43.5933 172.446 43.2333 172.14 42.78C171.833 42.3133 171.68 41.78 171.68 41.18C171.68 40.6067 171.8 40.0933 172.04 39.64C172.293 39.1733 172.68 38.78 173.2 38.46C173.733 38.14 174.4 37.9133 175.2 37.78L179.2 37.12V38.68L175.62 39.28C174.926 39.4 174.42 39.62 174.1 39.94C173.793 40.26 173.64 40.6533 173.64 41.12C173.64 41.56 173.813 41.9267 174.16 42.22C174.52 42.5133 174.966 42.66 175.5 42.66C176.18 42.66 176.766 42.52 177.26 42.24C177.766 41.9467 178.16 41.5533 178.44 41.06C178.733 40.5667 178.88 40.02 178.88 39.42V36.68C178.88 36.0933 178.66 35.62 178.22 35.26C177.793 34.8867 177.226 34.7 176.52 34.7C175.906 34.7 175.36 34.86 174.88 35.18C174.413 35.4867 174.066 35.9 173.84 36.42L172.22 35.58C172.42 35.0867 172.74 34.6467 173.18 34.26C173.62 33.86 174.133 33.5467 174.72 33.32C175.306 33.0933 175.92 32.98 176.56 32.98C177.386 32.98 178.113 33.14 178.74 33.46C179.366 33.7667 179.853 34.2 180.2 34.76C180.56 35.3067 180.74 35.9467 180.74 36.68V44H178.92V41.96L179.26 42.08C179.033 42.5067 178.726 42.88 178.34 43.2C177.953 43.52 177.5 43.7733 176.98 43.96C176.46 44.1467 175.893 44.24 175.28 44.24ZM188.624 44.24C187.57 44.24 186.63 43.9933 185.804 43.5C184.99 43.0067 184.35 42.3333 183.884 41.48C183.417 40.6267 183.184 39.6667 183.184 38.6C183.184 37.52 183.417 36.56 183.884 35.72C184.35 34.88 184.99 34.2133 185.804 33.72C186.63 33.2267 187.57 32.98 188.624 32.98C189.33 32.98 189.99 33.1067 190.604 33.36C191.217 33.6133 191.757 33.9533 192.224 34.38C192.69 34.8067 193.03 35.3067 193.244 35.88L191.584 36.68C191.33 36.12 190.944 35.6667 190.424 35.32C189.904 34.96 189.304 34.78 188.624 34.78C187.97 34.78 187.377 34.9467 186.844 35.28C186.324 35.6133 185.91 36.0667 185.604 36.64C185.297 37.2133 185.144 37.8733 185.144 38.62C185.144 39.34 185.297 39.9933 185.604 40.58C185.91 41.1533 186.324 41.6067 186.844 41.94C187.377 42.2733 187.97 42.44 188.624 42.44C189.304 42.44 189.904 42.2667 190.424 41.92C190.944 41.56 191.33 41.0867 191.584 40.5L193.244 41.34C193.03 41.9 192.69 42.4 192.224 42.84C191.757 43.2667 191.217 43.6067 190.604 43.86C189.99 44.1133 189.33 44.24 188.624 44.24ZM200.634 44.24C199.594 44.24 198.668 43.9933 197.854 43.5C197.041 43.0067 196.401 42.3333 195.934 41.48C195.468 40.6133 195.234 39.6467 195.234 38.58C195.234 37.5 195.461 36.54 195.914 35.7C196.381 34.86 197.008 34.2 197.794 33.72C198.594 33.2267 199.488 32.98 200.474 32.98C201.274 32.98 201.981 33.1267 202.594 33.42C203.221 33.7 203.748 34.0867 204.174 34.58C204.614 35.06 204.948 35.6133 205.174 36.24C205.414 36.8533 205.534 37.4933 205.534 38.16C205.534 38.3067 205.521 38.4733 205.494 38.66C205.481 38.8333 205.461 39 205.434 39.16H196.594V37.56H204.354L203.474 38.28C203.594 37.5867 203.528 36.9667 203.274 36.42C203.021 35.8733 202.648 35.44 202.154 35.12C201.661 34.8 201.101 34.64 200.474 34.64C199.848 34.64 199.274 34.8 198.754 35.12C198.234 35.44 197.828 35.9 197.534 36.5C197.254 37.0867 197.141 37.7867 197.194 38.6C197.141 39.3867 197.261 40.08 197.554 40.68C197.861 41.2667 198.288 41.7267 198.834 42.06C199.394 42.38 200.001 42.54 200.654 42.54C201.374 42.54 201.981 42.3733 202.474 42.04C202.968 41.7067 203.368 41.28 203.674 40.76L205.234 41.56C205.021 42.0533 204.688 42.5067 204.234 42.92C203.794 43.32 203.268 43.64 202.654 43.88C202.054 44.12 201.381 44.24 200.634 44.24ZM211.82 44.24C210.74 44.24 209.8 43.9733 209 43.44C208.2 42.9067 207.633 42.1867 207.3 41.28L208.78 40.56C209.086 41.2 209.506 41.7067 210.04 42.08C210.573 42.4533 211.166 42.64 211.82 42.64C212.406 42.64 212.893 42.5 213.28 42.22C213.666 41.94 213.86 41.5733 213.86 41.12C213.86 40.8 213.766 40.5467 213.58 40.36C213.406 40.16 213.193 40.0067 212.94 39.9C212.686 39.78 212.453 39.6933 212.24 39.64L210.62 39.18C209.646 38.9 208.933 38.5 208.48 37.98C208.04 37.46 207.82 36.8533 207.82 36.16C207.82 35.52 207.98 34.9667 208.3 34.5C208.633 34.02 209.08 33.6467 209.64 33.38C210.213 33.1133 210.853 32.98 211.56 32.98C212.506 32.98 213.353 33.22 214.1 33.7C214.86 34.18 215.4 34.8533 215.72 35.72L214.2 36.42C213.96 35.86 213.6 35.42 213.12 35.1C212.64 34.7667 212.1 34.6 211.5 34.6C210.953 34.6 210.52 34.74 210.2 35.02C209.88 35.2867 209.72 35.6267 209.72 36.04C209.72 36.3467 209.8 36.6 209.96 36.8C210.12 36.9867 210.313 37.1333 210.54 37.24C210.766 37.3333 210.986 37.4133 211.2 37.48L212.96 38C213.84 38.2533 214.52 38.6467 215 39.18C215.493 39.7133 215.74 40.3533 215.74 41.1C215.74 41.7 215.573 42.24 215.24 42.72C214.906 43.2 214.446 43.5733 213.86 43.84C213.273 44.1067 212.593 44.24 211.82 44.24Z" fill="#1C1C1C"/>
</svg>
