<svg width="174" height="72" viewBox="0 0 174 72" fill="none" xmlns="http://www.w3.org/2000/svg">
<rect x="1" y="0.5" width="172" height="71" rx="35.5" fill="white" stroke="#E8E8E8"/>
<rect x="7.5" y="7" width="59" height="59" rx="29.5" fill="#FEF3EB"/>
<path d="M36.8262 37.2051C37.3785 37.2051 37.8262 36.7574 37.8262 36.2051C37.8262 35.6528 37.3785 35.2051 36.8262 35.2051C36.2739 35.2051 35.8262 35.6528 35.8262 36.2051C35.8262 36.7574 36.2739 37.2051 36.8262 37.2051Z" stroke="#F68235" stroke-width="2" stroke-linecap="round" stroke-linejoin="round"/>
<path d="M43.8262 37.2051C44.3785 37.2051 44.8262 36.7574 44.8262 36.2051C44.8262 35.6528 44.3785 35.2051 43.8262 35.2051C43.2739 35.2051 42.8262 35.6528 42.8262 36.2051C42.8262 36.7574 43.2739 37.2051 43.8262 37.2051Z" stroke="#F68235" stroke-width="2" stroke-linecap="round" stroke-linejoin="round"/>
<path d="M29.8262 37.2051C30.3785 37.2051 30.8262 36.7574 30.8262 36.2051C30.8262 35.6528 30.3785 35.2051 29.8262 35.2051C29.2739 35.2051 28.8262 35.6528 28.8262 36.2051C28.8262 36.7574 29.2739 37.2051 29.8262 37.2051Z" stroke="#F68235" stroke-width="2" stroke-linecap="round" stroke-linejoin="round"/>
<path d="M88.16 44V29.1H89.96L95.54 37.04H94.62L100.16 29.1H101.96V44H99.98V31.58L100.68 31.8L95.14 39.6H94.98L89.5 31.8L90.12 31.58V44H88.16ZM110.169 44.24C109.129 44.24 108.189 44 107.349 43.52C106.509 43.0267 105.843 42.3533 105.349 41.5C104.856 40.6467 104.609 39.68 104.609 38.6C104.609 37.52 104.849 36.56 105.329 35.72C105.823 34.88 106.489 34.2133 107.329 33.72C108.169 33.2267 109.116 32.98 110.169 32.98C111.209 32.98 112.149 33.2267 112.989 33.72C113.829 34.2 114.489 34.86 114.969 35.7C115.463 36.54 115.709 37.5067 115.709 38.6C115.709 39.6933 115.456 40.6667 114.949 41.52C114.443 42.36 113.769 43.0267 112.929 43.52C112.103 44 111.183 44.24 110.169 44.24ZM110.169 42.44C110.836 42.44 111.436 42.2733 111.969 41.94C112.516 41.6067 112.943 41.1467 113.249 40.56C113.569 39.9733 113.729 39.32 113.729 38.6C113.729 37.8667 113.569 37.22 113.249 36.66C112.943 36.0867 112.516 35.6333 111.969 35.3C111.436 34.9533 110.836 34.78 110.169 34.78C109.489 34.78 108.876 34.9533 108.329 35.3C107.796 35.6333 107.369 36.0867 107.049 36.66C106.729 37.22 106.569 37.8667 106.569 38.6C106.569 39.32 106.729 39.9733 107.049 40.56C107.369 41.1467 107.796 41.6067 108.329 41.94C108.876 42.2733 109.489 42.44 110.169 42.44ZM118.135 44V33.22H119.955V35.2L119.755 34.92C120.009 34.3067 120.395 33.8533 120.915 33.56C121.435 33.2533 122.069 33.1 122.815 33.1H123.475V34.86H122.535C121.775 34.86 121.162 35.1 120.695 35.58C120.229 36.0467 119.995 36.7133 119.995 37.58V44H118.135ZM130.088 44.24C129.048 44.24 128.121 43.9933 127.308 43.5C126.494 43.0067 125.854 42.3333 125.388 41.48C124.921 40.6133 124.688 39.6467 124.688 38.58C124.688 37.5 124.914 36.54 125.368 35.7C125.834 34.86 126.461 34.2 127.248 33.72C128.048 33.2267 128.941 32.98 129.928 32.98C130.728 32.98 131.434 33.1267 132.048 33.42C132.674 33.7 133.201 34.0867 133.628 34.58C134.068 35.06 134.401 35.6133 134.628 36.24C134.868 36.8533 134.987 37.4933 134.987 38.16C134.987 38.3067 134.974 38.4733 134.948 38.66C134.934 38.8333 134.914 39 134.888 39.16H126.048V37.56H133.808L132.928 38.28C133.048 37.5867 132.981 36.9667 132.728 36.42C132.474 35.8733 132.101 35.44 131.608 35.12C131.114 34.8 130.554 34.64 129.928 34.64C129.301 34.64 128.728 34.8 128.208 35.12C127.688 35.44 127.281 35.9 126.988 36.5C126.708 37.0867 126.594 37.7867 126.648 38.6C126.594 39.3867 126.714 40.08 127.008 40.68C127.314 41.2667 127.741 41.7267 128.288 42.06C128.848 42.38 129.454 42.54 130.108 42.54C130.828 42.54 131.434 42.3733 131.928 42.04C132.421 41.7067 132.821 41.28 133.128 40.76L134.688 41.56C134.474 42.0533 134.141 42.5067 133.688 42.92C133.248 43.32 132.721 43.64 132.108 43.88C131.508 44.12 130.834 44.24 130.088 44.24Z" fill="#1C1C1C"/>
</svg>
