<svg width="307" height="72" viewBox="0 0 307 72" fill="none" xmlns="http://www.w3.org/2000/svg">
<rect x="1" y="0.5" width="305" height="71" rx="35.5" fill="white" stroke="#E8E8E8"/>
<rect x="7.5" y="7" width="59" height="59" rx="29.5" fill="#F1F8ED"/>
<path d="M27.3203 32.665L36.3203 25.665L45.3203 32.665V43.665C45.3203 44.1955 45.1096 44.7042 44.7345 45.0793C44.3595 45.4543 43.8507 45.665 43.3203 45.665H29.3203C28.7899 45.665 28.2812 45.4543 27.9061 45.0793C27.531 44.7042 27.3203 44.1955 27.3203 43.665V32.665Z" stroke="#77B747" stroke-width="2" stroke-linecap="round" stroke-linejoin="round"/>
<path d="M33.3203 45.665V35.665H39.3203V45.665" stroke="#77B747" stroke-width="2" stroke-linecap="round" stroke-linejoin="round"/>
<path d="M88.16 44V29.1H93.42C94.4067 29.1 95.2733 29.2867 96.02 29.66C96.7667 30.0333 97.3467 30.5667 97.76 31.26C98.1867 31.9533 98.4 32.7667 98.4 33.7C98.4 34.7533 98.1333 35.6467 97.6 36.38C97.0667 37.1133 96.3467 37.64 95.44 37.96L98.9 44H96.62L92.98 37.54L94.28 38.3H90.12V44H88.16ZM90.12 36.5H93.48C94.0667 36.5 94.58 36.3867 95.02 36.16C95.46 35.9333 95.8 35.6067 96.04 35.18C96.2933 34.7533 96.42 34.26 96.42 33.7C96.42 33.1267 96.2933 32.6333 96.04 32.22C95.8 31.7933 95.46 31.4667 95.02 31.24C94.58 31.0133 94.0667 30.9 93.48 30.9H90.12V36.5ZM105.263 44.24C104.223 44.24 103.297 43.9933 102.483 43.5C101.67 43.0067 101.03 42.3333 100.563 41.48C100.097 40.6133 99.8633 39.6467 99.8633 38.58C99.8633 37.5 100.09 36.54 100.543 35.7C101.01 34.86 101.637 34.2 102.423 33.72C103.223 33.2267 104.117 32.98 105.103 32.98C105.903 32.98 106.61 33.1267 107.223 33.42C107.85 33.7 108.377 34.0867 108.803 34.58C109.243 35.06 109.577 35.6133 109.803 36.24C110.043 36.8533 110.163 37.4933 110.163 38.16C110.163 38.3067 110.15 38.4733 110.123 38.66C110.11 38.8333 110.09 39 110.063 39.16H101.223V37.56H108.983L108.103 38.28C108.223 37.5867 108.157 36.9667 107.903 36.42C107.65 35.8733 107.277 35.44 106.783 35.12C106.29 34.8 105.73 34.64 105.103 34.64C104.477 34.64 103.903 34.8 103.383 35.12C102.863 35.44 102.457 35.9 102.163 36.5C101.883 37.0867 101.77 37.7867 101.823 38.6C101.77 39.3867 101.89 40.08 102.183 40.68C102.49 41.2667 102.917 41.7267 103.463 42.06C104.023 42.38 104.63 42.54 105.283 42.54C106.003 42.54 106.61 42.3733 107.103 42.04C107.597 41.7067 107.997 41.28 108.303 40.76L109.863 41.56C109.65 42.0533 109.317 42.5067 108.863 42.92C108.423 43.32 107.897 43.64 107.283 43.88C106.683 44.12 106.01 44.24 105.263 44.24ZM116.448 44.24C115.368 44.24 114.428 43.9733 113.628 43.44C112.828 42.9067 112.262 42.1867 111.928 41.28L113.408 40.56C113.715 41.2 114.135 41.7067 114.668 42.08C115.202 42.4533 115.795 42.64 116.448 42.64C117.035 42.64 117.522 42.5 117.908 42.22C118.295 41.94 118.488 41.5733 118.488 41.12C118.488 40.8 118.395 40.5467 118.208 40.36C118.035 40.16 117.822 40.0067 117.568 39.9C117.315 39.78 117.082 39.6933 116.868 39.64L115.248 39.18C114.275 38.9 113.562 38.5 113.108 37.98C112.668 37.46 112.448 36.8533 112.448 36.16C112.448 35.52 112.608 34.9667 112.928 34.5C113.262 34.02 113.708 33.6467 114.268 33.38C114.842 33.1133 115.482 32.98 116.188 32.98C117.135 32.98 117.982 33.22 118.728 33.7C119.488 34.18 120.028 34.8533 120.348 35.72L118.828 36.42C118.588 35.86 118.228 35.42 117.748 35.1C117.268 34.7667 116.728 34.6 116.128 34.6C115.582 34.6 115.148 34.74 114.828 35.02C114.508 35.2867 114.348 35.6267 114.348 36.04C114.348 36.3467 114.428 36.6 114.588 36.8C114.748 36.9867 114.942 37.1333 115.168 37.24C115.395 37.3333 115.615 37.4133 115.828 37.48L117.588 38C118.468 38.2533 119.148 38.6467 119.628 39.18C120.122 39.7133 120.368 40.3533 120.368 41.1C120.368 41.7 120.202 42.24 119.868 42.72C119.535 43.2 119.075 43.5733 118.488 43.84C117.902 44.1067 117.222 44.24 116.448 44.24ZM122.803 44V33.22H124.663V44H122.803ZM122.803 31.5V29.1H124.663V31.5H122.803ZM132.449 44.24C131.436 44.24 130.523 43.9933 129.709 43.5C128.909 43.0067 128.276 42.3333 127.809 41.48C127.343 40.6267 127.109 39.6733 127.109 38.62C127.109 37.54 127.343 36.58 127.809 35.74C128.276 34.8867 128.909 34.2133 129.709 33.72C130.523 33.2267 131.436 32.98 132.449 32.98C133.343 32.98 134.136 33.1733 134.829 33.56C135.523 33.9333 136.069 34.44 136.469 35.08L136.169 35.54V28.86H138.049V44H136.229V41.7L136.469 42.02C136.096 42.7267 135.549 43.2733 134.829 43.66C134.123 44.0467 133.329 44.24 132.449 44.24ZM132.609 42.44C133.289 42.44 133.896 42.2733 134.429 41.94C134.963 41.6067 135.383 41.1533 135.689 40.58C136.009 39.9933 136.169 39.34 136.169 38.62C136.169 37.8867 136.009 37.2333 135.689 36.66C135.383 36.0733 134.963 35.6133 134.429 35.28C133.896 34.9467 133.289 34.78 132.609 34.78C131.943 34.78 131.336 34.9533 130.789 35.3C130.256 35.6333 129.836 36.0867 129.529 36.66C129.223 37.22 129.069 37.8733 129.069 38.62C129.069 39.34 129.223 39.9933 129.529 40.58C129.836 41.1533 130.256 41.6067 130.789 41.94C131.323 42.2733 131.929 42.44 132.609 42.44ZM145.888 44.24C144.848 44.24 143.922 43.9933 143.108 43.5C142.295 43.0067 141.655 42.3333 141.188 41.48C140.722 40.6133 140.488 39.6467 140.488 38.58C140.488 37.5 140.715 36.54 141.168 35.7C141.635 34.86 142.262 34.2 143.048 33.72C143.848 33.2267 144.742 32.98 145.728 32.98C146.528 32.98 147.235 33.1267 147.848 33.42C148.475 33.7 149.002 34.0867 149.428 34.58C149.868 35.06 150.202 35.6133 150.428 36.24C150.668 36.8533 150.788 37.4933 150.788 38.16C150.788 38.3067 150.775 38.4733 150.748 38.66C150.735 38.8333 150.715 39 150.688 39.16H141.848V37.56H149.608L148.728 38.28C148.848 37.5867 148.782 36.9667 148.528 36.42C148.275 35.8733 147.902 35.44 147.408 35.12C146.915 34.8 146.355 34.64 145.728 34.64C145.102 34.64 144.528 34.8 144.008 35.12C143.488 35.44 143.082 35.9 142.788 36.5C142.508 37.0867 142.395 37.7867 142.448 38.6C142.395 39.3867 142.515 40.08 142.808 40.68C143.115 41.2667 143.542 41.7267 144.088 42.06C144.648 42.38 145.255 42.54 145.908 42.54C146.628 42.54 147.235 42.3733 147.728 42.04C148.222 41.7067 148.622 41.28 148.928 40.76L150.488 41.56C150.275 42.0533 149.942 42.5067 149.488 42.92C149.048 43.32 148.522 43.64 147.908 43.88C147.308 44.12 146.635 44.24 145.888 44.24ZM153.213 44V33.22H155.033V35.32L154.733 35.14C155 34.46 155.427 33.9333 156.013 33.56C156.613 33.1733 157.313 32.98 158.113 32.98C158.887 32.98 159.573 33.1533 160.173 33.5C160.787 33.8467 161.267 34.3267 161.613 34.94C161.973 35.5533 162.153 36.2467 162.153 37.02V44H160.273V37.62C160.273 37.02 160.167 36.5133 159.953 36.1C159.74 35.6867 159.433 35.3667 159.033 35.14C158.647 34.9 158.2 34.78 157.693 34.78C157.187 34.78 156.733 34.9 156.333 35.14C155.947 35.3667 155.64 35.6933 155.413 36.12C155.187 36.5333 155.073 37.0333 155.073 37.62V44H153.213ZM169.195 44.12C168.142 44.12 167.328 43.82 166.755 43.22C166.195 42.62 165.915 41.7733 165.915 40.68V35H163.955V33.22H164.355C164.835 33.22 165.215 33.0733 165.495 32.78C165.775 32.4867 165.915 32.1 165.915 31.62V30.74H167.775V33.22H170.195V35H167.775V40.62C167.775 40.98 167.828 41.2933 167.935 41.56C168.055 41.8267 168.248 42.04 168.515 42.2C168.782 42.3467 169.135 42.42 169.575 42.42C169.668 42.42 169.782 42.4133 169.915 42.4C170.062 42.3867 170.195 42.3733 170.315 42.36V44C170.142 44.04 169.948 44.0667 169.735 44.08C169.522 44.1067 169.342 44.12 169.195 44.12ZM172.745 44V33.22H174.605V44H172.745ZM172.745 31.5V29.1H174.605V31.5H172.745ZM180.651 44.24C179.944 44.24 179.317 44.1133 178.771 43.86C178.237 43.5933 177.817 43.2333 177.511 42.78C177.204 42.3133 177.051 41.78 177.051 41.18C177.051 40.6067 177.171 40.0933 177.411 39.64C177.664 39.1733 178.051 38.78 178.571 38.46C179.104 38.14 179.771 37.9133 180.571 37.78L184.571 37.12V38.68L180.991 39.28C180.297 39.4 179.791 39.62 179.471 39.94C179.164 40.26 179.011 40.6533 179.011 41.12C179.011 41.56 179.184 41.9267 179.531 42.22C179.891 42.5133 180.337 42.66 180.871 42.66C181.551 42.66 182.137 42.52 182.631 42.24C183.137 41.9467 183.531 41.5533 183.811 41.06C184.104 40.5667 184.251 40.02 184.251 39.42V36.68C184.251 36.0933 184.031 35.62 183.591 35.26C183.164 34.8867 182.597 34.7 181.891 34.7C181.277 34.7 180.731 34.86 180.251 35.18C179.784 35.4867 179.437 35.9 179.211 36.42L177.591 35.58C177.791 35.0867 178.111 34.6467 178.551 34.26C178.991 33.86 179.504 33.5467 180.091 33.32C180.677 33.0933 181.291 32.98 181.931 32.98C182.757 32.98 183.484 33.14 184.111 33.46C184.737 33.7667 185.224 34.2 185.571 34.76C185.931 35.3067 186.111 35.9467 186.111 36.68V44H184.291V41.96L184.631 42.08C184.404 42.5067 184.097 42.88 183.711 43.2C183.324 43.52 182.871 43.7733 182.351 43.96C181.831 44.1467 181.264 44.24 180.651 44.24ZM188.995 44V28.86H190.855V44H188.995ZM202.538 44.24C201.591 44.24 200.724 44.0667 199.938 43.72C199.151 43.36 198.484 42.8733 197.938 42.26C197.391 41.6467 196.998 40.96 196.758 40.2L198.458 39.5C198.818 40.46 199.351 41.2 200.058 41.72C200.778 42.2267 201.618 42.48 202.578 42.48C203.164 42.48 203.678 42.3867 204.118 42.2C204.558 42.0133 204.898 41.7533 205.138 41.42C205.391 41.0733 205.518 40.6733 205.518 40.22C205.518 39.5933 205.338 39.1 204.978 38.74C204.631 38.3667 204.118 38.0867 203.438 37.9L200.698 37.06C199.618 36.7267 198.791 36.2 198.218 35.48C197.644 34.76 197.358 33.9333 197.358 33C197.358 32.1867 197.551 31.4733 197.938 30.86C198.338 30.2333 198.884 29.7467 199.578 29.4C200.284 29.04 201.084 28.86 201.978 28.86C202.871 28.86 203.678 29.02 204.398 29.34C205.131 29.66 205.751 30.0933 206.258 30.64C206.764 31.1733 207.138 31.7867 207.378 32.48L205.698 33.18C205.378 32.34 204.898 31.7067 204.258 31.28C203.618 30.84 202.864 30.62 201.998 30.62C201.464 30.62 200.991 30.7133 200.578 30.9C200.178 31.0733 199.864 31.3333 199.638 31.68C199.424 32.0133 199.318 32.4133 199.318 32.88C199.318 33.4267 199.491 33.9133 199.838 34.34C200.184 34.7667 200.711 35.0933 201.418 35.32L203.918 36.06C205.091 36.42 205.978 36.9333 206.578 37.6C207.178 38.2667 207.478 39.0933 207.478 40.08C207.478 40.8933 207.264 41.6133 206.838 42.24C206.424 42.8667 205.844 43.36 205.098 43.72C204.364 44.0667 203.511 44.24 202.538 44.24ZM210.128 48V33.22H211.948V35.54L211.708 35.08C212.108 34.44 212.654 33.9333 213.348 33.56C214.041 33.1733 214.834 32.98 215.728 32.98C216.741 32.98 217.648 33.2267 218.448 33.72C219.261 34.2133 219.901 34.8867 220.368 35.74C220.834 36.58 221.068 37.54 221.068 38.62C221.068 39.6733 220.834 40.6267 220.368 41.48C219.901 42.3333 219.261 43.0067 218.448 43.5C217.648 43.9933 216.734 44.24 215.708 44.24C214.841 44.24 214.048 44.0467 213.328 43.66C212.621 43.2733 212.074 42.7267 211.688 42.02L211.988 41.7V48H210.128ZM215.568 42.44C216.248 42.44 216.854 42.2733 217.388 41.94C217.921 41.6067 218.334 41.1533 218.628 40.58C218.934 39.9933 219.088 39.34 219.088 38.62C219.088 37.8733 218.934 37.22 218.628 36.66C218.334 36.0867 217.921 35.6333 217.388 35.3C216.854 34.9533 216.248 34.78 215.568 34.78C214.888 34.78 214.274 34.9467 213.728 35.28C213.194 35.6133 212.768 36.0733 212.448 36.66C212.141 37.2333 211.988 37.8867 211.988 38.62C211.988 39.34 212.141 39.9933 212.448 40.58C212.768 41.1533 213.194 41.6067 213.728 41.94C214.274 42.2733 214.888 42.44 215.568 42.44ZM226.666 44.24C225.96 44.24 225.333 44.1133 224.786 43.86C224.253 43.5933 223.833 43.2333 223.526 42.78C223.22 42.3133 223.066 41.78 223.066 41.18C223.066 40.6067 223.186 40.0933 223.426 39.64C223.68 39.1733 224.066 38.78 224.586 38.46C225.12 38.14 225.786 37.9133 226.586 37.78L230.586 37.12V38.68L227.006 39.28C226.313 39.4 225.806 39.62 225.486 39.94C225.18 40.26 225.026 40.6533 225.026 41.12C225.026 41.56 225.2 41.9267 225.546 42.22C225.906 42.5133 226.353 42.66 226.886 42.66C227.566 42.66 228.153 42.52 228.646 42.24C229.153 41.9467 229.546 41.5533 229.826 41.06C230.12 40.5667 230.266 40.02 230.266 39.42V36.68C230.266 36.0933 230.046 35.62 229.606 35.26C229.18 34.8867 228.613 34.7 227.906 34.7C227.293 34.7 226.746 34.86 226.266 35.18C225.8 35.4867 225.453 35.9 225.226 36.42L223.606 35.58C223.806 35.0867 224.126 34.6467 224.566 34.26C225.006 33.86 225.52 33.5467 226.106 33.32C226.693 33.0933 227.306 32.98 227.946 32.98C228.773 32.98 229.5 33.14 230.126 33.46C230.753 33.7667 231.24 34.2 231.586 34.76C231.946 35.3067 232.126 35.9467 232.126 36.68V44H230.306V41.96L230.646 42.08C230.42 42.5067 230.113 42.88 229.726 43.2C229.34 43.52 228.886 43.7733 228.366 43.96C227.846 44.1467 227.28 44.24 226.666 44.24ZM240.01 44.24C238.957 44.24 238.017 43.9933 237.19 43.5C236.377 43.0067 235.737 42.3333 235.27 41.48C234.804 40.6267 234.57 39.6667 234.57 38.6C234.57 37.52 234.804 36.56 235.27 35.72C235.737 34.88 236.377 34.2133 237.19 33.72C238.017 33.2267 238.957 32.98 240.01 32.98C240.717 32.98 241.377 33.1067 241.99 33.36C242.604 33.6133 243.144 33.9533 243.61 34.38C244.077 34.8067 244.417 35.3067 244.63 35.88L242.97 36.68C242.717 36.12 242.33 35.6667 241.81 35.32C241.29 34.96 240.69 34.78 240.01 34.78C239.357 34.78 238.764 34.9467 238.23 35.28C237.71 35.6133 237.297 36.0667 236.99 36.64C236.684 37.2133 236.53 37.8733 236.53 38.62C236.53 39.34 236.684 39.9933 236.99 40.58C237.297 41.1533 237.71 41.6067 238.23 41.94C238.764 42.2733 239.357 42.44 240.01 42.44C240.69 42.44 241.29 42.2667 241.81 41.92C242.33 41.56 242.717 41.0867 242.97 40.5L244.63 41.34C244.417 41.9 244.077 42.4 243.61 42.84C243.144 43.2667 242.604 43.6067 241.99 43.86C241.377 44.1133 240.717 44.24 240.01 44.24ZM252.021 44.24C250.981 44.24 250.054 43.9933 249.241 43.5C248.428 43.0067 247.788 42.3333 247.321 41.48C246.854 40.6133 246.621 39.6467 246.621 38.58C246.621 37.5 246.848 36.54 247.301 35.7C247.768 34.86 248.394 34.2 249.181 33.72C249.981 33.2267 250.874 32.98 251.861 32.98C252.661 32.98 253.368 33.1267 253.981 33.42C254.608 33.7 255.134 34.0867 255.561 34.58C256.001 35.06 256.334 35.6133 256.561 36.24C256.801 36.8533 256.921 37.4933 256.921 38.16C256.921 38.3067 256.908 38.4733 256.881 38.66C256.868 38.8333 256.848 39 256.821 39.16H247.981V37.56H255.741L254.861 38.28C254.981 37.5867 254.914 36.9667 254.661 36.42C254.408 35.8733 254.034 35.44 253.541 35.12C253.048 34.8 252.488 34.64 251.861 34.64C251.234 34.64 250.661 34.8 250.141 35.12C249.621 35.44 249.214 35.9 248.921 36.5C248.641 37.0867 248.528 37.7867 248.581 38.6C248.528 39.3867 248.648 40.08 248.941 40.68C249.248 41.2667 249.674 41.7267 250.221 42.06C250.781 42.38 251.388 42.54 252.041 42.54C252.761 42.54 253.368 42.3733 253.861 42.04C254.354 41.7067 254.754 41.28 255.061 40.76L256.621 41.56C256.408 42.0533 256.074 42.5067 255.621 42.92C255.181 43.32 254.654 43.64 254.041 43.88C253.441 44.12 252.768 44.24 252.021 44.24ZM263.206 44.24C262.126 44.24 261.186 43.9733 260.386 43.44C259.586 42.9067 259.02 42.1867 258.686 41.28L260.166 40.56C260.473 41.2 260.893 41.7067 261.426 42.08C261.96 42.4533 262.553 42.64 263.206 42.64C263.793 42.64 264.28 42.5 264.666 42.22C265.053 41.94 265.246 41.5733 265.246 41.12C265.246 40.8 265.153 40.5467 264.966 40.36C264.793 40.16 264.58 40.0067 264.326 39.9C264.073 39.78 263.84 39.6933 263.626 39.64L262.006 39.18C261.033 38.9 260.32 38.5 259.866 37.98C259.426 37.46 259.206 36.8533 259.206 36.16C259.206 35.52 259.366 34.9667 259.686 34.5C260.02 34.02 260.466 33.6467 261.026 33.38C261.6 33.1133 262.24 32.98 262.946 32.98C263.893 32.98 264.74 33.22 265.486 33.7C266.246 34.18 266.786 34.8533 267.106 35.72L265.586 36.42C265.346 35.86 264.986 35.42 264.506 35.1C264.026 34.7667 263.486 34.6 262.886 34.6C262.34 34.6 261.906 34.74 261.586 35.02C261.266 35.2867 261.106 35.6267 261.106 36.04C261.106 36.3467 261.186 36.6 261.346 36.8C261.506 36.9867 261.7 37.1333 261.926 37.24C262.153 37.3333 262.373 37.4133 262.586 37.48L264.346 38C265.226 38.2533 265.906 38.6467 266.386 39.18C266.88 39.7133 267.126 40.3533 267.126 41.1C267.126 41.7 266.96 42.24 266.626 42.72C266.293 43.2 265.833 43.5733 265.246 43.84C264.66 44.1067 263.98 44.24 263.206 44.24Z" fill="#1C1C1C"/>
</svg>
